<svg width="731" height="32" viewBox="0 0 731 32" fill="none" xmlns="http://www.w3.org/2000/svg">
<path d="M13.1328 21C13.5651 21 13.9583 20.8828 14.3125 20.6484C14.6667 20.4089 14.901 20.0755 15.0156 19.6484C15.1823 20.0807 15.4609 20.4141 15.8516 20.6484C16.2422 20.8828 16.7448 21 17.3594 21C18.3177 21 19.0339 20.7135 19.5078 20.1406C19.9818 19.5625 20.2188 18.6849 20.2188 17.5078C20.2188 17.1016 20.1901 16.6641 20.1328 16.1953C20.0807 15.7214 20.0026 15.2448 19.8984 14.7656L17.5625 15.3203C17.6562 15.8516 17.7266 16.3021 17.7734 16.6719C17.8203 17.0417 17.8438 17.3281 17.8438 17.5312C17.8438 18.2396 17.5443 18.5938 16.9453 18.5938C16.612 18.5938 16.3646 18.5026 16.2031 18.3203C16.0469 18.1328 15.9844 17.8411 16.0156 17.4453L16.1172 15.8594L14.0234 15.7109L13.8906 17.4688C13.8542 17.849 13.7552 18.1328 13.5938 18.3203C13.4375 18.5026 13.2135 18.5938 12.9219 18.5938C12.6094 18.5938 12.3672 18.4974 12.1953 18.3047C12.0286 18.112 11.8854 17.7812 11.7656 17.3125L11.1094 15.1406L8.75 16.0703C8.90104 16.487 9.04688 16.9245 9.1875 17.3828C9.32812 17.8411 9.44271 18.2917 9.53125 18.7344C9.625 19.1719 9.67188 19.5807 9.67188 19.9609C9.67188 20.4974 9.57292 20.9609 9.375 21.3516C9.17708 21.7474 8.84635 22.0521 8.38281 22.2656C7.91927 22.4844 7.28906 22.5938 6.49219 22.5938C5.71094 22.5938 5.08333 22.4792 4.60938 22.25C4.14062 22.026 3.80208 21.7005 3.59375 21.2734C3.38542 20.8464 3.28125 20.3281 3.28125 19.7188C3.28125 19.1615 3.35156 18.5677 3.49219 17.9375C3.63802 17.3021 3.79948 16.6927 3.97656 16.1094L1.79688 15.4531C1.61458 15.974 1.45833 16.4974 1.32812 17.0234C1.20312 17.5495 1.10677 18.0625 1.03906 18.5625C0.976562 19.0573 0.945312 19.5286 0.945312 19.9766C0.945312 21.5703 1.39583 22.8047 2.29688 23.6797C3.19792 24.5599 4.59896 25 6.5 25C7.48438 25 8.375 24.8411 9.17188 24.5234C9.96875 24.2109 10.6172 23.7292 11.1172 23.0781C11.6172 22.4271 11.9115 21.599 12 20.5938C12.1302 20.7188 12.2917 20.8177 12.4844 20.8906C12.6771 20.9635 12.8932 21 13.1328 21ZM11.9531 12.75L13.4375 14.2266L14.9141 12.75L13.4375 11.2656L11.9531 12.75ZM14.6875 12.75L16.1719 14.2266L17.6484 12.75L16.1719 11.2656L14.6875 12.75ZM13.3203 10.1719L14.8047 11.6484L16.2812 10.1719L14.8047 8.6875L13.3203 10.1719ZM22.4219 15.75C22.6875 16.5469 22.8906 17.2786 23.0312 17.9453C23.1719 18.612 23.2422 19.1927 23.2422 19.6875C23.2422 20.2917 23.112 20.8151 22.8516 21.2578C22.5964 21.7057 22.1849 22.1042 21.6172 22.4531C21.0495 22.8073 20.2995 23.1484 19.3672 23.4766L20.4141 25.6406C21.6484 25.1927 22.6484 24.6797 23.4141 24.1016C24.1849 23.5286 24.75 22.8776 25.1094 22.1484C25.4688 21.4193 25.6484 20.5964 25.6484 19.6797C25.6484 19.0182 25.5651 18.3047 25.3984 17.5391C25.2318 16.7682 25 15.9115 24.7031 14.9688L22.4219 15.75ZM27.1719 9.64844V17.1406C27.1719 18.4167 27.5312 19.3802 28.25 20.0312C28.974 20.6771 29.9792 21 31.2656 21V18.5938C30.6042 18.5938 30.1589 18.4818 29.9297 18.2578C29.7005 18.0339 29.5859 17.6458 29.5859 17.0938V9.64844H27.1719ZM33.8281 9.70312L35.3125 11.1797L36.7891 9.70312L35.3125 8.21875L33.8281 9.70312ZM31.9297 16.2188C31.9297 16.7396 32.0365 17.1875 32.25 17.5625C32.4635 17.9375 32.737 18.2526 33.0703 18.5078C32.8776 18.5391 32.6849 18.5625 32.4922 18.5781C32.3047 18.5885 32.1042 18.5938 31.8906 18.5938H31.2656C31.1562 18.5938 31.0729 18.6745 31.0156 18.8359C30.9583 18.9974 30.9297 19.3177 30.9297 19.7969C30.9297 20.276 30.9583 20.5964 31.0156 20.7578C31.0729 20.9193 31.1562 21 31.2656 21H32.1094C32.6823 21 33.2396 20.9453 33.7812 20.8359C34.3229 20.7266 34.8203 20.5703 35.2734 20.3672C35.7266 20.5703 36.2266 20.7266 36.7734 20.8359C37.3203 20.9453 37.8776 21 38.4453 21H39.3828V18.5938H38.6797C38.4766 18.5938 38.2839 18.5885 38.1016 18.5781C37.9245 18.5625 37.7474 18.5391 37.5703 18.5078C37.9089 18.2474 38.1849 17.9245 38.3984 17.5391C38.612 17.1484 38.7188 16.6953 38.7188 16.1797C38.7188 15.5234 38.5651 14.9427 38.2578 14.4375C37.9557 13.9271 37.5495 13.5286 37.0391 13.2422C36.5286 12.9505 35.9583 12.8047 35.3281 12.8047C34.6875 12.8047 34.1094 12.9531 33.5938 13.25C33.0833 13.5417 32.6771 13.9453 32.375 14.4609C32.0781 14.9714 31.9297 15.5573 31.9297 16.2188ZM35.3125 17.9688C35.0208 17.7969 34.7839 17.5703 34.6016 17.2891C34.4245 17.0026 34.3359 16.6849 34.3359 16.3359C34.3359 16.0391 34.4167 15.776 34.5781 15.5469C34.7396 15.3177 34.9896 15.2031 35.3281 15.2031C35.6615 15.2031 35.9062 15.3203 36.0625 15.5547C36.224 15.7839 36.3047 16.0443 36.3047 16.3359C36.3047 16.6901 36.2188 17.0078 36.0469 17.2891C35.8802 17.5703 35.6354 17.7969 35.3125 17.9688ZM44.7031 18.5938C44.375 18.5781 44.138 18.4661 43.9922 18.2578C43.8464 18.0443 43.7917 17.7396 43.8281 17.3438L43.9922 15.4688L41.5859 15.2891L41.4375 17.0156C41.3854 17.5885 41.2214 17.9948 40.9453 18.2344C40.6745 18.474 40.2552 18.5938 39.6875 18.5938H39.3906C39.2708 18.5938 39.1875 18.6849 39.1406 18.8672C39.0885 19.0495 39.0625 19.349 39.0625 19.7656C39.0625 20.1927 39.0885 20.5052 39.1406 20.7031C39.1927 20.901 39.276 21 39.3906 21H39.6875C40.3021 21 40.8542 20.8724 41.3438 20.6172C41.8385 20.362 42.1979 20.0208 42.4219 19.5938C42.5729 20.0573 42.8307 20.4089 43.1953 20.6484C43.5651 20.8828 44.0443 21 44.6328 21C45.7891 21 46.5339 20.5495 46.8672 19.6484C47.0339 20.0807 47.3125 20.4141 47.7031 20.6484C48.099 20.8828 48.6042 21 49.2188 21C50.1823 21 50.8984 20.7109 51.3672 20.1328C51.8359 19.5547 52.0703 18.6771 52.0703 17.5C52.0703 17.2188 52.0573 16.9193 52.0312 16.6016C52.0052 16.2786 51.9688 15.9531 51.9219 15.625C51.875 15.2969 51.8177 14.9792 51.75 14.6719L49.4219 15.2266C49.4792 15.5495 49.5286 15.8594 49.5703 16.1562C49.612 16.4531 49.6432 16.7214 49.6641 16.9609C49.6849 17.1953 49.6953 17.3854 49.6953 17.5312C49.6953 18.2396 49.3958 18.5938 48.7969 18.5938C48.4635 18.5938 48.2161 18.5026 48.0547 18.3203C47.8984 18.1328 47.8359 17.8411 47.8672 17.4453L47.9688 15.8594L45.875 15.7109L45.7422 17.4688C45.7057 17.8646 45.6016 18.1562 45.4297 18.3438C45.2578 18.526 45.0156 18.6094 44.7031 18.5938ZM68.2812 18.5938H67.9766C67.5234 18.5938 67.1719 18.5391 66.9219 18.4297C66.6719 18.3203 66.4974 18.1432 66.3984 17.8984C66.2995 17.6484 66.25 17.3151 66.25 16.8984V9.64844H63.8438V20.0625C63.8438 20.9948 63.6224 21.6901 63.1797 22.1484C62.7422 22.612 62.0495 22.8438 61.1016 22.8438C60.2057 22.8438 59.5521 22.6432 59.1406 22.2422C58.7344 21.8411 58.5312 21.3021 58.5312 20.625C58.5312 20.2448 58.5807 19.8229 58.6797 19.3594C58.7839 18.8958 58.9193 18.4271 59.0859 17.9531L56.9688 17.2031C56.7135 17.8542 56.5182 18.5026 56.3828 19.1484C56.2474 19.7891 56.1797 20.388 56.1797 20.9453C56.1797 21.7891 56.3542 22.5339 56.7031 23.1797C57.0573 23.8307 57.5885 24.3385 58.2969 24.7031C59.0052 25.0677 59.8958 25.25 60.9688 25.25C62.0208 25.25 62.9375 25.0547 63.7188 24.6641C64.5 24.2786 65.1068 23.737 65.5391 23.0391C65.9714 22.3464 66.1875 21.5391 66.1875 20.6172V20.2188C66.3698 20.4844 66.6198 20.6823 66.9375 20.8125C67.2552 20.9375 67.6016 21 67.9766 21H68.2812V18.5938ZM69.7031 23.6641L71.1875 25.1406L72.6641 23.6641L71.1875 22.1797L69.7031 23.6641ZM66.9688 23.6641L68.4531 25.1406L69.9297 23.6641L68.4531 22.1797L66.9688 23.6641ZM72.5 14.0234L70.2344 14.6406C70.3542 15.1562 70.4505 15.6198 70.5234 16.0312C70.6016 16.4375 70.6406 16.7917 70.6406 17.0938C70.6406 17.4375 70.5807 17.7214 70.4609 17.9453C70.3464 18.1641 70.151 18.3281 69.875 18.4375C69.599 18.5417 69.224 18.5938 68.75 18.5938H68.2812C68.1719 18.5938 68.0885 18.6745 68.0312 18.8359C67.974 18.9974 67.9453 19.3177 67.9453 19.7969C67.9453 20.276 67.974 20.5964 68.0312 20.7578C68.0885 20.9193 68.1719 21 68.2812 21H68.75C69.7865 21 70.6146 20.8516 71.2344 20.5547C71.8594 20.2578 72.3099 19.8385 72.5859 19.2969C72.862 18.75 73 18.112 73 17.3828C73 16.8984 72.9531 16.375 72.8594 15.8125C72.7708 15.25 72.651 14.6536 72.5 14.0234ZM78.4219 18.5703C78.2604 18.5755 78.0807 18.5807 77.8828 18.5859C77.6901 18.5911 77.5 18.5938 77.3125 18.5938C76.9531 18.5938 76.6927 18.5391 76.5312 18.4297C76.3698 18.3151 76.2891 18.125 76.2891 17.8594C76.2891 17.5885 76.3229 17.3385 76.3906 17.1094C76.4635 16.875 76.5703 16.6875 76.7109 16.5469C76.8516 16.401 77.0312 16.3281 77.25 16.3281C77.4375 16.3281 77.5964 16.3828 77.7266 16.4922C77.862 16.5964 77.974 16.7474 78.0625 16.9453C78.1562 17.1432 78.2318 17.3802 78.2891 17.6562C78.3464 17.9271 78.3906 18.2318 78.4219 18.5703ZM78.1094 21C77.8542 21.4844 77.3646 21.9323 76.6406 22.3438C75.9167 22.7604 75.0286 23.1276 73.9766 23.4453L75.0078 25.625C76.6172 25.1146 77.8828 24.4844 78.8047 23.7344C79.7266 22.9896 80.2969 22.0781 80.5156 21H81.2109V18.5938H80.6094C80.5677 17.974 80.4792 17.388 80.3438 16.8359C80.2135 16.2839 80.0208 15.7969 79.7656 15.375C79.5156 14.9479 79.1875 14.6146 78.7812 14.375C78.3802 14.1302 77.8854 14.0078 77.2969 14.0078C76.7604 14.0078 76.2969 14.1302 75.9062 14.375C75.5156 14.6198 75.1927 14.9427 74.9375 15.3438C74.6823 15.7448 74.4922 16.1849 74.3672 16.6641C74.2474 17.1432 74.1875 17.6172 74.1875 18.0859C74.1875 19.0339 74.4349 19.7578 74.9297 20.2578C75.4245 20.7526 76.1146 21 77 21C77.1823 21 77.3646 21 77.5469 21C77.7344 21 77.9219 21 78.1094 21ZM84.9688 13.2188C84.0625 13.2188 83.3802 13.513 82.9219 14.1016C82.4688 14.6849 82.1484 15.4974 81.9609 16.5391L81.8984 16.9375L83.7734 17.2734L83.8359 16.9609C83.9297 16.5078 84.0807 16.1693 84.2891 15.9453C84.4974 15.7161 84.7604 15.6016 85.0781 15.6016C85.3073 15.6016 85.5339 15.6432 85.7578 15.7266C85.987 15.8047 86.237 15.901 86.5078 16.0156C86.7839 16.1302 87.0859 16.25 87.4141 16.375C87.7474 16.4948 88.125 16.599 88.5469 16.6875L86.8125 17.7344C86.4323 17.9583 86.0625 18.1328 85.7031 18.2578C85.349 18.3828 84.9844 18.4714 84.6094 18.5234C84.2344 18.5703 83.8229 18.5938 83.375 18.5938H81.2188C81.1094 18.5938 81.0286 18.6745 80.9766 18.8359C80.9193 18.9974 80.8906 19.3177 80.8906 19.7969C80.8906 20.2708 80.9193 20.5911 80.9766 20.7578C81.0286 20.9193 81.1094 21 81.2188 21H82.9141C83.8568 21 84.724 20.8932 85.5156 20.6797C86.3125 20.4661 87.0938 20.1068 87.8594 19.6016L88.7969 18.9688C89.0729 19.7031 89.487 20.2266 90.0391 20.5391C90.5911 20.8464 91.2682 21 92.0703 21H92.2734V18.5938H92.0781C91.5833 18.5938 91.2161 18.5495 90.9766 18.4609C90.737 18.3672 90.526 18.1927 90.3438 17.9375L91.3906 17.2422V15.3203C90.651 15.1693 89.9766 14.9766 89.3672 14.7422C88.763 14.5026 88.2005 14.2708 87.6797 14.0469C87.1589 13.8177 86.6771 13.6224 86.2344 13.4609C85.7917 13.2995 85.3698 13.2188 84.9688 13.2188ZM96.0156 14.0234L93.75 14.6406C93.8698 15.1562 93.9661 15.6198 94.0391 16.0312C94.1172 16.4375 94.1562 16.7917 94.1562 17.0938C94.1562 17.6094 94.0286 17.9896 93.7734 18.2344C93.5234 18.474 93.1198 18.5938 92.5625 18.5938H92.2656C92.1562 18.5938 92.0755 18.6745 92.0234 18.8359C91.9661 18.9974 91.9375 19.3177 91.9375 19.7969C91.9375 20.276 91.9661 20.5964 92.0234 20.7578C92.0755 20.9193 92.1562 21 92.2656 21H92.5625C93.5 21 94.2578 20.8516 94.8359 20.5547C95.4193 20.2578 95.8438 19.8385 96.1094 19.2969C96.3802 18.75 96.5156 18.112 96.5156 17.3828C96.5156 16.8984 96.4688 16.375 96.375 15.8125C96.2865 15.25 96.1667 14.6536 96.0156 14.0234ZM94.0781 11.8594L95.5625 13.3359L97.0391 11.8594L95.5625 10.375L94.0781 11.8594ZM91.3438 11.8594L92.8281 13.3359L94.3047 11.8594L92.8281 10.375L91.3438 11.8594Z" fill="#417F56"/>
<path d="M116.999 30.3332C109.093 30.3332 102.666 23.9065 102.666 15.9998C102.666 8.09317 109.093 1.6665 116.999 1.6665C124.906 1.6665 131.333 8.09317 131.333 15.9998C131.333 23.9065 124.906 30.3332 116.999 30.3332ZM116.999 3.6665C110.199 3.6665 104.666 9.19984 104.666 15.9998C104.666 22.7998 110.199 28.3332 116.999 28.3332C123.799 28.3332 129.333 22.7998 129.333 15.9998C129.333 9.19984 123.799 3.6665 116.999 3.6665Z" fill="#417F56"/>
<path d="M115.106 20.7735C114.839 20.7735 114.586 20.6668 114.399 20.4801L110.626 16.7068C110.239 16.3201 110.239 15.6801 110.626 15.2935C111.013 14.9068 111.653 14.9068 112.039 15.2935L115.106 18.3601L121.959 11.5068C122.346 11.1201 122.986 11.1201 123.373 11.5068C123.759 11.8935 123.759 12.5335 123.373 12.9201L115.813 20.4801C115.626 20.6668 115.373 20.7735 115.106 20.7735Z" fill="#417F56"/>
<line x1="297" y1="16.5" x2="141.5" y2="16.5" stroke="#417F56" stroke-linecap="round" stroke-dasharray="4 4"/>
<path d="M416.5 18.75H417.5C417.91 18.75 418.25 18.41 418.25 18C418.25 17.59 417.91 17.25 417.5 17.25H416.5C415.81 17.25 415.25 16.69 415.25 16V6.75H423.5C424.68 6.75 425.76 7.38998 426.34 8.41998C426.54 8.77998 427 8.91002 427.36 8.71002C427.72 8.51002 427.85 8.05 427.65 7.69C426.81 6.19 425.22 5.25 423.5 5.25H414.5C414.09 5.25 413.75 5.59 413.75 6V16C413.75 17.52 414.98 18.75 416.5 18.75Z" fill="#417F56"/>
<path d="M410.5 24.75H411.5C411.91 24.75 412.25 24.41 412.25 24C412.25 23.31 412.81 22.75 413.5 22.75C414.19 22.75 414.75 23.31 414.75 24C414.75 24.41 415.09 24.75 415.5 24.75H419.5C419.91 24.75 420.25 24.41 420.25 24C420.25 23.31 420.81 22.75 421.5 22.75C422.19 22.75 422.75 23.31 422.75 24C422.75 24.41 423.09 24.75 423.5 24.75H424.5C426.57 24.75 428.25 23.07 428.25 21C428.25 20.59 427.91 20.25 427.5 20.25C427.09 20.25 426.75 20.59 426.75 21C426.75 22.24 425.74 23.25 424.5 23.25H424.15C423.82 22.1 422.76 21.25 421.5 21.25C420.24 21.25 419.18 22.1 418.85 23.25H416.14C415.81 22.1 414.75 21.25 413.49 21.25C412.23 21.25 411.17 22.1 410.84 23.25H410.5C409.26 23.25 408.25 22.24 408.25 21V18.75H410.5C411.46 18.75 412.25 17.96 412.25 17V14C412.25 13.04 411.47 12.25 410.5 12.25L411.57 10.38C411.79 9.99 412.21 9.75 412.66 9.75H413.75V16C413.75 17.52 414.98 18.75 416.5 18.75H417.5C417.91 18.75 418.25 18.41 418.25 18C418.25 17.59 417.91 17.25 417.5 17.25H416.5C415.81 17.25 415.25 16.69 415.25 16V9C415.25 8.59 414.91 8.25 414.5 8.25H412.66C411.67 8.25 410.76 8.78001 410.27 9.64001L408.56 12.63C408.43 12.86 408.43 13.15 408.56 13.38C408.69 13.61 408.94 13.75 409.21 13.75H410.5C410.64 13.75 410.75 13.86 410.75 14V17C410.75 17.14 410.64 17.25 410.5 17.25H407.5C407.09 17.25 406.75 17.59 406.75 18V21C406.75 23.07 408.43 24.75 410.5 24.75Z" fill="#417F56"/>
<path d="M421.5 26.75C423.02 26.75 424.25 25.52 424.25 24C424.25 22.48 423.02 21.25 421.5 21.25C419.98 21.25 418.75 22.48 418.75 24C418.75 25.52 419.98 26.75 421.5 26.75ZM421.5 22.75C422.19 22.75 422.75 23.31 422.75 24C422.75 24.69 422.19 25.25 421.5 25.25C420.81 25.25 420.25 24.69 420.25 24C420.25 23.31 420.81 22.75 421.5 22.75Z" fill="#417F56"/>
<path d="M413.5 26.75C415.02 26.75 416.25 25.52 416.25 24C416.25 22.48 415.02 21.25 413.5 21.25C411.98 21.25 410.75 22.48 410.75 24C410.75 25.52 411.98 26.75 413.5 26.75ZM413.5 22.75C414.19 22.75 414.75 23.31 414.75 24C414.75 24.69 414.19 25.25 413.5 25.25C412.81 25.25 412.25 24.69 412.25 24C412.25 23.31 412.81 22.75 413.5 22.75Z" fill="#417F56"/>
<path d="M407.5 18.75H410.5C411.46 18.75 412.25 17.96 412.25 17V14C412.25 13.04 411.46 12.25 410.5 12.25H409.21C408.94 12.25 408.69 12.39 408.56 12.63L406.85 15.63C406.79 15.74 406.75 15.87 406.75 16V18C406.75 18.41 407.09 18.75 407.5 18.75ZM410.5 13.75C410.64 13.75 410.75 13.86 410.75 14V17C410.75 17.14 410.64 17.25 410.5 17.25H408.25V16.2L409.65 13.75H410.5Z" fill="#417F56"/>
<path d="M421.5 12.75H427.5C427.91 12.75 428.25 12.41 428.25 12C428.25 11.59 427.91 11.25 427.5 11.25H421.5C421.09 11.25 420.75 11.59 420.75 12C420.75 12.41 421.09 12.75 421.5 12.75Z" fill="#417F56"/>
<path d="M423.5 15.75H427.5C427.91 15.75 428.25 15.41 428.25 15C428.25 14.59 427.91 14.25 427.5 14.25H423.5C423.09 14.25 422.75 14.59 422.75 15C422.75 15.41 423.09 15.75 423.5 15.75Z" fill="#417F56"/>
<path d="M425.5 18.75H427.5C427.91 18.75 428.25 18.41 428.25 18C428.25 17.59 427.91 17.25 427.5 17.25H425.5C425.09 17.25 424.75 17.59 424.75 18C424.75 18.41 425.09 18.75 425.5 18.75Z" fill="#417F56"/>
<path d="M306.781 15.1406C306.572 15.9199 306.467 16.6309 306.467 17.2734C306.467 18.0345 306.626 18.6543 306.945 19.1328C307.269 19.6068 307.777 19.9531 308.47 20.1719C309.167 20.3906 310.078 20.5 311.204 20.5C312.681 20.5 313.818 20.3245 314.615 19.9736C315.417 19.6227 315.862 19.1009 315.948 18.4082C316.176 18.8958 316.445 19.2946 316.755 19.6045C317.065 19.9098 317.425 20.1354 317.835 20.2812C318.245 20.4271 318.712 20.5 319.236 20.5H319.243V19.2422H319.236C318.771 19.2422 318.377 19.1807 318.054 19.0576C317.73 18.9346 317.436 18.7249 317.172 18.4287C316.912 18.1279 316.643 17.7109 316.365 17.1777C316.119 16.6901 315.85 16.2526 315.559 15.8652C315.267 15.4733 314.925 15.0928 314.533 14.7236C314.141 14.3499 313.672 13.9512 313.125 13.5273V13.459C313.822 13.0944 314.549 12.764 315.306 12.4678C316.067 12.167 316.905 11.8776 317.821 11.5996L317.541 10.376C316.529 10.6585 315.54 11.0072 314.574 11.4219C313.613 11.832 312.662 12.3083 311.724 12.8506V14.0127C312.804 14.7464 313.626 15.4323 314.191 16.0703C314.761 16.7038 315.046 17.262 315.046 17.7451C315.046 18.2464 314.727 18.6224 314.089 18.873C313.455 19.1191 312.494 19.2422 311.204 19.2422C310.32 19.2422 309.62 19.1784 309.105 19.0508C308.59 18.9232 308.221 18.709 307.998 18.4082C307.779 18.1074 307.67 17.7041 307.67 17.1982C307.67 16.7015 307.759 16.1068 307.937 15.4141L306.781 15.1406ZM322.757 17.1777V16.1592H321.499V17.1777C321.499 17.638 321.451 18.0208 321.355 18.3262C321.26 18.6315 321.075 18.8617 320.802 19.0166C320.528 19.167 320.123 19.2422 319.585 19.2422H319.25C319.173 19.2422 319.118 19.2878 319.086 19.3789C319.054 19.4655 319.038 19.6296 319.038 19.8711C319.038 20.1081 319.054 20.2721 319.086 20.3633C319.118 20.4544 319.173 20.5 319.25 20.5H319.585C319.981 20.5 320.355 20.443 320.706 20.3291C321.057 20.2152 321.358 20.0488 321.608 19.8301C321.859 19.6113 322.03 19.3447 322.121 19.0303C322.253 19.4997 322.538 19.862 322.976 20.1172C323.413 20.3724 323.921 20.5 324.5 20.5H324.992V19.2422H324.521C324.024 19.2422 323.648 19.167 323.393 19.0166C323.142 18.8662 322.973 18.6383 322.887 18.333C322.8 18.0231 322.757 17.638 322.757 17.1777ZM320.104 22.9404L321.13 23.959L322.148 22.9404L321.13 21.915L320.104 22.9404ZM317.719 22.9404L318.744 23.959L319.763 22.9404L318.744 21.915L317.719 22.9404ZM323.741 22.9336L324.767 23.9521L325.785 22.9336L324.767 21.9082L323.741 22.9336ZM326.127 22.9336L327.152 23.9521L328.171 22.9336L327.152 21.9082L326.127 22.9336ZM324.944 25.0596L325.97 26.0781L326.988 25.0596L325.97 24.0342L324.944 25.0596ZM327.932 14.9561L326.749 15.2773C326.858 15.7422 326.947 16.1683 327.016 16.5557C327.089 16.9385 327.125 17.2826 327.125 17.5879C327.125 18.1211 326.988 18.5312 326.715 18.8184C326.441 19.1009 325.981 19.2422 325.334 19.2422H324.992C324.915 19.2422 324.86 19.2878 324.828 19.3789C324.796 19.4655 324.78 19.6296 324.78 19.8711C324.78 20.1081 324.796 20.2721 324.828 20.3633C324.86 20.4544 324.915 20.5 324.992 20.5H325.334C326.054 20.5 326.635 20.3838 327.077 20.1514C327.519 19.9189 327.84 19.5908 328.041 19.167C328.246 18.7432 328.349 18.2441 328.349 17.6699C328.349 17.278 328.31 16.8542 328.232 16.3984C328.155 15.9427 328.055 15.4619 327.932 14.9561ZM335.93 19.2422C336.404 18.5085 336.846 17.9388 337.256 17.5332C337.671 17.123 338.053 16.8337 338.404 16.665C338.755 16.4964 339.072 16.4121 339.354 16.4121C339.769 16.4121 340.095 16.5374 340.332 16.7881C340.574 17.0342 340.694 17.3532 340.694 17.7451C340.694 18.0596 340.621 18.3148 340.476 18.5107C340.33 18.7067 340.127 18.8571 339.867 18.9619C339.612 19.0667 339.32 19.1396 338.992 19.1807C338.664 19.2217 338.318 19.2422 337.953 19.2422H335.93ZM334.46 19.2422H332.416V20.5H337.714C338.425 20.5 339.086 20.4408 339.696 20.3223C340.312 20.1992 340.815 19.9736 341.207 19.6455C341.439 19.8962 341.715 20.1012 342.034 20.2607C342.358 20.4202 342.775 20.5 343.285 20.5H343.292V19.2422H343.285C342.952 19.2422 342.665 19.2035 342.424 19.126C342.182 19.0439 341.975 18.93 341.802 18.7842C341.884 18.6338 341.948 18.4697 341.993 18.292C342.039 18.1143 342.062 17.9229 342.062 17.7178C342.062 17.2438 341.961 16.8154 341.761 16.4326C341.56 16.0498 341.273 15.7445 340.899 15.5166C340.526 15.2887 340.077 15.1748 339.553 15.1748C338.942 15.1748 338.331 15.3753 337.721 15.7764C337.115 16.1729 336.522 16.763 335.943 17.5469C335.989 17.2552 336.019 16.9658 336.032 16.6787C336.05 16.387 336.06 16.0863 336.06 15.7764V11.0938H334.809V18.709C334.754 18.7956 334.697 18.8822 334.638 18.9688C334.578 19.0553 334.519 19.1465 334.46 19.2422ZM348.043 19.2422C347.61 19.2331 347.296 19.0918 347.1 18.8184C346.904 18.5404 346.831 18.1416 346.881 17.6221L347.018 16.207L345.753 16.1045L345.644 17.2598C345.575 17.9707 345.384 18.4788 345.069 18.7842C344.755 19.0895 344.279 19.2422 343.641 19.2422H343.299C343.226 19.2422 343.174 19.29 343.142 19.3857C343.105 19.4814 343.087 19.6387 343.087 19.8574C343.087 20.0807 343.105 20.2448 343.142 20.3496C343.174 20.4499 343.226 20.5 343.299 20.5H343.641C344.233 20.5 344.753 20.3701 345.199 20.1104C345.65 19.846 345.953 19.4997 346.108 19.0713C346.209 19.5361 346.418 19.8916 346.737 20.1377C347.056 20.3792 347.48 20.5 348.009 20.5C349.002 20.5 349.633 20.0739 349.902 19.2217C350.016 19.6318 350.237 19.9486 350.565 20.1719C350.898 20.3906 351.324 20.5 351.844 20.5C352.573 20.5 353.12 20.2812 353.484 19.8438C353.849 19.4017 354.031 18.7432 354.031 17.8682C354.031 17.654 354.02 17.4147 353.997 17.1504C353.979 16.8861 353.951 16.6217 353.915 16.3574C353.879 16.0931 353.838 15.8538 353.792 15.6396L352.575 15.9336C352.616 16.1478 352.653 16.3779 352.685 16.624C352.716 16.8656 352.742 17.098 352.76 17.3213C352.778 17.5446 352.787 17.7314 352.787 17.8818C352.787 18.7887 352.411 19.2422 351.659 19.2422C351.24 19.2422 350.925 19.1214 350.716 18.8799C350.506 18.6383 350.422 18.2601 350.463 17.7451L350.552 16.5283L349.424 16.4395L349.314 17.7861C349.269 18.3011 349.141 18.6748 348.932 18.9072C348.727 19.1351 348.43 19.2467 348.043 19.2422ZM359.568 19.2285C359.331 19.2331 359.088 19.2376 358.837 19.2422C358.586 19.2422 358.34 19.2422 358.099 19.2422C357.666 19.2422 357.333 19.1693 357.101 19.0234C356.873 18.873 356.759 18.6064 356.759 18.2236C356.759 17.9046 356.804 17.5993 356.896 17.3076C356.987 17.016 357.128 16.7767 357.319 16.5898C357.511 16.403 357.752 16.3096 358.044 16.3096C358.317 16.3096 358.545 16.3984 358.728 16.5762C358.914 16.7493 359.065 16.9795 359.179 17.2666C359.297 17.5537 359.386 17.8682 359.445 18.21C359.505 18.5518 359.546 18.8913 359.568 19.2285ZM359.432 20.5C359.295 21.1107 358.876 21.6507 358.174 22.1201C357.477 22.5895 356.542 22.9814 355.371 23.2959L355.877 24.4512C357.299 24.0501 358.424 23.526 359.254 22.8789C360.083 22.2363 360.557 21.4434 360.676 20.5H361.414V19.2422H360.717C360.694 18.7454 360.632 18.2533 360.532 17.7656C360.432 17.2734 360.282 16.8245 360.081 16.4189C359.881 16.0133 359.614 15.6898 359.281 15.4482C358.953 15.2067 358.548 15.0859 358.064 15.0859C357.65 15.0859 357.29 15.1816 356.984 15.373C356.679 15.5599 356.426 15.8105 356.226 16.125C356.025 16.4395 355.875 16.7881 355.774 17.1709C355.679 17.5537 355.631 17.9365 355.631 18.3193C355.631 19.0667 355.84 19.6182 356.26 19.9736C356.679 20.3245 357.246 20.5 357.962 20.5C358.203 20.5 358.445 20.5 358.687 20.5C358.933 20.5 359.181 20.5 359.432 20.5ZM364.354 14.9561L363.171 15.2773C363.28 15.7422 363.369 16.1683 363.438 16.5557C363.51 16.9385 363.547 17.2826 363.547 17.5879C363.547 18.1211 363.41 18.5312 363.137 18.8184C362.863 19.1009 362.403 19.2422 361.756 19.2422H361.414C361.337 19.2422 361.282 19.2878 361.25 19.3789C361.218 19.4655 361.202 19.6296 361.202 19.8711C361.202 20.1081 361.218 20.2721 361.25 20.3633C361.282 20.4544 361.337 20.5 361.414 20.5H361.756C362.476 20.5 363.057 20.3838 363.499 20.1514C363.941 19.9189 364.262 19.5908 364.463 19.167C364.668 18.7432 364.771 18.2441 364.771 17.6699C364.771 17.278 364.732 16.8542 364.654 16.3984C364.577 15.9427 364.477 15.4619 364.354 14.9561ZM363.314 12.707L364.34 13.7256L365.358 12.707L364.34 11.6816L363.314 12.707ZM360.929 12.707L361.954 13.7256L362.973 12.707L361.954 11.6816L360.929 12.707ZM372.693 22.9951C371.814 22.9951 371.155 22.7946 370.718 22.3936C370.285 21.9925 370.068 21.4274 370.068 20.6982C370.068 20.3473 370.114 19.9554 370.205 19.5225C370.296 19.085 370.426 18.6406 370.595 18.1895L369.48 17.7793C369.266 18.3171 369.104 18.848 368.995 19.3721C368.89 19.8916 368.838 20.3815 368.838 20.8418C368.838 21.5345 368.981 22.1361 369.269 22.6465C369.556 23.1569 369.975 23.5511 370.526 23.8291C371.082 24.1117 371.768 24.2529 372.584 24.2529C373.45 24.2529 374.188 24.098 374.799 23.7881C375.41 23.4827 375.877 23.0202 376.2 22.4004C376.524 21.7852 376.686 21.0173 376.686 20.0967V11.0938H375.428V20.0967C375.428 21.0765 375.207 21.8034 374.765 22.2773C374.323 22.7559 373.632 22.9951 372.693 22.9951ZM378.818 11.0938V17.5059C378.818 18.5039 379.083 19.2536 379.611 19.7549C380.145 20.2516 380.917 20.5 381.929 20.5V19.2422C381.213 19.2422 380.726 19.1055 380.466 18.832C380.211 18.5586 380.083 18.1097 380.083 17.4854V11.0938H378.818ZM386.68 19.2422C386.247 19.2331 385.932 19.0918 385.736 18.8184C385.54 18.5404 385.467 18.1416 385.518 17.6221L385.654 16.207L384.39 16.1045L384.28 17.2598C384.212 17.9707 384.021 18.4788 383.706 18.7842C383.392 19.0895 382.915 19.2422 382.277 19.2422H381.936C381.863 19.2422 381.81 19.29 381.778 19.3857C381.742 19.4814 381.724 19.6387 381.724 19.8574C381.724 20.0807 381.742 20.2448 381.778 20.3496C381.81 20.4499 381.863 20.5 381.936 20.5H382.277C382.87 20.5 383.389 20.3701 383.836 20.1104C384.287 19.846 384.59 19.4997 384.745 19.0713C384.845 19.5361 385.055 19.8916 385.374 20.1377C385.693 20.3792 386.117 20.5 386.646 20.5C387.639 20.5 388.27 20.0739 388.539 19.2217C388.653 19.6318 388.874 19.9486 389.202 20.1719C389.535 20.3906 389.961 20.5 390.48 20.5C391.21 20.5 391.757 20.2812 392.121 19.8438C392.486 19.4017 392.668 18.7432 392.668 17.8682C392.668 17.654 392.657 17.4147 392.634 17.1504C392.616 16.8861 392.588 16.6217 392.552 16.3574C392.515 16.0931 392.474 15.8538 392.429 15.6396L391.212 15.9336C391.253 16.1478 391.289 16.3779 391.321 16.624C391.353 16.8656 391.378 17.098 391.396 17.3213C391.415 17.5446 391.424 17.7314 391.424 17.8818C391.424 18.7887 391.048 19.2422 390.296 19.2422C389.877 19.2422 389.562 19.1214 389.353 18.8799C389.143 18.6383 389.059 18.2601 389.1 17.7451L389.188 16.5283L388.061 16.4395L387.951 17.7861C387.906 18.3011 387.778 18.6748 387.568 18.9072C387.363 19.1351 387.067 19.2467 386.68 19.2422ZM395.259 16.3779C395.482 17.098 395.646 17.7337 395.751 18.2852C395.86 18.832 395.915 19.3151 395.915 19.7344C395.915 20.2995 395.801 20.7939 395.573 21.2178C395.345 21.6462 394.979 22.029 394.473 22.3662C393.971 22.708 393.304 23.0339 392.47 23.3438L393.003 24.4854C393.992 24.1162 394.792 23.7038 395.402 23.248C396.013 22.7923 396.46 22.2751 396.742 21.6963C397.029 21.1175 397.173 20.459 397.173 19.7207C397.173 19.2194 397.114 18.6702 396.995 18.0732C396.877 17.4762 396.699 16.779 396.462 15.9814L395.259 16.3779ZM400.338 20.5V11.0938H399.08V20.5H400.338Z" fill="#417F56"/>
<line x1="593.5" y1="16.5" x2="438" y2="16.5" stroke="#417F56" stroke-linecap="round" stroke-dasharray="4 4"/>
<path d="M611.856 15.3184C611.592 15.2181 611.307 15.1406 611.002 15.0859C610.697 15.0267 610.398 14.9971 610.106 14.9971C609.423 14.9971 608.821 15.1475 608.302 15.4482C607.787 15.7445 607.386 16.1501 607.099 16.665C606.812 17.18 606.668 17.7588 606.668 18.4014C606.668 18.8981 606.766 19.2969 606.962 19.5977C607.162 19.8939 607.472 20.1172 607.892 20.2676C608.315 20.4134 608.858 20.5137 609.519 20.5684C610.084 20.6185 610.466 20.6982 610.667 20.8076C610.872 20.9215 610.975 21.1107 610.975 21.375C610.975 21.6348 610.877 21.8649 610.681 22.0654C610.485 22.2705 610.218 22.4437 609.881 22.585C609.548 22.7262 609.168 22.8333 608.739 22.9062C608.315 22.9792 607.873 23.0156 607.413 23.0156C606.693 23.0156 606.105 22.9313 605.649 22.7627C605.198 22.5941 604.866 22.3161 604.651 21.9287C604.437 21.5413 604.33 21.0218 604.33 20.3701C604.33 19.9873 604.353 19.6022 604.398 19.2148C604.449 18.8229 604.515 18.3991 604.597 17.9434L603.414 17.7178C603.318 18.1872 603.245 18.6361 603.195 19.0645C603.15 19.4883 603.127 19.9053 603.127 20.3154C603.127 21.6872 603.478 22.6875 604.18 23.3164C604.886 23.9499 605.962 24.2666 607.406 24.2666C608.081 24.2666 608.707 24.2028 609.286 24.0752C609.865 23.9476 610.371 23.7539 610.804 23.4941C611.237 23.2344 611.574 22.9062 611.815 22.5098C612.057 22.1178 612.178 21.6576 612.178 21.1289C612.178 20.7871 612.123 20.5068 612.014 20.2881C611.909 20.0693 611.752 19.8962 611.542 19.7686C611.337 19.6364 611.086 19.5384 610.79 19.4746C610.494 19.4108 610.154 19.3652 609.771 19.3379C609.07 19.2786 608.58 19.1761 608.302 19.0303C608.024 18.8799 607.885 18.6133 607.885 18.2305C607.885 17.834 607.985 17.4876 608.186 17.1914C608.386 16.8906 608.66 16.6582 609.006 16.4941C609.357 16.3255 609.751 16.2412 610.188 16.2412C610.398 16.2412 610.617 16.2617 610.845 16.3027C611.077 16.3392 611.289 16.3893 611.48 16.4531L611.856 15.3184ZM615.452 16.3779C615.675 17.098 615.84 17.7337 615.944 18.2852C616.054 18.832 616.108 19.3151 616.108 19.7344C616.108 20.2995 615.994 20.7939 615.767 21.2178C615.539 21.6462 615.172 22.029 614.666 22.3662C614.165 22.708 613.497 23.0339 612.663 23.3438L613.196 24.4854C614.185 24.1162 614.985 23.7038 615.596 23.248C616.206 22.7923 616.653 22.2751 616.936 21.6963C617.223 21.1175 617.366 20.459 617.366 19.7207C617.366 19.2194 617.307 18.6702 617.188 18.0732C617.07 17.4762 616.892 16.779 616.655 15.9814L615.452 16.3779ZM614.98 13.1582L616.006 14.1768L617.024 13.1582L616.006 12.1328L614.98 13.1582ZM619.178 11.0938V17.5059C619.178 18.5039 619.442 19.2536 619.971 19.7549C620.504 20.2516 621.276 20.5 622.288 20.5V19.2422C621.573 19.2422 621.085 19.1055 620.825 18.832C620.57 18.5586 620.442 18.1097 620.442 17.4854V11.0938H619.178ZM627.039 19.2422C626.606 19.2331 626.292 19.0918 626.096 18.8184C625.9 18.5404 625.827 18.1416 625.877 17.6221L626.014 16.207L624.749 16.1045L624.64 17.2598C624.571 17.9707 624.38 18.4788 624.065 18.7842C623.751 19.0895 623.275 19.2422 622.637 19.2422H622.295C622.222 19.2422 622.17 19.29 622.138 19.3857C622.101 19.4814 622.083 19.6387 622.083 19.8574C622.083 20.0807 622.101 20.2448 622.138 20.3496C622.17 20.4499 622.222 20.5 622.295 20.5H622.637C623.229 20.5 623.749 20.3701 624.195 20.1104C624.646 19.846 624.95 19.4997 625.104 19.0713C625.205 19.5361 625.414 19.8916 625.733 20.1377C626.052 20.3792 626.476 20.5 627.005 20.5C627.998 20.5 628.63 20.0739 628.898 19.2217C629.012 19.6318 629.233 19.9486 629.562 20.1719C629.894 20.3906 630.32 20.5 630.84 20.5C631.569 20.5 632.116 20.2812 632.48 19.8438C632.845 19.4017 633.027 18.7432 633.027 17.8682C633.027 17.654 633.016 17.4147 632.993 17.1504C632.975 16.8861 632.948 16.6217 632.911 16.3574C632.875 16.0931 632.834 15.8538 632.788 15.6396L631.571 15.9336C631.612 16.1478 631.649 16.3779 631.681 16.624C631.713 16.8656 631.738 17.098 631.756 17.3213C631.774 17.5446 631.783 17.7314 631.783 17.8818C631.783 18.7887 631.407 19.2422 630.655 19.2422C630.236 19.2422 629.922 19.1214 629.712 18.8799C629.502 18.6383 629.418 18.2601 629.459 17.7451L629.548 16.5283L628.42 16.4395L628.311 17.7861C628.265 18.3011 628.137 18.6748 627.928 18.9072C627.723 19.1351 627.426 19.2467 627.039 19.2422ZM636.773 19.3105C636.359 19.3105 636.047 19.2057 635.837 18.9961C635.632 18.7865 635.529 18.5107 635.529 18.1689C635.529 17.7952 635.641 17.401 635.864 16.9863C636.088 16.5671 636.391 16.182 636.773 15.8311C637.165 16.1865 637.471 16.5716 637.689 16.9863C637.908 17.401 638.018 17.7952 638.018 18.1689C638.018 18.5153 637.913 18.7933 637.703 19.0029C637.498 19.208 637.188 19.3105 636.773 19.3105ZM636.773 20.5752C637.261 20.5752 637.687 20.4749 638.052 20.2744C638.421 20.0739 638.708 19.8027 638.913 19.4609C639.118 19.1146 639.221 18.7249 639.221 18.292C639.221 17.8682 639.141 17.4489 638.981 17.0342C638.826 16.6195 638.608 16.2116 638.325 15.8105C638.043 15.4095 637.712 15.0199 637.334 14.6416C636.96 14.2588 636.557 13.8896 636.124 13.5342L635.365 14.4434C635.488 14.5482 635.607 14.653 635.721 14.7578C635.835 14.8581 635.946 14.9606 636.056 15.0654C635.728 15.3844 635.436 15.724 635.181 16.084C634.925 16.4395 634.725 16.8109 634.579 17.1982C634.438 17.5811 634.367 17.9753 634.367 18.3809C634.367 18.791 634.463 19.1624 634.654 19.4951C634.85 19.8278 635.128 20.0921 635.488 20.2881C635.848 20.4795 636.277 20.5752 636.773 20.5752ZM646.173 17.9229C646.173 17.4124 646.061 16.9111 645.838 16.4189C645.615 15.9268 645.298 15.4368 644.888 14.9492C644.478 14.4616 643.994 13.9717 643.438 13.4795L642.618 14.4502C643.388 15.1338 643.967 15.7627 644.354 16.3369C644.742 16.9066 644.936 17.4102 644.936 17.8477C644.936 18.1895 644.831 18.4674 644.621 18.6816C644.416 18.8958 644.133 19.0531 643.773 19.1533C643.413 19.2536 643.003 19.3037 642.543 19.3037C642.233 19.3037 641.925 19.2832 641.62 19.2422C641.315 19.2012 641.035 19.1465 640.779 19.0781L640.492 20.2744C640.816 20.3656 641.153 20.4362 641.504 20.4863C641.859 20.5319 642.215 20.5547 642.57 20.5547C643.008 20.5547 643.438 20.5091 643.862 20.418C644.291 20.3268 644.678 20.1787 645.024 19.9736C645.375 19.7686 645.653 19.4974 645.858 19.1602C646.068 18.8229 646.173 18.4105 646.173 17.9229ZM647.916 11.0938V17.5059C647.916 18.5039 648.18 19.2536 648.709 19.7549C649.242 20.2516 650.015 20.5 651.026 20.5V19.2422C650.311 19.2422 649.823 19.1055 649.563 18.832C649.308 18.5586 649.181 18.1097 649.181 17.4854V11.0938H647.916ZM651.033 19.2422C650.956 19.2422 650.901 19.2878 650.869 19.3789C650.837 19.4655 650.821 19.6296 650.821 19.8711C650.821 20.1081 650.837 20.2721 650.869 20.3633C650.901 20.4544 650.956 20.5 651.033 20.5C651.566 20.5 652.006 20.3883 652.353 20.165C652.703 19.9417 653.002 19.6569 653.248 19.3105C653.567 19.6979 653.941 20.0055 654.369 20.2334C654.802 20.4567 655.262 20.5684 655.75 20.5684C656.47 20.5684 657.037 20.3451 657.452 19.8984C657.871 19.4473 658.081 18.8503 658.081 18.1074C658.081 17.6107 657.979 17.1344 657.773 16.6787C657.568 16.2184 657.281 15.8424 656.912 15.5508C656.543 15.2546 656.112 15.1064 655.62 15.1064C655.169 15.1064 654.798 15.2113 654.506 15.4209C654.214 15.626 653.966 15.8926 653.761 16.2207C653.56 16.5443 653.371 16.8906 653.193 17.2598C653.029 17.5924 652.856 17.9115 652.674 18.2168C652.492 18.5176 652.271 18.7637 652.011 18.9551C651.756 19.1465 651.43 19.2422 651.033 19.2422ZM653.884 18.3262L654.096 17.8682C654.232 17.5492 654.371 17.278 654.513 17.0547C654.654 16.8268 654.811 16.6536 654.984 16.5352C655.162 16.4121 655.367 16.3506 655.6 16.3506C655.85 16.3506 656.076 16.4372 656.276 16.6104C656.481 16.7835 656.643 17.0046 656.762 17.2734C656.885 17.5378 656.946 17.8158 656.946 18.1074C656.946 18.4857 656.832 18.7819 656.604 18.9961C656.377 19.2103 656.094 19.3174 655.757 19.3174C655.415 19.3174 655.089 19.2331 654.779 19.0645C654.469 18.8958 654.171 18.6497 653.884 18.3262ZM662.846 8.19531C662.691 8.49609 662.536 8.70573 662.381 8.82422C662.23 8.93815 662.062 8.99512 661.875 8.99512C661.706 8.99512 661.535 8.96549 661.362 8.90625C661.194 8.84245 661.021 8.77181 660.843 8.69434C660.67 8.61686 660.494 8.5485 660.316 8.48926C660.139 8.42546 659.961 8.39355 659.783 8.39355C659.487 8.39355 659.195 8.50293 658.908 8.72168C658.621 8.93587 658.354 9.27539 658.108 9.74023L658.635 10.0615C658.785 9.8291 658.942 9.61947 659.106 9.43262C659.275 9.24121 659.48 9.14551 659.722 9.14551C659.854 9.14551 659.991 9.17057 660.132 9.2207C660.273 9.27083 660.421 9.33236 660.576 9.40527C660.758 9.49186 660.954 9.57161 661.164 9.64453C661.374 9.71289 661.59 9.74707 661.813 9.74707C662.155 9.74707 662.451 9.64909 662.702 9.45312C662.957 9.25716 663.194 8.93359 663.413 8.48242L662.846 8.19531ZM661.383 11.0938H660.125V20.5H661.383V11.0938ZM669.805 22.9951C668.925 22.9951 668.267 22.7946 667.829 22.3936C667.396 21.9925 667.18 21.4274 667.18 20.6982C667.18 20.3473 667.225 19.9554 667.316 19.5225C667.408 19.085 667.537 18.6406 667.706 18.1895L666.592 17.7793C666.378 18.3171 666.216 18.848 666.106 19.3721C666.002 19.8916 665.949 20.3815 665.949 20.8418C665.949 21.5345 666.093 22.1361 666.38 22.6465C666.667 23.1569 667.086 23.5511 667.638 23.8291C668.194 24.1117 668.88 24.2529 669.695 24.2529C670.561 24.2529 671.299 24.098 671.91 23.7881C672.521 23.4827 672.988 23.0202 673.312 22.4004C673.635 21.7852 673.797 21.0173 673.797 20.0967V11.0938H672.539V20.0967C672.539 21.0765 672.318 21.8034 671.876 22.2773C671.434 22.7559 670.743 22.9951 669.805 22.9951ZM675.93 11.0938V17.5059C675.93 18.5039 676.194 19.2536 676.723 19.7549C677.256 20.2516 678.028 20.5 679.04 20.5V19.2422C678.325 19.2422 677.837 19.1055 677.577 18.832C677.322 18.5586 677.194 18.1097 677.194 17.4854V11.0938H675.93ZM682.26 14.6484C681.59 14.6484 681.082 14.8672 680.735 15.3047C680.389 15.7422 680.147 16.3164 680.011 17.0273L679.963 17.2871L680.988 17.4785L681.029 17.2598C681.12 16.8451 681.264 16.5146 681.46 16.2686C681.66 16.0225 681.943 15.8994 682.308 15.8994C682.526 15.8994 682.75 15.945 682.978 16.0361C683.21 16.1227 683.465 16.2298 683.743 16.3574C684.039 16.4896 684.363 16.6263 684.714 16.7676C685.069 16.9089 685.468 17.0228 685.91 17.1094L683.976 18.3535C683.643 18.5632 683.308 18.734 682.971 18.8662C682.638 18.9938 682.292 19.0895 681.932 19.1533C681.572 19.2126 681.187 19.2422 680.776 19.2422H679.047C678.969 19.2422 678.915 19.2878 678.883 19.3789C678.851 19.4701 678.835 19.6341 678.835 19.8711C678.835 20.1035 678.851 20.2676 678.883 20.3633C678.915 20.4544 678.969 20.5 679.047 20.5H680.578C681.335 20.5 682.034 20.4066 682.677 20.2197C683.324 20.0329 683.948 19.7412 684.55 19.3447L687.373 17.458V16.3574C686.781 16.2435 686.241 16.0908 685.753 15.8994C685.265 15.7035 684.812 15.512 684.393 15.3252C683.987 15.1383 683.609 14.9788 683.258 14.8467C682.911 14.7145 682.579 14.6484 682.26 14.6484ZM693.382 16.3779C693.605 17.098 693.769 17.7337 693.874 18.2852C693.983 18.832 694.038 19.3151 694.038 19.7344C694.038 20.2995 693.924 20.7939 693.696 21.2178C693.468 21.6462 693.102 22.029 692.596 22.3662C692.094 22.708 691.427 23.0339 690.593 23.3438L691.126 24.4854C692.115 24.1162 692.915 23.7038 693.525 23.248C694.136 22.7923 694.583 22.2751 694.865 21.6963C695.152 21.1175 695.296 20.459 695.296 19.7207C695.296 19.2194 695.237 18.6702 695.118 18.0732C695 17.4762 694.822 16.779 694.585 15.9814L693.382 16.3779ZM702.323 17.9229C702.323 17.4124 702.212 16.9111 701.988 16.4189C701.765 15.9268 701.448 15.4368 701.038 14.9492C700.628 14.4616 700.145 13.9717 699.589 13.4795L698.769 14.4502C699.539 15.1338 700.118 15.7627 700.505 16.3369C700.892 16.9066 701.086 17.4102 701.086 17.8477C701.086 18.1895 700.981 18.4674 700.771 18.6816C700.566 18.8958 700.284 19.0531 699.924 19.1533C699.564 19.2536 699.154 19.3037 698.693 19.3037C698.383 19.3037 698.076 19.2832 697.771 19.2422C697.465 19.2012 697.185 19.1465 696.93 19.0781L696.643 20.2744C696.966 20.3656 697.303 20.4362 697.654 20.4863C698.01 20.5319 698.365 20.5547 698.721 20.5547C699.158 20.5547 699.589 20.5091 700.013 20.418C700.441 20.3268 700.828 20.1787 701.175 19.9736C701.526 19.7686 701.804 19.4974 702.009 19.1602C702.218 18.8229 702.323 18.4105 702.323 17.9229Z" fill="#417F56"/>
<path d="M719.001 22.7498C718.591 22.7498 718.251 22.4098 718.251 21.9998V18.9998C718.251 18.5898 718.591 18.2498 719.001 18.2498C719.411 18.2498 719.751 18.5898 719.751 18.9998V21.9998C719.751 22.4098 719.411 22.7498 719.001 22.7498Z" fill="#417F56"/>
<path d="M724.601 26.5598H713.401C711.581 26.5598 709.921 25.1598 709.621 23.3698L708.291 15.3998C708.071 14.1598 708.681 12.5698 709.671 11.7798L716.601 6.22982C717.941 5.14982 720.051 5.15982 721.401 6.23982L728.331 11.7798C729.311 12.5698 729.911 14.1598 729.711 15.3998L728.381 23.3598C728.081 25.1298 726.381 26.5598 724.601 26.5598ZM718.991 6.92982C718.461 6.92982 717.931 7.08982 717.541 7.39982L710.611 12.9598C710.051 13.4098 709.651 14.4498 709.771 15.1598L711.101 23.1198C711.281 24.1698 712.331 25.0598 713.401 25.0598H724.601C725.671 25.0598 726.721 24.1698 726.901 23.1098L728.231 15.1498C728.341 14.4498 727.941 13.3898 727.391 12.9498L720.461 7.40982C720.061 7.08982 719.521 6.92982 718.991 6.92982Z" fill="#417F56"/>
</svg>
