<svg width="731" height="32" viewBox="0 0 731 32" fill="none" xmlns="http://www.w3.org/2000/svg">
<path d="M11.5508 20.5C11.9792 20.5 12.3529 20.3906 12.6719 20.1719C12.9954 19.9531 13.2119 19.6364 13.3213 19.2217C13.4352 19.6318 13.6562 19.9486 13.9844 20.1719C14.3125 20.3906 14.7363 20.5 15.2559 20.5C15.985 20.5 16.5319 20.2835 16.8965 19.8506C17.2656 19.4131 17.4502 18.7568 17.4502 17.8818C17.4502 17.5719 17.4274 17.2233 17.3818 16.8359C17.3408 16.4486 17.2861 16.0863 17.2178 15.749L15.9873 16.043C16.0557 16.3893 16.1081 16.7311 16.1445 17.0684C16.1855 17.4056 16.2061 17.679 16.2061 17.8887C16.2061 18.791 15.8301 19.2422 15.0781 19.2422C14.6589 19.2422 14.3444 19.1214 14.1348 18.8799C13.9251 18.6383 13.8408 18.2601 13.8818 17.7451L13.9707 16.5283L12.8428 16.4395L12.7334 17.7861C12.6878 18.292 12.5648 18.6611 12.3643 18.8936C12.1637 19.126 11.8743 19.2422 11.4961 19.2422C11.0404 19.2422 10.7031 19.1009 10.4844 18.8184C10.2702 18.5312 10.1016 18.1211 9.97852 17.5879L9.5957 16.166L8.3584 16.624C8.47689 17.0114 8.58626 17.4079 8.68652 17.8135C8.78678 18.2191 8.86654 18.6133 8.92578 18.9961C8.98958 19.3789 9.02148 19.7321 9.02148 20.0557C9.02148 20.6253 8.91895 21.1107 8.71387 21.5117C8.51335 21.9128 8.18294 22.2181 7.72266 22.4277C7.26237 22.6374 6.64258 22.7422 5.86328 22.7422C5.125 22.7422 4.51888 22.6374 4.04492 22.4277C3.57552 22.2227 3.22689 21.9014 2.99902 21.4639C2.77572 21.0309 2.66406 20.4727 2.66406 19.7891C2.66406 19.2923 2.71419 18.7705 2.81445 18.2236C2.91927 17.6768 3.0332 17.1846 3.15625 16.7471L2.01465 16.4121C1.90527 16.763 1.80501 17.1436 1.71387 17.5537C1.62728 17.9593 1.55892 18.3672 1.50879 18.7773C1.45866 19.1875 1.43359 19.5771 1.43359 19.9463C1.43359 21.2679 1.79134 22.2728 2.50684 22.9609C3.22233 23.6536 4.34798 24 5.88379 24C6.84082 24 7.6429 23.8451 8.29004 23.5352C8.94173 23.2298 9.42708 22.7627 9.74609 22.1338C10.0697 21.5094 10.2132 20.7188 10.1768 19.7617C10.3135 19.9896 10.4889 20.1696 10.7031 20.3018C10.9219 20.4339 11.2044 20.5 11.5508 20.5ZM11.0039 13.8281L12.0293 14.8467L13.0479 13.8281L12.0293 12.8027L11.0039 13.8281ZM13.3896 13.8281L14.415 14.8467L15.4336 13.8281L14.415 12.8027L13.3896 13.8281ZM12.2002 11.7021L13.2256 12.7207L14.2441 11.7021L13.2256 10.6768L12.2002 11.7021ZM19.9932 16.3779C20.2165 17.098 20.3805 17.7337 20.4854 18.2852C20.5947 18.832 20.6494 19.3151 20.6494 19.7344C20.6494 20.2995 20.5355 20.7939 20.3076 21.2178C20.0798 21.6462 19.7129 22.029 19.207 22.3662C18.7057 22.708 18.0381 23.0339 17.2041 23.3438L17.7373 24.4854C18.7262 24.1162 19.526 23.7038 20.1367 23.248C20.7474 22.7923 21.194 22.2751 21.4766 21.6963C21.7637 21.1175 21.9072 20.459 21.9072 19.7207C21.9072 19.2194 21.848 18.6702 21.7295 18.0732C21.611 17.4762 21.4333 16.779 21.1963 15.9814L19.9932 16.3779ZM23.7188 11.0938V17.5059C23.7188 18.5039 23.9831 19.2536 24.5117 19.7549C25.0449 20.2516 25.8174 20.5 26.8291 20.5V19.2422C26.1136 19.2422 25.626 19.1055 25.3662 18.832C25.111 18.5586 24.9834 18.1097 24.9834 17.4854V11.0938H23.7188ZM29.2217 11.3125L30.2471 12.3311L31.2656 11.3125L30.2471 10.2871L29.2217 11.3125ZM27.6699 16.7402C27.6699 17.2871 27.7998 17.7497 28.0596 18.1279C28.3239 18.5062 28.6497 18.8138 29.0371 19.0508C28.8047 19.1146 28.5677 19.1624 28.3262 19.1943C28.0892 19.2262 27.8408 19.2422 27.5811 19.2422H26.8359C26.7585 19.2422 26.7038 19.2878 26.6719 19.3789C26.64 19.4655 26.624 19.6296 26.624 19.8711C26.624 20.1081 26.64 20.2721 26.6719 20.3633C26.7038 20.4544 26.7585 20.5 26.8359 20.5H27.7041C28.1735 20.5 28.6133 20.4567 29.0234 20.3701C29.4382 20.2835 29.8392 20.1536 30.2266 19.9805C30.6139 20.1536 31.0127 20.2835 31.4229 20.3701C31.8376 20.4567 32.2728 20.5 32.7285 20.5H33.665V19.2422H32.8926C32.6374 19.2422 32.389 19.2262 32.1475 19.1943C31.9105 19.1624 31.6849 19.1146 31.4707 19.0508C31.8535 18.8092 32.1748 18.4971 32.4346 18.1143C32.6989 17.7314 32.8311 17.2689 32.8311 16.7266C32.8311 16.1888 32.7148 15.7217 32.4824 15.3252C32.2546 14.9287 31.9469 14.6234 31.5596 14.4092C31.1722 14.1904 30.737 14.0811 30.2539 14.0811C29.7617 14.0811 29.3197 14.1904 28.9277 14.4092C28.5404 14.6279 28.2327 14.9355 28.0049 15.332C27.7816 15.7285 27.6699 16.1979 27.6699 16.7402ZM30.2471 18.7158C29.8551 18.5199 29.5361 18.2624 29.29 17.9434C29.0485 17.6243 28.9277 17.237 28.9277 16.7812C28.9277 16.3529 29.0462 16.002 29.2832 15.7285C29.5202 15.4505 29.8438 15.3115 30.2539 15.3115C30.6549 15.3115 30.974 15.4505 31.2109 15.7285C31.4479 16.002 31.5664 16.3529 31.5664 16.7812C31.5664 17.2415 31.4456 17.6312 31.2041 17.9502C30.9671 18.2646 30.6481 18.5199 30.2471 18.7158ZM38.416 19.2422C37.9831 19.2331 37.6686 19.0918 37.4727 18.8184C37.2767 18.5404 37.2038 18.1416 37.2539 17.6221L37.3906 16.207L36.126 16.1045L36.0166 17.2598C35.9482 17.9707 35.7568 18.4788 35.4424 18.7842C35.1279 19.0895 34.6517 19.2422 34.0137 19.2422H33.6719C33.599 19.2422 33.5465 19.29 33.5146 19.3857C33.4782 19.4814 33.46 19.6387 33.46 19.8574C33.46 20.0807 33.4782 20.2448 33.5146 20.3496C33.5465 20.4499 33.599 20.5 33.6719 20.5H34.0137C34.6061 20.5 35.1257 20.3701 35.5723 20.1104C36.0234 19.846 36.3265 19.4997 36.4814 19.0713C36.5817 19.5361 36.7913 19.8916 37.1104 20.1377C37.4294 20.3792 37.8532 20.5 38.3818 20.5C39.3753 20.5 40.0065 20.0739 40.2754 19.2217C40.3893 19.6318 40.6104 19.9486 40.9385 20.1719C41.2712 20.3906 41.6973 20.5 42.2168 20.5C42.946 20.5 43.4928 20.2812 43.8574 19.8438C44.222 19.4017 44.4043 18.7432 44.4043 17.8682C44.4043 17.654 44.3929 17.4147 44.3701 17.1504C44.3519 16.8861 44.3245 16.6217 44.2881 16.3574C44.2516 16.0931 44.2106 15.8538 44.165 15.6396L42.9482 15.9336C42.9893 16.1478 43.0257 16.3779 43.0576 16.624C43.0895 16.8656 43.1146 17.098 43.1328 17.3213C43.151 17.5446 43.1602 17.7314 43.1602 17.8818C43.1602 18.7887 42.7842 19.2422 42.0322 19.2422C41.613 19.2422 41.2985 19.1214 41.0889 18.8799C40.8792 18.6383 40.7949 18.2601 40.8359 17.7451L40.9248 16.5283L39.7969 16.4395L39.6875 17.7861C39.6419 18.3011 39.5143 18.6748 39.3047 18.9072C39.0996 19.1351 38.8034 19.2467 38.416 19.2422ZM58.4248 19.2422H58.2881C57.7777 19.2422 57.3789 19.1647 57.0918 19.0098C56.8092 18.8548 56.611 18.627 56.4971 18.3262C56.3831 18.0254 56.3262 17.6585 56.3262 17.2256V11.0938H55.0684V20.0967C55.0684 21.0765 54.8473 21.8034 54.4053 22.2773C53.9632 22.7559 53.2728 22.9951 52.334 22.9951C51.4544 22.9951 50.7959 22.7946 50.3584 22.3936C49.9255 21.9925 49.709 21.4274 49.709 20.6982C49.709 20.3473 49.7546 19.9554 49.8457 19.5225C49.9368 19.085 50.0667 18.6406 50.2354 18.1895L49.1211 17.7793C48.9069 18.3171 48.7451 18.848 48.6357 19.3721C48.5309 19.8916 48.4785 20.3815 48.4785 20.8418C48.4785 21.5345 48.6221 22.1361 48.9092 22.6465C49.1963 23.1569 49.6156 23.5511 50.167 23.8291C50.723 24.1117 51.4089 24.2529 52.2246 24.2529C53.0859 24.2529 53.8174 24.1003 54.4189 23.7949C55.0251 23.4941 55.4876 23.0521 55.8066 22.4688C56.1302 21.8854 56.2943 21.1745 56.2988 20.3359V19.5225C56.4674 19.8415 56.7318 20.0853 57.0918 20.2539C57.4518 20.418 57.8506 20.5 58.2881 20.5H58.4248V19.2422ZM60.0586 22.9404L61.084 23.959L62.1025 22.9404L61.084 21.915L60.0586 22.9404ZM57.6729 22.9404L58.6982 23.959L59.7168 22.9404L58.6982 21.915L57.6729 22.9404ZM61.8633 14.9561L60.6807 15.2773C60.79 15.7422 60.8789 16.1683 60.9473 16.5557C61.0202 16.9385 61.0566 17.2826 61.0566 17.5879C61.0566 17.9434 60.9928 18.2441 60.8652 18.4902C60.7376 18.7363 60.5189 18.9232 60.209 19.0508C59.8991 19.1784 59.4707 19.2422 58.9238 19.2422H58.4316C58.3542 19.2422 58.2995 19.2878 58.2676 19.3789C58.2357 19.4655 58.2197 19.6296 58.2197 19.8711C58.2197 20.1081 58.2357 20.2721 58.2676 20.3633C58.2995 20.4544 58.3542 20.5 58.4316 20.5H58.9238C59.7578 20.5 60.4186 20.3838 60.9062 20.1514C61.3984 19.9189 61.7493 19.5908 61.959 19.167C62.1732 18.7432 62.2803 18.2441 62.2803 17.6699C62.2803 17.278 62.2415 16.8542 62.1641 16.3984C62.0866 15.9427 61.9863 15.4619 61.8633 14.9561ZM67.8105 19.2285C67.5736 19.2331 67.3298 19.2376 67.0791 19.2422C66.8285 19.2422 66.5824 19.2422 66.3408 19.2422C65.9079 19.2422 65.5752 19.1693 65.3428 19.0234C65.1149 18.873 65.001 18.6064 65.001 18.2236C65.001 17.9046 65.0465 17.5993 65.1377 17.3076C65.2288 17.016 65.3701 16.7767 65.5615 16.5898C65.7529 16.403 65.9945 16.3096 66.2861 16.3096C66.5596 16.3096 66.7874 16.3984 66.9697 16.5762C67.1566 16.7493 67.307 16.9795 67.4209 17.2666C67.5394 17.5537 67.6283 17.8682 67.6875 18.21C67.7467 18.5518 67.7878 18.8913 67.8105 19.2285ZM67.6738 20.5C67.5371 21.1107 67.1178 21.6507 66.416 22.1201C65.7188 22.5895 64.7845 22.9814 63.6133 23.2959L64.1191 24.4512C65.541 24.0501 66.6667 23.526 67.4961 22.8789C68.3255 22.2363 68.7995 21.4434 68.918 20.5H69.6562V19.2422H68.959C68.9362 18.7454 68.8747 18.2533 68.7744 17.7656C68.6742 17.2734 68.5238 16.8245 68.3232 16.4189C68.1227 16.0133 67.8561 15.6898 67.5234 15.4482C67.1953 15.2067 66.7897 15.0859 66.3066 15.0859C65.8919 15.0859 65.5319 15.1816 65.2266 15.373C64.9212 15.5599 64.6683 15.8105 64.4678 16.125C64.2673 16.4395 64.1169 16.7881 64.0166 17.1709C63.9209 17.5537 63.873 17.9365 63.873 18.3193C63.873 19.0667 64.0827 19.6182 64.502 19.9736C64.9212 20.3245 65.4886 20.5 66.2041 20.5C66.4456 20.5 66.6872 20.5 66.9287 20.5C67.1748 20.5 67.4232 20.5 67.6738 20.5ZM72.8691 14.6484C72.1992 14.6484 71.6911 14.8672 71.3447 15.3047C70.9984 15.7422 70.7568 16.3164 70.6201 17.0273L70.5723 17.2871L71.5977 17.4785L71.6387 17.2598C71.7298 16.8451 71.8734 16.5146 72.0693 16.2686C72.2699 16.0225 72.5524 15.8994 72.917 15.8994C73.1357 15.8994 73.359 15.945 73.5869 16.0361C73.8193 16.1227 74.0745 16.2298 74.3525 16.3574C74.6488 16.4896 74.9723 16.6263 75.3232 16.7676C75.6787 16.9089 76.0775 17.0228 76.5195 17.1094L74.585 18.3535C74.2523 18.5632 73.9173 18.734 73.5801 18.8662C73.2474 18.9938 72.901 19.0895 72.541 19.1533C72.181 19.2126 71.7959 19.2422 71.3857 19.2422H69.6562C69.5788 19.2422 69.5241 19.2878 69.4922 19.3789C69.4603 19.4701 69.4443 19.6341 69.4443 19.8711C69.4443 20.1035 69.4603 20.2676 69.4922 20.3633C69.5241 20.4544 69.5788 20.5 69.6562 20.5H71.1875C71.944 20.5 72.6436 20.4066 73.2861 20.2197C73.9333 20.0329 74.5576 19.7412 75.1592 19.3447L75.8291 18.8867C76.1436 19.4792 76.5241 19.8962 76.9707 20.1377C77.4173 20.3792 77.946 20.5 78.5566 20.5H78.9805V19.2422H78.584C78.11 19.2422 77.7363 19.1761 77.4629 19.0439C77.1895 18.9118 76.9274 18.6725 76.6768 18.3262L77.9824 17.458V16.3574C77.39 16.2435 76.8499 16.0908 76.3623 15.8994C75.8747 15.7035 75.4212 15.512 75.002 15.3252C74.5964 15.1383 74.2181 14.9788 73.8672 14.8467C73.5208 14.7145 73.1882 14.6484 72.8691 14.6484ZM81.9199 14.9561L80.7373 15.2773C80.8467 15.7422 80.9355 16.1683 81.0039 16.5557C81.0768 16.9385 81.1133 17.2826 81.1133 17.5879C81.1133 18.1211 80.9766 18.5312 80.7031 18.8184C80.4297 19.1009 79.9694 19.2422 79.3223 19.2422H78.9805C78.903 19.2422 78.8483 19.2878 78.8164 19.3789C78.7845 19.4655 78.7686 19.6296 78.7686 19.8711C78.7686 20.1081 78.7845 20.2721 78.8164 20.3633C78.8483 20.4544 78.903 20.5 78.9805 20.5H79.3223C80.0423 20.5 80.6234 20.3838 81.0654 20.1514C81.5075 19.9189 81.8288 19.5908 82.0293 19.167C82.2344 18.7432 82.3369 18.2441 82.3369 17.6699C82.3369 17.278 82.2982 16.8542 82.2207 16.3984C82.1432 15.9427 82.043 15.4619 81.9199 14.9561ZM80.8809 12.707L81.9062 13.7256L82.9248 12.707L81.9062 11.6816L80.8809 12.707ZM78.4951 12.707L79.5205 13.7256L80.5391 12.707L79.5205 11.6816L78.4951 12.707Z" fill="#CBCBCB"/>
<path d="M99 26.75C93.07 26.75 88.25 21.93 88.25 16C88.25 10.07 93.07 5.25 99 5.25C104.93 5.25 109.75 10.07 109.75 16C109.75 21.93 104.93 26.75 99 26.75ZM99 6.75C93.9 6.75 89.75 10.9 89.75 16C89.75 21.1 93.9 25.25 99 25.25C104.1 25.25 108.25 21.1 108.25 16C108.25 10.9 104.1 6.75 99 6.75Z" fill="#CBCBCB"/>
<path d="M97.5795 19.5801C97.3795 19.5801 97.1895 19.5001 97.0495 19.3601L94.2195 16.5301C93.9295 16.2401 93.9295 15.7601 94.2195 15.4701C94.5095 15.1801 94.9895 15.1801 95.2795 15.4701L97.5795 17.7701L102.719 12.6301C103.009 12.3401 103.489 12.3401 103.779 12.6301C104.069 12.9201 104.069 13.4001 103.779 13.6901L98.1095 19.3601C97.9695 19.5001 97.7795 19.5801 97.5795 19.5801Z" fill="#CBCBCB"/>
<line x1="274" y1="16.5" x2="119.5" y2="16.5" stroke="url(#paint0_linear_2092_35963)" stroke-linecap="round" stroke-dasharray="4 4"/>
<path d="M413.166 19.6665H414.5C415.046 19.6665 415.5 19.2132 415.5 18.6665C415.5 18.1198 415.046 17.6665 414.5 17.6665H413.166C412.246 17.6665 411.5 16.9198 411.5 15.9998V3.6665H422.5C424.073 3.6665 425.513 4.51981 426.286 5.89315C426.553 6.37315 427.166 6.54653 427.646 6.27987C428.126 6.0132 428.3 5.39984 428.033 4.91984C426.913 2.91984 424.793 1.6665 422.5 1.6665H410.5C409.953 1.6665 409.5 2.11984 409.5 2.6665V15.9998C409.5 18.0265 411.14 19.6665 413.166 19.6665Z" fill="#417F56"/>
<path d="M405.167 27.6665H406.501C407.047 27.6665 407.501 27.2132 407.501 26.6665C407.501 25.7465 408.247 24.9998 409.167 24.9998C410.087 24.9998 410.834 25.7465 410.834 26.6665C410.834 27.2132 411.287 27.6665 411.834 27.6665H417.167C417.714 27.6665 418.167 27.2132 418.167 26.6665C418.167 25.7465 418.914 24.9998 419.834 24.9998C420.754 24.9998 421.501 25.7465 421.501 26.6665C421.501 27.2132 421.954 27.6665 422.501 27.6665H423.834C426.594 27.6665 428.834 25.4265 428.834 22.6665C428.834 22.1198 428.381 21.6665 427.834 21.6665C427.287 21.6665 426.834 22.1198 426.834 22.6665C426.834 24.3198 425.487 25.6665 423.834 25.6665H423.367C422.927 24.1332 421.514 22.9998 419.834 22.9998C418.154 22.9998 416.741 24.1332 416.301 25.6665H412.687C412.247 24.1332 410.834 22.9998 409.154 22.9998C407.474 22.9998 406.061 24.1332 405.621 25.6665H405.167C403.514 25.6665 402.167 24.3198 402.167 22.6665V19.6665H405.167C406.447 19.6665 407.501 18.6132 407.501 17.3332V13.3332C407.501 12.0532 406.461 10.9998 405.167 10.9998L406.594 8.50651C406.887 7.98651 407.447 7.6665 408.047 7.6665H409.501V15.9998C409.501 18.0265 411.141 19.6665 413.167 19.6665H414.501C415.047 19.6665 415.501 19.2132 415.501 18.6665C415.501 18.1198 415.047 17.6665 414.501 17.6665H413.167C412.247 17.6665 411.501 16.9198 411.501 15.9998V6.6665C411.501 6.11984 411.047 5.6665 410.501 5.6665H408.047C406.727 5.6665 405.514 6.37319 404.861 7.51986L402.581 11.5065C402.407 11.8132 402.407 12.1998 402.581 12.5065C402.754 12.8132 403.087 12.9998 403.447 12.9998H405.167C405.354 12.9998 405.501 13.1465 405.501 13.3332V17.3332C405.501 17.5198 405.354 17.6665 405.167 17.6665H401.167C400.621 17.6665 400.167 18.1198 400.167 18.6665V22.6665C400.167 25.4265 402.407 27.6665 405.167 27.6665Z" fill="#417F56"/>
<path d="M419.833 30.3333C421.86 30.3333 423.5 28.6933 423.5 26.6667C423.5 24.64 421.86 23 419.833 23C417.807 23 416.167 24.64 416.167 26.6667C416.167 28.6933 417.807 30.3333 419.833 30.3333ZM419.833 25C420.753 25 421.5 25.7467 421.5 26.6667C421.5 27.5867 420.753 28.3333 419.833 28.3333C418.913 28.3333 418.167 27.5867 418.167 26.6667C418.167 25.7467 418.913 25 419.833 25Z" fill="#417F56"/>
<path d="M409.167 30.3333C411.194 30.3333 412.834 28.6933 412.834 26.6667C412.834 24.64 411.194 23 409.167 23C407.141 23 405.501 24.64 405.501 26.6667C405.501 28.6933 407.141 30.3333 409.167 30.3333ZM409.167 25C410.087 25 410.834 25.7467 410.834 26.6667C410.834 27.5867 410.087 28.3333 409.167 28.3333C408.247 28.3333 407.501 27.5867 407.501 26.6667C407.501 25.7467 408.247 25 409.167 25Z" fill="#417F56"/>
<path d="M401.167 19.6667H405.167C406.447 19.6667 407.5 18.6133 407.5 17.3333V13.3333C407.5 12.0533 406.447 11 405.167 11H403.447C403.087 11 402.753 11.1867 402.58 11.5067L400.3 15.5067C400.22 15.6533 400.167 15.8267 400.167 16V18.6667C400.167 19.2133 400.62 19.6667 401.167 19.6667ZM405.167 13C405.353 13 405.5 13.1467 405.5 13.3333V17.3333C405.5 17.52 405.353 17.6667 405.167 17.6667H402.167V16.2667L404.033 13H405.167Z" fill="#417F56"/>
<path d="M419.834 11.6665H427.834C428.381 11.6665 428.834 11.2132 428.834 10.6665C428.834 10.1198 428.381 9.6665 427.834 9.6665H419.834C419.287 9.6665 418.834 10.1198 418.834 10.6665C418.834 11.2132 419.287 11.6665 419.834 11.6665Z" fill="#417F56"/>
<path d="M422.501 15.6665H427.834C428.381 15.6665 428.834 15.2132 428.834 14.6665C428.834 14.1198 428.381 13.6665 427.834 13.6665H422.501C421.954 13.6665 421.501 14.1198 421.501 14.6665C421.501 15.2132 421.954 15.6665 422.501 15.6665Z" fill="#417F56"/>
<path d="M425.167 19.6665H427.834C428.381 19.6665 428.834 19.2132 428.834 18.6665C428.834 18.1198 428.381 17.6665 427.834 17.6665H425.167C424.621 17.6665 424.167 18.1198 424.167 18.6665C424.167 19.2132 424.621 19.6665 425.167 19.6665Z" fill="#417F56"/>
<path d="M284.25 14.2734C284.016 15.2578 283.898 16.1432 283.898 16.9297C283.898 17.8776 284.099 18.6536 284.5 19.2578C284.906 19.8568 285.536 20.2969 286.391 20.5781C287.245 20.8594 288.352 21 289.711 21C291.169 21 292.367 20.8464 293.305 20.5391C294.242 20.2318 294.88 19.7786 295.219 19.1797C295.474 19.5755 295.781 19.9089 296.141 20.1797C296.5 20.4505 296.896 20.6562 297.328 20.7969C297.766 20.9323 298.229 21 298.719 21H298.734V18.5938H298.719C298.292 18.5938 297.917 18.526 297.594 18.3906C297.271 18.25 296.964 18.0156 296.672 17.6875C296.385 17.3542 296.076 16.8958 295.742 16.3125C295.492 15.8594 295.229 15.4453 294.953 15.0703C294.677 14.6953 294.359 14.3229 294 13.9531C293.641 13.5781 293.211 13.1693 292.711 12.7266V12.6484C293.497 12.2474 294.279 11.9036 295.055 11.6172C295.831 11.3307 296.651 11.0781 297.516 10.8594L297.023 8.50781C295.81 8.78385 294.612 9.17448 293.43 9.67969C292.247 10.1849 291.06 10.8125 289.867 11.5625V13.5156C291.096 14.4062 292.008 15.1667 292.602 15.7969C293.201 16.4271 293.5 16.9427 293.5 17.3438C293.5 17.7604 293.177 18.0729 292.531 18.2812C291.891 18.4896 290.932 18.5938 289.656 18.5938C288.771 18.5938 288.076 18.5365 287.57 18.4219C287.065 18.3073 286.708 18.112 286.5 17.8359C286.292 17.5599 286.188 17.1823 286.188 16.7031C286.188 16.2292 286.273 15.5833 286.445 14.7656L284.25 14.2734ZM303.172 16.7578V15.3438H300.766V16.7578C300.766 17.237 300.724 17.6094 300.641 17.875C300.562 18.1406 300.398 18.3281 300.148 18.4375C299.904 18.5417 299.531 18.5938 299.031 18.5938H298.734C298.625 18.5938 298.544 18.6745 298.492 18.8359C298.435 18.9974 298.406 19.3177 298.406 19.7969C298.406 20.276 298.435 20.5964 298.492 20.7578C298.544 20.9193 298.625 21 298.734 21H299.031C299.458 21 299.87 20.9427 300.266 20.8281C300.667 20.7135 301.016 20.5495 301.312 20.3359C301.615 20.1172 301.831 19.8594 301.961 19.5625C302.154 20.0104 302.521 20.362 303.062 20.6172C303.604 20.8724 304.198 21 304.844 21H305.18V18.5938H304.859C304.365 18.5938 303.997 18.5417 303.758 18.4375C303.518 18.3333 303.359 18.1484 303.281 17.8828C303.208 17.612 303.172 17.237 303.172 16.7578ZM299.297 23.6641L300.781 25.1406L302.258 23.6641L300.781 22.1797L299.297 23.6641ZM296.562 23.6641L298.047 25.1406L299.523 23.6641L298.047 22.1797L296.562 23.6641ZM303.391 23.6562L304.875 25.1328L306.352 23.6562L304.875 22.1719L303.391 23.6562ZM306.125 23.6562L307.609 25.1328L309.086 23.6562L307.609 22.1719L306.125 23.6562ZM304.766 26.2344L306.25 27.7109L307.727 26.2344L306.25 24.75L304.766 26.2344ZM308.922 14.0234L306.656 14.6406C306.776 15.1562 306.872 15.6198 306.945 16.0312C307.023 16.4375 307.062 16.7917 307.062 17.0938C307.062 17.6094 306.935 17.9896 306.68 18.2344C306.43 18.474 306.026 18.5938 305.469 18.5938H305.172C305.062 18.5938 304.982 18.6745 304.93 18.8359C304.872 18.9974 304.844 19.3177 304.844 19.7969C304.844 20.276 304.872 20.5964 304.93 20.7578C304.982 20.9193 305.062 21 305.172 21H305.469C306.406 21 307.164 20.8516 307.742 20.5547C308.326 20.2578 308.75 19.8385 309.016 19.2969C309.286 18.75 309.422 18.112 309.422 17.3828C309.422 16.8984 309.375 16.375 309.281 15.8125C309.193 15.25 309.073 14.6536 308.922 14.0234ZM318.547 18.5938C318.917 18.0573 319.271 17.625 319.609 17.2969C319.948 16.9688 320.268 16.7292 320.57 16.5781C320.872 16.4271 321.148 16.3516 321.398 16.3516C321.727 16.3516 321.987 16.4531 322.18 16.6562C322.372 16.8542 322.469 17.1146 322.469 17.4375C322.469 17.6667 322.417 17.8568 322.312 18.0078C322.214 18.1536 322.068 18.2708 321.875 18.3594C321.682 18.4427 321.451 18.5026 321.18 18.5391C320.909 18.5755 320.607 18.5938 320.273 18.5938H318.547ZM315.719 18.5938H313.523V21H319.727C320.565 21 321.339 20.9349 322.047 20.8047C322.76 20.6745 323.359 20.4271 323.844 20.0625C324.062 20.349 324.339 20.5781 324.672 20.75C325.005 20.9167 325.44 21 325.977 21H325.984V18.5938H325.977C325.768 18.5938 325.578 18.5781 325.406 18.5469C325.234 18.5104 325.078 18.4583 324.938 18.3906C324.995 18.2396 325.036 18.0807 325.062 17.9141C325.094 17.7422 325.109 17.5625 325.109 17.375C325.109 16.75 324.977 16.1823 324.711 15.6719C324.445 15.1615 324.068 14.7552 323.578 14.4531C323.094 14.1458 322.518 13.9922 321.852 13.9922C321.174 13.9922 320.518 14.1797 319.883 14.5547C319.247 14.9245 318.656 15.474 318.109 16.2031C318.182 15.8958 318.232 15.5781 318.258 15.25C318.289 14.9167 318.305 14.5885 318.305 14.2656V9.64844H315.898V18.3281C315.872 18.3698 315.844 18.4141 315.812 18.4609C315.781 18.5026 315.75 18.5469 315.719 18.5938ZM331.297 18.5938C330.969 18.5781 330.732 18.4661 330.586 18.2578C330.44 18.0443 330.385 17.7396 330.422 17.3438L330.586 15.4688L328.18 15.2891L328.031 17.0156C327.979 17.5885 327.815 17.9948 327.539 18.2344C327.268 18.474 326.849 18.5938 326.281 18.5938H325.984C325.865 18.5938 325.781 18.6849 325.734 18.8672C325.682 19.0495 325.656 19.349 325.656 19.7656C325.656 20.1927 325.682 20.5052 325.734 20.7031C325.786 20.901 325.87 21 325.984 21H326.281C326.896 21 327.448 20.8724 327.938 20.6172C328.432 20.362 328.792 20.0208 329.016 19.5938C329.167 20.0573 329.424 20.4089 329.789 20.6484C330.159 20.8828 330.638 21 331.227 21C332.383 21 333.128 20.5495 333.461 19.6484C333.628 20.0807 333.906 20.4141 334.297 20.6484C334.693 20.8828 335.198 21 335.812 21C336.776 21 337.492 20.7109 337.961 20.1328C338.43 19.5547 338.664 18.6771 338.664 17.5C338.664 17.2188 338.651 16.9193 338.625 16.6016C338.599 16.2786 338.562 15.9531 338.516 15.625C338.469 15.2969 338.411 14.9792 338.344 14.6719L336.016 15.2266C336.073 15.5495 336.122 15.8594 336.164 16.1562C336.206 16.4531 336.237 16.7214 336.258 16.9609C336.279 17.1953 336.289 17.3854 336.289 17.5312C336.289 18.2396 335.99 18.5938 335.391 18.5938C335.057 18.5938 334.81 18.5026 334.648 18.3203C334.492 18.1328 334.43 17.8411 334.461 17.4453L334.562 15.8594L332.469 15.7109L332.336 17.4688C332.299 17.8646 332.195 18.1562 332.023 18.3438C331.852 18.526 331.609 18.6094 331.297 18.5938ZM344.094 18.5703C343.932 18.5755 343.753 18.5807 343.555 18.5859C343.362 18.5911 343.172 18.5938 342.984 18.5938C342.625 18.5938 342.365 18.5391 342.203 18.4297C342.042 18.3151 341.961 18.125 341.961 17.8594C341.961 17.5885 341.995 17.3385 342.062 17.1094C342.135 16.875 342.242 16.6875 342.383 16.5469C342.523 16.401 342.703 16.3281 342.922 16.3281C343.109 16.3281 343.268 16.3828 343.398 16.4922C343.534 16.5964 343.646 16.7474 343.734 16.9453C343.828 17.1432 343.904 17.3802 343.961 17.6562C344.018 17.9271 344.062 18.2318 344.094 18.5703ZM343.781 21C343.526 21.4844 343.036 21.9323 342.312 22.3438C341.589 22.7604 340.701 23.1276 339.648 23.4453L340.68 25.625C342.289 25.1146 343.555 24.4844 344.477 23.7344C345.398 22.9896 345.969 22.0781 346.188 21H346.883V18.5938H346.281C346.24 17.974 346.151 17.388 346.016 16.8359C345.885 16.2839 345.693 15.7969 345.438 15.375C345.188 14.9479 344.859 14.6146 344.453 14.375C344.052 14.1302 343.557 14.0078 342.969 14.0078C342.432 14.0078 341.969 14.1302 341.578 14.375C341.188 14.6198 340.865 14.9427 340.609 15.3438C340.354 15.7448 340.164 16.1849 340.039 16.6641C339.919 17.1432 339.859 17.6172 339.859 18.0859C339.859 19.0339 340.107 19.7578 340.602 20.2578C341.096 20.7526 341.786 21 342.672 21C342.854 21 343.036 21 343.219 21C343.406 21 343.594 21 343.781 21ZM350.641 14.0234L348.375 14.6406C348.495 15.1562 348.591 15.6198 348.664 16.0312C348.742 16.4375 348.781 16.7917 348.781 17.0938C348.781 17.6094 348.654 17.9896 348.398 18.2344C348.148 18.474 347.745 18.5938 347.188 18.5938H346.891C346.781 18.5938 346.701 18.6745 346.648 18.8359C346.591 18.9974 346.562 19.3177 346.562 19.7969C346.562 20.276 346.591 20.5964 346.648 20.7578C346.701 20.9193 346.781 21 346.891 21H347.188C348.125 21 348.883 20.8516 349.461 20.5547C350.044 20.2578 350.469 19.8385 350.734 19.2969C351.005 18.75 351.141 18.112 351.141 17.3828C351.141 16.8984 351.094 16.375 351 15.8125C350.911 15.25 350.792 14.6536 350.641 14.0234ZM348.703 11.8594L350.188 13.3359L351.664 11.8594L350.188 10.375L348.703 11.8594ZM345.969 11.8594L347.453 13.3359L348.93 11.8594L347.453 10.375L345.969 11.8594ZM360.164 22.8438C359.268 22.8438 358.615 22.6432 358.203 22.2422C357.797 21.8411 357.594 21.3021 357.594 20.625C357.594 20.2448 357.643 19.8229 357.742 19.3594C357.846 18.8958 357.982 18.4271 358.148 17.9531L356.031 17.2031C355.776 17.8542 355.581 18.5026 355.445 19.1484C355.31 19.7891 355.242 20.388 355.242 20.9453C355.242 21.7891 355.417 22.5339 355.766 23.1797C356.12 23.8307 356.651 24.3385 357.359 24.7031C358.068 25.0677 358.958 25.25 360.031 25.25C361.099 25.25 362.029 25.0495 362.82 24.6484C363.612 24.2474 364.224 23.6615 364.656 22.8906C365.094 22.1198 365.312 21.1771 365.312 20.0625V9.64844H362.906V20.0625C362.906 20.9948 362.685 21.6901 362.242 22.1484C361.805 22.612 361.112 22.8438 360.164 22.8438ZM367.219 9.64844V17.1406C367.219 18.4167 367.578 19.3802 368.297 20.0312C369.021 20.6771 370.026 21 371.312 21V18.5938C370.651 18.5938 370.206 18.4818 369.977 18.2578C369.747 18.0339 369.633 17.6458 369.633 17.0938V9.64844H367.219ZM376.625 18.5938C376.297 18.5781 376.06 18.4661 375.914 18.2578C375.768 18.0443 375.714 17.7396 375.75 17.3438L375.914 15.4688L373.508 15.2891L373.359 17.0156C373.307 17.5885 373.143 17.9948 372.867 18.2344C372.596 18.474 372.177 18.5938 371.609 18.5938H371.312C371.193 18.5938 371.109 18.6849 371.062 18.8672C371.01 19.0495 370.984 19.349 370.984 19.7656C370.984 20.1927 371.01 20.5052 371.062 20.7031C371.115 20.901 371.198 21 371.312 21H371.609C372.224 21 372.776 20.8724 373.266 20.6172C373.76 20.362 374.12 20.0208 374.344 19.5938C374.495 20.0573 374.753 20.4089 375.117 20.6484C375.487 20.8828 375.966 21 376.555 21C377.711 21 378.456 20.5495 378.789 19.6484C378.956 20.0807 379.234 20.4141 379.625 20.6484C380.021 20.8828 380.526 21 381.141 21C382.104 21 382.82 20.7109 383.289 20.1328C383.758 19.5547 383.992 18.6771 383.992 17.5C383.992 17.2188 383.979 16.9193 383.953 16.6016C383.927 16.2786 383.891 15.9531 383.844 15.625C383.797 15.2969 383.74 14.9792 383.672 14.6719L381.344 15.2266C381.401 15.5495 381.451 15.8594 381.492 16.1562C381.534 16.4531 381.565 16.7214 381.586 16.9609C381.607 17.1953 381.617 17.3854 381.617 17.5312C381.617 18.2396 381.318 18.5938 380.719 18.5938C380.385 18.5938 380.138 18.5026 379.977 18.3203C379.82 18.1328 379.758 17.8411 379.789 17.4453L379.891 15.8594L377.797 15.7109L377.664 17.4688C377.628 17.8646 377.523 18.1562 377.352 18.3438C377.18 18.526 376.938 18.6094 376.625 18.5938ZM386.297 15.75C386.562 16.5469 386.766 17.2786 386.906 17.9453C387.047 18.612 387.117 19.1927 387.117 19.6875C387.117 20.2917 386.987 20.8151 386.727 21.2578C386.471 21.7057 386.06 22.1042 385.492 22.4531C384.924 22.8073 384.174 23.1484 383.242 23.4766L384.289 25.6406C385.523 25.1927 386.523 24.6797 387.289 24.1016C388.06 23.5286 388.625 22.8776 388.984 22.1484C389.344 21.4193 389.523 20.5964 389.523 19.6797C389.523 19.0182 389.44 18.3047 389.273 17.5391C389.107 16.7682 388.875 15.9115 388.578 14.9688L386.297 15.75ZM393.5 21V9.64844H391.094V21H393.5Z" fill="#417F56"/>
<line x1="593.5" y1="16.5" x2="439" y2="16.5" stroke="#417F56" stroke-linecap="round" stroke-dasharray="4 4"/>
<path d="M611.856 15.3184C611.592 15.2181 611.307 15.1406 611.002 15.0859C610.697 15.0267 610.398 14.9971 610.106 14.9971C609.423 14.9971 608.821 15.1475 608.302 15.4482C607.787 15.7445 607.386 16.1501 607.099 16.665C606.812 17.18 606.668 17.7588 606.668 18.4014C606.668 18.8981 606.766 19.2969 606.962 19.5977C607.162 19.8939 607.472 20.1172 607.892 20.2676C608.315 20.4134 608.858 20.5137 609.519 20.5684C610.084 20.6185 610.466 20.6982 610.667 20.8076C610.872 20.9215 610.975 21.1107 610.975 21.375C610.975 21.6348 610.877 21.8649 610.681 22.0654C610.485 22.2705 610.218 22.4437 609.881 22.585C609.548 22.7262 609.168 22.8333 608.739 22.9062C608.315 22.9792 607.873 23.0156 607.413 23.0156C606.693 23.0156 606.105 22.9313 605.649 22.7627C605.198 22.5941 604.866 22.3161 604.651 21.9287C604.437 21.5413 604.33 21.0218 604.33 20.3701C604.33 19.9873 604.353 19.6022 604.398 19.2148C604.449 18.8229 604.515 18.3991 604.597 17.9434L603.414 17.7178C603.318 18.1872 603.245 18.6361 603.195 19.0645C603.15 19.4883 603.127 19.9053 603.127 20.3154C603.127 21.6872 603.478 22.6875 604.18 23.3164C604.886 23.9499 605.962 24.2666 607.406 24.2666C608.081 24.2666 608.707 24.2028 609.286 24.0752C609.865 23.9476 610.371 23.7539 610.804 23.4941C611.237 23.2344 611.574 22.9062 611.815 22.5098C612.057 22.1178 612.178 21.6576 612.178 21.1289C612.178 20.7871 612.123 20.5068 612.014 20.2881C611.909 20.0693 611.752 19.8962 611.542 19.7686C611.337 19.6364 611.086 19.5384 610.79 19.4746C610.494 19.4108 610.154 19.3652 609.771 19.3379C609.07 19.2786 608.58 19.1761 608.302 19.0303C608.024 18.8799 607.885 18.6133 607.885 18.2305C607.885 17.834 607.985 17.4876 608.186 17.1914C608.386 16.8906 608.66 16.6582 609.006 16.4941C609.357 16.3255 609.751 16.2412 610.188 16.2412C610.398 16.2412 610.617 16.2617 610.845 16.3027C611.077 16.3392 611.289 16.3893 611.48 16.4531L611.856 15.3184ZM615.452 16.3779C615.675 17.098 615.84 17.7337 615.944 18.2852C616.054 18.832 616.108 19.3151 616.108 19.7344C616.108 20.2995 615.994 20.7939 615.767 21.2178C615.539 21.6462 615.172 22.029 614.666 22.3662C614.165 22.708 613.497 23.0339 612.663 23.3438L613.196 24.4854C614.185 24.1162 614.985 23.7038 615.596 23.248C616.206 22.7923 616.653 22.2751 616.936 21.6963C617.223 21.1175 617.366 20.459 617.366 19.7207C617.366 19.2194 617.307 18.6702 617.188 18.0732C617.07 17.4762 616.892 16.779 616.655 15.9814L615.452 16.3779ZM614.98 13.1582L616.006 14.1768L617.024 13.1582L616.006 12.1328L614.98 13.1582ZM619.178 11.0938V17.5059C619.178 18.5039 619.442 19.2536 619.971 19.7549C620.504 20.2516 621.276 20.5 622.288 20.5V19.2422C621.573 19.2422 621.085 19.1055 620.825 18.832C620.57 18.5586 620.442 18.1097 620.442 17.4854V11.0938H619.178ZM627.039 19.2422C626.606 19.2331 626.292 19.0918 626.096 18.8184C625.9 18.5404 625.827 18.1416 625.877 17.6221L626.014 16.207L624.749 16.1045L624.64 17.2598C624.571 17.9707 624.38 18.4788 624.065 18.7842C623.751 19.0895 623.275 19.2422 622.637 19.2422H622.295C622.222 19.2422 622.17 19.29 622.138 19.3857C622.101 19.4814 622.083 19.6387 622.083 19.8574C622.083 20.0807 622.101 20.2448 622.138 20.3496C622.17 20.4499 622.222 20.5 622.295 20.5H622.637C623.229 20.5 623.749 20.3701 624.195 20.1104C624.646 19.846 624.95 19.4997 625.104 19.0713C625.205 19.5361 625.414 19.8916 625.733 20.1377C626.052 20.3792 626.476 20.5 627.005 20.5C627.998 20.5 628.63 20.0739 628.898 19.2217C629.012 19.6318 629.233 19.9486 629.562 20.1719C629.894 20.3906 630.32 20.5 630.84 20.5C631.569 20.5 632.116 20.2812 632.48 19.8438C632.845 19.4017 633.027 18.7432 633.027 17.8682C633.027 17.654 633.016 17.4147 632.993 17.1504C632.975 16.8861 632.948 16.6217 632.911 16.3574C632.875 16.0931 632.834 15.8538 632.788 15.6396L631.571 15.9336C631.612 16.1478 631.649 16.3779 631.681 16.624C631.713 16.8656 631.738 17.098 631.756 17.3213C631.774 17.5446 631.783 17.7314 631.783 17.8818C631.783 18.7887 631.407 19.2422 630.655 19.2422C630.236 19.2422 629.922 19.1214 629.712 18.8799C629.502 18.6383 629.418 18.2601 629.459 17.7451L629.548 16.5283L628.42 16.4395L628.311 17.7861C628.265 18.3011 628.137 18.6748 627.928 18.9072C627.723 19.1351 627.426 19.2467 627.039 19.2422ZM636.773 19.3105C636.359 19.3105 636.047 19.2057 635.837 18.9961C635.632 18.7865 635.529 18.5107 635.529 18.1689C635.529 17.7952 635.641 17.401 635.864 16.9863C636.088 16.5671 636.391 16.182 636.773 15.8311C637.165 16.1865 637.471 16.5716 637.689 16.9863C637.908 17.401 638.018 17.7952 638.018 18.1689C638.018 18.5153 637.913 18.7933 637.703 19.0029C637.498 19.208 637.188 19.3105 636.773 19.3105ZM636.773 20.5752C637.261 20.5752 637.687 20.4749 638.052 20.2744C638.421 20.0739 638.708 19.8027 638.913 19.4609C639.118 19.1146 639.221 18.7249 639.221 18.292C639.221 17.8682 639.141 17.4489 638.981 17.0342C638.826 16.6195 638.608 16.2116 638.325 15.8105C638.043 15.4095 637.712 15.0199 637.334 14.6416C636.96 14.2588 636.557 13.8896 636.124 13.5342L635.365 14.4434C635.488 14.5482 635.607 14.653 635.721 14.7578C635.835 14.8581 635.946 14.9606 636.056 15.0654C635.728 15.3844 635.436 15.724 635.181 16.084C634.925 16.4395 634.725 16.8109 634.579 17.1982C634.438 17.5811 634.367 17.9753 634.367 18.3809C634.367 18.791 634.463 19.1624 634.654 19.4951C634.85 19.8278 635.128 20.0921 635.488 20.2881C635.848 20.4795 636.277 20.5752 636.773 20.5752ZM646.173 17.9229C646.173 17.4124 646.061 16.9111 645.838 16.4189C645.615 15.9268 645.298 15.4368 644.888 14.9492C644.478 14.4616 643.994 13.9717 643.438 13.4795L642.618 14.4502C643.388 15.1338 643.967 15.7627 644.354 16.3369C644.742 16.9066 644.936 17.4102 644.936 17.8477C644.936 18.1895 644.831 18.4674 644.621 18.6816C644.416 18.8958 644.133 19.0531 643.773 19.1533C643.413 19.2536 643.003 19.3037 642.543 19.3037C642.233 19.3037 641.925 19.2832 641.62 19.2422C641.315 19.2012 641.035 19.1465 640.779 19.0781L640.492 20.2744C640.816 20.3656 641.153 20.4362 641.504 20.4863C641.859 20.5319 642.215 20.5547 642.57 20.5547C643.008 20.5547 643.438 20.5091 643.862 20.418C644.291 20.3268 644.678 20.1787 645.024 19.9736C645.375 19.7686 645.653 19.4974 645.858 19.1602C646.068 18.8229 646.173 18.4105 646.173 17.9229ZM647.916 11.0938V17.5059C647.916 18.5039 648.18 19.2536 648.709 19.7549C649.242 20.2516 650.015 20.5 651.026 20.5V19.2422C650.311 19.2422 649.823 19.1055 649.563 18.832C649.308 18.5586 649.181 18.1097 649.181 17.4854V11.0938H647.916ZM651.033 19.2422C650.956 19.2422 650.901 19.2878 650.869 19.3789C650.837 19.4655 650.821 19.6296 650.821 19.8711C650.821 20.1081 650.837 20.2721 650.869 20.3633C650.901 20.4544 650.956 20.5 651.033 20.5C651.566 20.5 652.006 20.3883 652.353 20.165C652.703 19.9417 653.002 19.6569 653.248 19.3105C653.567 19.6979 653.941 20.0055 654.369 20.2334C654.802 20.4567 655.262 20.5684 655.75 20.5684C656.47 20.5684 657.037 20.3451 657.452 19.8984C657.871 19.4473 658.081 18.8503 658.081 18.1074C658.081 17.6107 657.979 17.1344 657.773 16.6787C657.568 16.2184 657.281 15.8424 656.912 15.5508C656.543 15.2546 656.112 15.1064 655.62 15.1064C655.169 15.1064 654.798 15.2113 654.506 15.4209C654.214 15.626 653.966 15.8926 653.761 16.2207C653.56 16.5443 653.371 16.8906 653.193 17.2598C653.029 17.5924 652.856 17.9115 652.674 18.2168C652.492 18.5176 652.271 18.7637 652.011 18.9551C651.756 19.1465 651.43 19.2422 651.033 19.2422ZM653.884 18.3262L654.096 17.8682C654.232 17.5492 654.371 17.278 654.513 17.0547C654.654 16.8268 654.811 16.6536 654.984 16.5352C655.162 16.4121 655.367 16.3506 655.6 16.3506C655.85 16.3506 656.076 16.4372 656.276 16.6104C656.481 16.7835 656.643 17.0046 656.762 17.2734C656.885 17.5378 656.946 17.8158 656.946 18.1074C656.946 18.4857 656.832 18.7819 656.604 18.9961C656.377 19.2103 656.094 19.3174 655.757 19.3174C655.415 19.3174 655.089 19.2331 654.779 19.0645C654.469 18.8958 654.171 18.6497 653.884 18.3262ZM662.846 8.19531C662.691 8.49609 662.536 8.70573 662.381 8.82422C662.23 8.93815 662.062 8.99512 661.875 8.99512C661.706 8.99512 661.535 8.96549 661.362 8.90625C661.194 8.84245 661.021 8.77181 660.843 8.69434C660.67 8.61686 660.494 8.5485 660.316 8.48926C660.139 8.42546 659.961 8.39355 659.783 8.39355C659.487 8.39355 659.195 8.50293 658.908 8.72168C658.621 8.93587 658.354 9.27539 658.108 9.74023L658.635 10.0615C658.785 9.8291 658.942 9.61947 659.106 9.43262C659.275 9.24121 659.48 9.14551 659.722 9.14551C659.854 9.14551 659.991 9.17057 660.132 9.2207C660.273 9.27083 660.421 9.33236 660.576 9.40527C660.758 9.49186 660.954 9.57161 661.164 9.64453C661.374 9.71289 661.59 9.74707 661.813 9.74707C662.155 9.74707 662.451 9.64909 662.702 9.45312C662.957 9.25716 663.194 8.93359 663.413 8.48242L662.846 8.19531ZM661.383 11.0938H660.125V20.5H661.383V11.0938ZM669.805 22.9951C668.925 22.9951 668.267 22.7946 667.829 22.3936C667.396 21.9925 667.18 21.4274 667.18 20.6982C667.18 20.3473 667.225 19.9554 667.316 19.5225C667.408 19.085 667.537 18.6406 667.706 18.1895L666.592 17.7793C666.378 18.3171 666.216 18.848 666.106 19.3721C666.002 19.8916 665.949 20.3815 665.949 20.8418C665.949 21.5345 666.093 22.1361 666.38 22.6465C666.667 23.1569 667.086 23.5511 667.638 23.8291C668.194 24.1117 668.88 24.2529 669.695 24.2529C670.561 24.2529 671.299 24.098 671.91 23.7881C672.521 23.4827 672.988 23.0202 673.312 22.4004C673.635 21.7852 673.797 21.0173 673.797 20.0967V11.0938H672.539V20.0967C672.539 21.0765 672.318 21.8034 671.876 22.2773C671.434 22.7559 670.743 22.9951 669.805 22.9951ZM675.93 11.0938V17.5059C675.93 18.5039 676.194 19.2536 676.723 19.7549C677.256 20.2516 678.028 20.5 679.04 20.5V19.2422C678.325 19.2422 677.837 19.1055 677.577 18.832C677.322 18.5586 677.194 18.1097 677.194 17.4854V11.0938H675.93ZM682.26 14.6484C681.59 14.6484 681.082 14.8672 680.735 15.3047C680.389 15.7422 680.147 16.3164 680.011 17.0273L679.963 17.2871L680.988 17.4785L681.029 17.2598C681.12 16.8451 681.264 16.5146 681.46 16.2686C681.66 16.0225 681.943 15.8994 682.308 15.8994C682.526 15.8994 682.75 15.945 682.978 16.0361C683.21 16.1227 683.465 16.2298 683.743 16.3574C684.039 16.4896 684.363 16.6263 684.714 16.7676C685.069 16.9089 685.468 17.0228 685.91 17.1094L683.976 18.3535C683.643 18.5632 683.308 18.734 682.971 18.8662C682.638 18.9938 682.292 19.0895 681.932 19.1533C681.572 19.2126 681.187 19.2422 680.776 19.2422H679.047C678.969 19.2422 678.915 19.2878 678.883 19.3789C678.851 19.4701 678.835 19.6341 678.835 19.8711C678.835 20.1035 678.851 20.2676 678.883 20.3633C678.915 20.4544 678.969 20.5 679.047 20.5H680.578C681.335 20.5 682.034 20.4066 682.677 20.2197C683.324 20.0329 683.948 19.7412 684.55 19.3447L687.373 17.458V16.3574C686.781 16.2435 686.241 16.0908 685.753 15.8994C685.265 15.7035 684.812 15.512 684.393 15.3252C683.987 15.1383 683.609 14.9788 683.258 14.8467C682.911 14.7145 682.579 14.6484 682.26 14.6484ZM693.382 16.3779C693.605 17.098 693.769 17.7337 693.874 18.2852C693.983 18.832 694.038 19.3151 694.038 19.7344C694.038 20.2995 693.924 20.7939 693.696 21.2178C693.468 21.6462 693.102 22.029 692.596 22.3662C692.094 22.708 691.427 23.0339 690.593 23.3438L691.126 24.4854C692.115 24.1162 692.915 23.7038 693.525 23.248C694.136 22.7923 694.583 22.2751 694.865 21.6963C695.152 21.1175 695.296 20.459 695.296 19.7207C695.296 19.2194 695.237 18.6702 695.118 18.0732C695 17.4762 694.822 16.779 694.585 15.9814L693.382 16.3779ZM702.323 17.9229C702.323 17.4124 702.212 16.9111 701.988 16.4189C701.765 15.9268 701.448 15.4368 701.038 14.9492C700.628 14.4616 700.145 13.9717 699.589 13.4795L698.769 14.4502C699.539 15.1338 700.118 15.7627 700.505 16.3369C700.892 16.9066 701.086 17.4102 701.086 17.8477C701.086 18.1895 700.981 18.4674 700.771 18.6816C700.566 18.8958 700.284 19.0531 699.924 19.1533C699.564 19.2536 699.154 19.3037 698.693 19.3037C698.383 19.3037 698.076 19.2832 697.771 19.2422C697.465 19.2012 697.185 19.1465 696.93 19.0781L696.643 20.2744C696.966 20.3656 697.303 20.4362 697.654 20.4863C698.01 20.5319 698.365 20.5547 698.721 20.5547C699.158 20.5547 699.589 20.5091 700.013 20.418C700.441 20.3268 700.828 20.1787 701.175 19.9736C701.526 19.7686 701.804 19.4974 702.009 19.1602C702.218 18.8229 702.323 18.4105 702.323 17.9229Z" fill="#417F56"/>
<path d="M719.001 22.7498C718.591 22.7498 718.251 22.4098 718.251 21.9998V18.9998C718.251 18.5898 718.591 18.2498 719.001 18.2498C719.411 18.2498 719.751 18.5898 719.751 18.9998V21.9998C719.751 22.4098 719.411 22.7498 719.001 22.7498Z" fill="#417F56"/>
<path d="M724.601 26.5598H713.401C711.581 26.5598 709.921 25.1598 709.621 23.3698L708.291 15.3998C708.071 14.1598 708.681 12.5698 709.671 11.7798L716.601 6.22982C717.941 5.14982 720.051 5.15982 721.401 6.23982L728.331 11.7798C729.311 12.5698 729.911 14.1598 729.711 15.3998L728.381 23.3598C728.081 25.1298 726.381 26.5598 724.601 26.5598ZM718.991 6.92982C718.461 6.92982 717.931 7.08982 717.541 7.39982L710.611 12.9598C710.051 13.4098 709.651 14.4498 709.771 15.1598L711.101 23.1198C711.281 24.1698 712.331 25.0598 713.401 25.0598H724.601C725.671 25.0598 726.721 24.1698 726.901 23.1098L728.231 15.1498C728.341 14.4498 727.941 13.3898 727.391 12.9498L720.461 7.40982C720.061 7.08982 719.521 6.92982 718.991 6.92982Z" fill="#417F56"/>
<defs>
<linearGradient id="paint0_linear_2092_35963" x1="274.5" y1="16" x2="119" y2="16" gradientUnits="userSpaceOnUse">
<stop offset="0.485754" stop-color="#417F56"/>
<stop offset="0.501641" stop-color="#CBCBCB"/>
</linearGradient>
</defs>
</svg>
