<svg width="731" height="32" viewBox="0 0 731 32" fill="none" xmlns="http://www.w3.org/2000/svg">
<path d="M11.5508 20.5C11.9792 20.5 12.3529 20.3906 12.6719 20.1719C12.9954 19.9531 13.2119 19.6364 13.3213 19.2217C13.4352 19.6318 13.6562 19.9486 13.9844 20.1719C14.3125 20.3906 14.7363 20.5 15.2559 20.5C15.985 20.5 16.5319 20.2835 16.8965 19.8506C17.2656 19.4131 17.4502 18.7568 17.4502 17.8818C17.4502 17.5719 17.4274 17.2233 17.3818 16.8359C17.3408 16.4486 17.2861 16.0863 17.2178 15.749L15.9873 16.043C16.0557 16.3893 16.1081 16.7311 16.1445 17.0684C16.1855 17.4056 16.2061 17.679 16.2061 17.8887C16.2061 18.791 15.8301 19.2422 15.0781 19.2422C14.6589 19.2422 14.3444 19.1214 14.1348 18.8799C13.9251 18.6383 13.8408 18.2601 13.8818 17.7451L13.9707 16.5283L12.8428 16.4395L12.7334 17.7861C12.6878 18.292 12.5648 18.6611 12.3643 18.8936C12.1637 19.126 11.8743 19.2422 11.4961 19.2422C11.0404 19.2422 10.7031 19.1009 10.4844 18.8184C10.2702 18.5312 10.1016 18.1211 9.97852 17.5879L9.5957 16.166L8.3584 16.624C8.47689 17.0114 8.58626 17.4079 8.68652 17.8135C8.78678 18.2191 8.86654 18.6133 8.92578 18.9961C8.98958 19.3789 9.02148 19.7321 9.02148 20.0557C9.02148 20.6253 8.91895 21.1107 8.71387 21.5117C8.51335 21.9128 8.18294 22.2181 7.72266 22.4277C7.26237 22.6374 6.64258 22.7422 5.86328 22.7422C5.125 22.7422 4.51888 22.6374 4.04492 22.4277C3.57552 22.2227 3.22689 21.9014 2.99902 21.4639C2.77572 21.0309 2.66406 20.4727 2.66406 19.7891C2.66406 19.2923 2.71419 18.7705 2.81445 18.2236C2.91927 17.6768 3.0332 17.1846 3.15625 16.7471L2.01465 16.4121C1.90527 16.763 1.80501 17.1436 1.71387 17.5537C1.62728 17.9593 1.55892 18.3672 1.50879 18.7773C1.45866 19.1875 1.43359 19.5771 1.43359 19.9463C1.43359 21.2679 1.79134 22.2728 2.50684 22.9609C3.22233 23.6536 4.34798 24 5.88379 24C6.84082 24 7.6429 23.8451 8.29004 23.5352C8.94173 23.2298 9.42708 22.7627 9.74609 22.1338C10.0697 21.5094 10.2132 20.7188 10.1768 19.7617C10.3135 19.9896 10.4889 20.1696 10.7031 20.3018C10.9219 20.4339 11.2044 20.5 11.5508 20.5ZM11.0039 13.8281L12.0293 14.8467L13.0479 13.8281L12.0293 12.8027L11.0039 13.8281ZM13.3896 13.8281L14.415 14.8467L15.4336 13.8281L14.415 12.8027L13.3896 13.8281ZM12.2002 11.7021L13.2256 12.7207L14.2441 11.7021L13.2256 10.6768L12.2002 11.7021ZM19.9932 16.3779C20.2165 17.098 20.3805 17.7337 20.4854 18.2852C20.5947 18.832 20.6494 19.3151 20.6494 19.7344C20.6494 20.2995 20.5355 20.7939 20.3076 21.2178C20.0798 21.6462 19.7129 22.029 19.207 22.3662C18.7057 22.708 18.0381 23.0339 17.2041 23.3438L17.7373 24.4854C18.7262 24.1162 19.526 23.7038 20.1367 23.248C20.7474 22.7923 21.194 22.2751 21.4766 21.6963C21.7637 21.1175 21.9072 20.459 21.9072 19.7207C21.9072 19.2194 21.848 18.6702 21.7295 18.0732C21.611 17.4762 21.4333 16.779 21.1963 15.9814L19.9932 16.3779ZM23.7188 11.0938V17.5059C23.7188 18.5039 23.9831 19.2536 24.5117 19.7549C25.0449 20.2516 25.8174 20.5 26.8291 20.5V19.2422C26.1136 19.2422 25.626 19.1055 25.3662 18.832C25.111 18.5586 24.9834 18.1097 24.9834 17.4854V11.0938H23.7188ZM29.2217 11.3125L30.2471 12.3311L31.2656 11.3125L30.2471 10.2871L29.2217 11.3125ZM27.6699 16.7402C27.6699 17.2871 27.7998 17.7497 28.0596 18.1279C28.3239 18.5062 28.6497 18.8138 29.0371 19.0508C28.8047 19.1146 28.5677 19.1624 28.3262 19.1943C28.0892 19.2262 27.8408 19.2422 27.5811 19.2422H26.8359C26.7585 19.2422 26.7038 19.2878 26.6719 19.3789C26.64 19.4655 26.624 19.6296 26.624 19.8711C26.624 20.1081 26.64 20.2721 26.6719 20.3633C26.7038 20.4544 26.7585 20.5 26.8359 20.5H27.7041C28.1735 20.5 28.6133 20.4567 29.0234 20.3701C29.4382 20.2835 29.8392 20.1536 30.2266 19.9805C30.6139 20.1536 31.0127 20.2835 31.4229 20.3701C31.8376 20.4567 32.2728 20.5 32.7285 20.5H33.665V19.2422H32.8926C32.6374 19.2422 32.389 19.2262 32.1475 19.1943C31.9105 19.1624 31.6849 19.1146 31.4707 19.0508C31.8535 18.8092 32.1748 18.4971 32.4346 18.1143C32.6989 17.7314 32.8311 17.2689 32.8311 16.7266C32.8311 16.1888 32.7148 15.7217 32.4824 15.3252C32.2546 14.9287 31.9469 14.6234 31.5596 14.4092C31.1722 14.1904 30.737 14.0811 30.2539 14.0811C29.7617 14.0811 29.3197 14.1904 28.9277 14.4092C28.5404 14.6279 28.2327 14.9355 28.0049 15.332C27.7816 15.7285 27.6699 16.1979 27.6699 16.7402ZM30.2471 18.7158C29.8551 18.5199 29.5361 18.2624 29.29 17.9434C29.0485 17.6243 28.9277 17.237 28.9277 16.7812C28.9277 16.3529 29.0462 16.002 29.2832 15.7285C29.5202 15.4505 29.8438 15.3115 30.2539 15.3115C30.6549 15.3115 30.974 15.4505 31.2109 15.7285C31.4479 16.002 31.5664 16.3529 31.5664 16.7812C31.5664 17.2415 31.4456 17.6312 31.2041 17.9502C30.9671 18.2646 30.6481 18.5199 30.2471 18.7158ZM38.416 19.2422C37.9831 19.2331 37.6686 19.0918 37.4727 18.8184C37.2767 18.5404 37.2038 18.1416 37.2539 17.6221L37.3906 16.207L36.126 16.1045L36.0166 17.2598C35.9482 17.9707 35.7568 18.4788 35.4424 18.7842C35.1279 19.0895 34.6517 19.2422 34.0137 19.2422H33.6719C33.599 19.2422 33.5465 19.29 33.5146 19.3857C33.4782 19.4814 33.46 19.6387 33.46 19.8574C33.46 20.0807 33.4782 20.2448 33.5146 20.3496C33.5465 20.4499 33.599 20.5 33.6719 20.5H34.0137C34.6061 20.5 35.1257 20.3701 35.5723 20.1104C36.0234 19.846 36.3265 19.4997 36.4814 19.0713C36.5817 19.5361 36.7913 19.8916 37.1104 20.1377C37.4294 20.3792 37.8532 20.5 38.3818 20.5C39.3753 20.5 40.0065 20.0739 40.2754 19.2217C40.3893 19.6318 40.6104 19.9486 40.9385 20.1719C41.2712 20.3906 41.6973 20.5 42.2168 20.5C42.946 20.5 43.4928 20.2812 43.8574 19.8438C44.222 19.4017 44.4043 18.7432 44.4043 17.8682C44.4043 17.654 44.3929 17.4147 44.3701 17.1504C44.3519 16.8861 44.3245 16.6217 44.2881 16.3574C44.2516 16.0931 44.2106 15.8538 44.165 15.6396L42.9482 15.9336C42.9893 16.1478 43.0257 16.3779 43.0576 16.624C43.0895 16.8656 43.1146 17.098 43.1328 17.3213C43.151 17.5446 43.1602 17.7314 43.1602 17.8818C43.1602 18.7887 42.7842 19.2422 42.0322 19.2422C41.613 19.2422 41.2985 19.1214 41.0889 18.8799C40.8792 18.6383 40.7949 18.2601 40.8359 17.7451L40.9248 16.5283L39.7969 16.4395L39.6875 17.7861C39.6419 18.3011 39.5143 18.6748 39.3047 18.9072C39.0996 19.1351 38.8034 19.2467 38.416 19.2422ZM58.4248 19.2422H58.2881C57.7777 19.2422 57.3789 19.1647 57.0918 19.0098C56.8092 18.8548 56.611 18.627 56.4971 18.3262C56.3831 18.0254 56.3262 17.6585 56.3262 17.2256V11.0938H55.0684V20.0967C55.0684 21.0765 54.8473 21.8034 54.4053 22.2773C53.9632 22.7559 53.2728 22.9951 52.334 22.9951C51.4544 22.9951 50.7959 22.7946 50.3584 22.3936C49.9255 21.9925 49.709 21.4274 49.709 20.6982C49.709 20.3473 49.7546 19.9554 49.8457 19.5225C49.9368 19.085 50.0667 18.6406 50.2354 18.1895L49.1211 17.7793C48.9069 18.3171 48.7451 18.848 48.6357 19.3721C48.5309 19.8916 48.4785 20.3815 48.4785 20.8418C48.4785 21.5345 48.6221 22.1361 48.9092 22.6465C49.1963 23.1569 49.6156 23.5511 50.167 23.8291C50.723 24.1117 51.4089 24.2529 52.2246 24.2529C53.0859 24.2529 53.8174 24.1003 54.4189 23.7949C55.0251 23.4941 55.4876 23.0521 55.8066 22.4688C56.1302 21.8854 56.2943 21.1745 56.2988 20.3359V19.5225C56.4674 19.8415 56.7318 20.0853 57.0918 20.2539C57.4518 20.418 57.8506 20.5 58.2881 20.5H58.4248V19.2422ZM60.0586 22.9404L61.084 23.959L62.1025 22.9404L61.084 21.915L60.0586 22.9404ZM57.6729 22.9404L58.6982 23.959L59.7168 22.9404L58.6982 21.915L57.6729 22.9404ZM61.8633 14.9561L60.6807 15.2773C60.79 15.7422 60.8789 16.1683 60.9473 16.5557C61.0202 16.9385 61.0566 17.2826 61.0566 17.5879C61.0566 17.9434 60.9928 18.2441 60.8652 18.4902C60.7376 18.7363 60.5189 18.9232 60.209 19.0508C59.8991 19.1784 59.4707 19.2422 58.9238 19.2422H58.4316C58.3542 19.2422 58.2995 19.2878 58.2676 19.3789C58.2357 19.4655 58.2197 19.6296 58.2197 19.8711C58.2197 20.1081 58.2357 20.2721 58.2676 20.3633C58.2995 20.4544 58.3542 20.5 58.4316 20.5H58.9238C59.7578 20.5 60.4186 20.3838 60.9062 20.1514C61.3984 19.9189 61.7493 19.5908 61.959 19.167C62.1732 18.7432 62.2803 18.2441 62.2803 17.6699C62.2803 17.278 62.2415 16.8542 62.1641 16.3984C62.0866 15.9427 61.9863 15.4619 61.8633 14.9561ZM67.8105 19.2285C67.5736 19.2331 67.3298 19.2376 67.0791 19.2422C66.8285 19.2422 66.5824 19.2422 66.3408 19.2422C65.9079 19.2422 65.5752 19.1693 65.3428 19.0234C65.1149 18.873 65.001 18.6064 65.001 18.2236C65.001 17.9046 65.0465 17.5993 65.1377 17.3076C65.2288 17.016 65.3701 16.7767 65.5615 16.5898C65.7529 16.403 65.9945 16.3096 66.2861 16.3096C66.5596 16.3096 66.7874 16.3984 66.9697 16.5762C67.1566 16.7493 67.307 16.9795 67.4209 17.2666C67.5394 17.5537 67.6283 17.8682 67.6875 18.21C67.7467 18.5518 67.7878 18.8913 67.8105 19.2285ZM67.6738 20.5C67.5371 21.1107 67.1178 21.6507 66.416 22.1201C65.7188 22.5895 64.7845 22.9814 63.6133 23.2959L64.1191 24.4512C65.541 24.0501 66.6667 23.526 67.4961 22.8789C68.3255 22.2363 68.7995 21.4434 68.918 20.5H69.6562V19.2422H68.959C68.9362 18.7454 68.8747 18.2533 68.7744 17.7656C68.6742 17.2734 68.5238 16.8245 68.3232 16.4189C68.1227 16.0133 67.8561 15.6898 67.5234 15.4482C67.1953 15.2067 66.7897 15.0859 66.3066 15.0859C65.8919 15.0859 65.5319 15.1816 65.2266 15.373C64.9212 15.5599 64.6683 15.8105 64.4678 16.125C64.2673 16.4395 64.1169 16.7881 64.0166 17.1709C63.9209 17.5537 63.873 17.9365 63.873 18.3193C63.873 19.0667 64.0827 19.6182 64.502 19.9736C64.9212 20.3245 65.4886 20.5 66.2041 20.5C66.4456 20.5 66.6872 20.5 66.9287 20.5C67.1748 20.5 67.4232 20.5 67.6738 20.5ZM72.8691 14.6484C72.1992 14.6484 71.6911 14.8672 71.3447 15.3047C70.9984 15.7422 70.7568 16.3164 70.6201 17.0273L70.5723 17.2871L71.5977 17.4785L71.6387 17.2598C71.7298 16.8451 71.8734 16.5146 72.0693 16.2686C72.2699 16.0225 72.5524 15.8994 72.917 15.8994C73.1357 15.8994 73.359 15.945 73.5869 16.0361C73.8193 16.1227 74.0745 16.2298 74.3525 16.3574C74.6488 16.4896 74.9723 16.6263 75.3232 16.7676C75.6787 16.9089 76.0775 17.0228 76.5195 17.1094L74.585 18.3535C74.2523 18.5632 73.9173 18.734 73.5801 18.8662C73.2474 18.9938 72.901 19.0895 72.541 19.1533C72.181 19.2126 71.7959 19.2422 71.3857 19.2422H69.6562C69.5788 19.2422 69.5241 19.2878 69.4922 19.3789C69.4603 19.4701 69.4443 19.6341 69.4443 19.8711C69.4443 20.1035 69.4603 20.2676 69.4922 20.3633C69.5241 20.4544 69.5788 20.5 69.6562 20.5H71.1875C71.944 20.5 72.6436 20.4066 73.2861 20.2197C73.9333 20.0329 74.5576 19.7412 75.1592 19.3447L75.8291 18.8867C76.1436 19.4792 76.5241 19.8962 76.9707 20.1377C77.4173 20.3792 77.946 20.5 78.5566 20.5H78.9805V19.2422H78.584C78.11 19.2422 77.7363 19.1761 77.4629 19.0439C77.1895 18.9118 76.9274 18.6725 76.6768 18.3262L77.9824 17.458V16.3574C77.39 16.2435 76.8499 16.0908 76.3623 15.8994C75.8747 15.7035 75.4212 15.512 75.002 15.3252C74.5964 15.1383 74.2181 14.9788 73.8672 14.8467C73.5208 14.7145 73.1882 14.6484 72.8691 14.6484ZM81.9199 14.9561L80.7373 15.2773C80.8467 15.7422 80.9355 16.1683 81.0039 16.5557C81.0768 16.9385 81.1133 17.2826 81.1133 17.5879C81.1133 18.1211 80.9766 18.5312 80.7031 18.8184C80.4297 19.1009 79.9694 19.2422 79.3223 19.2422H78.9805C78.903 19.2422 78.8483 19.2878 78.8164 19.3789C78.7845 19.4655 78.7686 19.6296 78.7686 19.8711C78.7686 20.1081 78.7845 20.2721 78.8164 20.3633C78.8483 20.4544 78.903 20.5 78.9805 20.5H79.3223C80.0423 20.5 80.6234 20.3838 81.0654 20.1514C81.5075 19.9189 81.8288 19.5908 82.0293 19.167C82.2344 18.7432 82.3369 18.2441 82.3369 17.6699C82.3369 17.278 82.2982 16.8542 82.2207 16.3984C82.1432 15.9427 82.043 15.4619 81.9199 14.9561ZM80.8809 12.707L81.9062 13.7256L82.9248 12.707L81.9062 11.6816L80.8809 12.707ZM78.4951 12.707L79.5205 13.7256L80.5391 12.707L79.5205 11.6816L78.4951 12.707Z" fill="#CBCBCB"/>
<path d="M99 26.75C93.07 26.75 88.25 21.93 88.25 16C88.25 10.07 93.07 5.25 99 5.25C104.93 5.25 109.75 10.07 109.75 16C109.75 21.93 104.93 26.75 99 26.75ZM99 6.75C93.9 6.75 89.75 10.9 89.75 16C89.75 21.1 93.9 25.25 99 25.25C104.1 25.25 108.25 21.1 108.25 16C108.25 10.9 104.1 6.75 99 6.75Z" fill="#CBCBCB"/>
<path d="M97.5795 19.5801C97.3795 19.5801 97.1895 19.5001 97.0495 19.3601L94.2195 16.5301C93.9295 16.2401 93.9295 15.7601 94.2195 15.4701C94.5095 15.1801 94.9895 15.1801 95.2795 15.4701L97.5795 17.7701L102.719 12.6301C103.009 12.3401 103.489 12.3401 103.779 12.6301C104.069 12.9201 104.069 13.4001 103.779 13.6901L98.1095 19.3601C97.9695 19.5001 97.7795 19.5801 97.5795 19.5801Z" fill="#CBCBCB"/>
<line x1="287.5" y1="16.5" x2="119.5" y2="16.5" stroke="#CBCBCB" stroke-linecap="round" stroke-dasharray="4 4"/>
<path d="M379.001 17.2999C379.131 17.2999 379.261 17.2699 379.381 17.1999L388.211 12.0899C388.571 11.8799 388.691 11.4199 388.481 11.0599C388.271 10.6999 387.821 10.5799 387.451 10.7899L379.001 15.6799L370.601 10.8199C370.241 10.6099 369.781 10.7399 369.571 11.0899C369.361 11.4499 369.491 11.9099 369.841 12.1199L378.611 17.1999C378.741 17.2599 378.871 17.2999 379.001 17.2999Z" fill="#CBCBCB"/>
<path d="M379 26.36C379.41 26.36 379.75 26.02 379.75 25.61V16.54C379.75 16.13 379.41 15.79 379 15.79C378.59 15.79 378.25 16.13 378.25 16.54V25.61C378.25 26.02 378.59 26.36 379 26.36Z" fill="#CBCBCB"/>
<path d="M378.999 26.75C379.879 26.75 380.749 26.56 381.439 26.18L386.779 23.21C388.229 22.41 389.359 20.48 389.359 18.82V13.17C389.359 11.51 388.229 9.59002 386.779 8.78002L381.439 5.82C380.069 5.06 377.929 5.06 376.559 5.82L371.219 8.78997C369.769 9.58997 368.639 11.52 368.639 13.18V18.83C368.639 20.49 369.769 22.41 371.219 23.22L376.559 26.18C377.249 26.56 378.119 26.75 378.999 26.75ZM378.999 6.74999C379.629 6.74999 380.249 6.88 380.709 7.13L386.049 10.1C387.009 10.64 387.859 12.07 387.859 13.18V18.83C387.859 19.93 387.009 21.37 386.049 21.91L380.709 24.88C379.799 25.39 378.199 25.39 377.289 24.88L371.949 21.91C370.989 21.37 370.139 19.94 370.139 18.83V13.18C370.139 12.08 370.989 10.64 371.949 10.1L377.289 7.13C377.749 6.88 378.369 6.74999 378.999 6.74999Z" fill="#CBCBCB"/>
<path d="M373.999 17.99C374.409 17.99 374.749 17.65 374.749 17.24V14.0201L383.869 8.76007C384.229 8.55007 384.349 8.09005 384.139 7.74005C383.929 7.38005 383.479 7.26003 383.119 7.47003L373.629 12.9501C373.399 13.0801 373.249 13.33 373.249 13.6V17.2601C373.249 17.6501 373.589 17.99 373.999 17.99Z" fill="#CBCBCB"/>
<path d="M306.843 19.2422H306.706C306.196 19.2422 305.797 19.1647 305.51 19.0098C305.227 18.8548 305.029 18.627 304.915 18.3262C304.801 18.0254 304.744 17.6585 304.744 17.2256V11.0938H303.486V20.0967C303.486 21.0765 303.265 21.8034 302.823 22.2773C302.381 22.7559 301.691 22.9951 300.752 22.9951C299.872 22.9951 299.214 22.7946 298.776 22.3936C298.343 21.9925 298.127 21.4274 298.127 20.6982C298.127 20.3473 298.173 19.9554 298.264 19.5225C298.355 19.085 298.485 18.6406 298.653 18.1895L297.539 17.7793C297.325 18.3171 297.163 18.848 297.054 19.3721C296.949 19.8916 296.896 20.3815 296.896 20.8418C296.896 21.5345 297.04 22.1361 297.327 22.6465C297.614 23.1569 298.034 23.5511 298.585 23.8291C299.141 24.1117 299.827 24.2529 300.643 24.2529C301.504 24.2529 302.235 24.1003 302.837 23.7949C303.443 23.4941 303.906 23.0521 304.225 22.4688C304.548 21.8854 304.712 21.1745 304.717 20.3359V19.5225C304.885 19.8415 305.15 20.0853 305.51 20.2539C305.87 20.418 306.269 20.5 306.706 20.5H306.843V19.2422ZM308.477 22.9404L309.502 23.959L310.521 22.9404L309.502 21.915L308.477 22.9404ZM306.091 22.9404L307.116 23.959L308.135 22.9404L307.116 21.915L306.091 22.9404ZM310.281 14.9561L309.099 15.2773C309.208 15.7422 309.297 16.1683 309.365 16.5557C309.438 16.9385 309.475 17.2826 309.475 17.5879C309.475 17.9434 309.411 18.2441 309.283 18.4902C309.156 18.7363 308.937 18.9232 308.627 19.0508C308.317 19.1784 307.889 19.2422 307.342 19.2422H306.85C306.772 19.2422 306.717 19.2878 306.686 19.3789C306.654 19.4655 306.638 19.6296 306.638 19.8711C306.638 20.1081 306.654 20.2721 306.686 20.3633C306.717 20.4544 306.772 20.5 306.85 20.5H307.342C308.176 20.5 308.837 20.3838 309.324 20.1514C309.816 19.9189 310.167 19.5908 310.377 19.167C310.591 18.7432 310.698 18.2441 310.698 17.6699C310.698 17.278 310.66 16.8542 310.582 16.3984C310.505 15.9427 310.404 15.4619 310.281 14.9561ZM316.229 19.2285C315.992 19.2331 315.748 19.2376 315.497 19.2422C315.246 19.2422 315 19.2422 314.759 19.2422C314.326 19.2422 313.993 19.1693 313.761 19.0234C313.533 18.873 313.419 18.6064 313.419 18.2236C313.419 17.9046 313.465 17.5993 313.556 17.3076C313.647 17.016 313.788 16.7767 313.979 16.5898C314.171 16.403 314.412 16.3096 314.704 16.3096C314.978 16.3096 315.205 16.3984 315.388 16.5762C315.575 16.7493 315.725 16.9795 315.839 17.2666C315.957 17.5537 316.046 17.8682 316.105 18.21C316.165 18.5518 316.206 18.8913 316.229 19.2285ZM316.092 20.5C315.955 21.1107 315.536 21.6507 314.834 22.1201C314.137 22.5895 313.202 22.9814 312.031 23.2959L312.537 24.4512C313.959 24.0501 315.085 23.526 315.914 22.8789C316.743 22.2363 317.217 21.4434 317.336 20.5H318.074V19.2422H317.377C317.354 18.7454 317.293 18.2533 317.192 17.7656C317.092 17.2734 316.942 16.8245 316.741 16.4189C316.541 16.0133 316.274 15.6898 315.941 15.4482C315.613 15.2067 315.208 15.0859 314.725 15.0859C314.31 15.0859 313.95 15.1816 313.645 15.373C313.339 15.5599 313.086 15.8105 312.886 16.125C312.685 16.4395 312.535 16.7881 312.435 17.1709C312.339 17.5537 312.291 17.9365 312.291 18.3193C312.291 19.0667 312.501 19.6182 312.92 19.9736C313.339 20.3245 313.907 20.5 314.622 20.5C314.864 20.5 315.105 20.5 315.347 20.5C315.593 20.5 315.841 20.5 316.092 20.5ZM321.287 14.6484C320.617 14.6484 320.109 14.8672 319.763 15.3047C319.416 15.7422 319.175 16.3164 319.038 17.0273L318.99 17.2871L320.016 17.4785L320.057 17.2598C320.148 16.8451 320.291 16.5146 320.487 16.2686C320.688 16.0225 320.97 15.8994 321.335 15.8994C321.554 15.8994 321.777 15.945 322.005 16.0361C322.237 16.1227 322.493 16.2298 322.771 16.3574C323.067 16.4896 323.39 16.6263 323.741 16.7676C324.097 16.9089 324.495 17.0228 324.938 17.1094L323.003 18.3535C322.67 18.5632 322.335 18.734 321.998 18.8662C321.665 18.9938 321.319 19.0895 320.959 19.1533C320.599 19.2126 320.214 19.2422 319.804 19.2422H318.074C317.997 19.2422 317.942 19.2878 317.91 19.3789C317.878 19.4701 317.862 19.6341 317.862 19.8711C317.862 20.1035 317.878 20.2676 317.91 20.3633C317.942 20.4544 317.997 20.5 318.074 20.5H319.605C320.362 20.5 321.062 20.4066 321.704 20.2197C322.351 20.0329 322.976 19.7412 323.577 19.3447L324.247 18.8867C324.562 19.4792 324.942 19.8962 325.389 20.1377C325.835 20.3792 326.364 20.5 326.975 20.5H327.398V19.2422H327.002C326.528 19.2422 326.154 19.1761 325.881 19.0439C325.607 18.9118 325.345 18.6725 325.095 18.3262L326.4 17.458V16.3574C325.808 16.2435 325.268 16.0908 324.78 15.8994C324.293 15.7035 323.839 15.512 323.42 15.3252C323.014 15.1383 322.636 14.9788 322.285 14.8467C321.939 14.7145 321.606 14.6484 321.287 14.6484ZM330.338 14.9561L329.155 15.2773C329.265 15.7422 329.354 16.1683 329.422 16.5557C329.495 16.9385 329.531 17.2826 329.531 17.5879C329.531 18.1211 329.395 18.5312 329.121 18.8184C328.848 19.1009 328.387 19.2422 327.74 19.2422H327.398C327.321 19.2422 327.266 19.2878 327.234 19.3789C327.202 19.4655 327.187 19.6296 327.187 19.8711C327.187 20.1081 327.202 20.2721 327.234 20.3633C327.266 20.4544 327.321 20.5 327.398 20.5H327.74C328.46 20.5 329.041 20.3838 329.483 20.1514C329.925 19.9189 330.247 19.5908 330.447 19.167C330.652 18.7432 330.755 18.2441 330.755 17.6699C330.755 17.278 330.716 16.8542 330.639 16.3984C330.561 15.9427 330.461 15.4619 330.338 14.9561ZM329.299 12.707L330.324 13.7256L331.343 12.707L330.324 11.6816L329.299 12.707ZM326.913 12.707L327.938 13.7256L328.957 12.707L327.938 11.6816L326.913 12.707ZM337.229 19.3105C336.814 19.3105 336.502 19.2057 336.292 18.9961C336.087 18.7865 335.984 18.5107 335.984 18.1689C335.984 17.7952 336.096 17.401 336.319 16.9863C336.543 16.5671 336.846 16.182 337.229 15.8311C337.62 16.1865 337.926 16.5716 338.145 16.9863C338.363 17.401 338.473 17.7952 338.473 18.1689C338.473 18.5153 338.368 18.7933 338.158 19.0029C337.953 19.208 337.643 19.3105 337.229 19.3105ZM337.229 20.5752C337.716 20.5752 338.142 20.4749 338.507 20.2744C338.876 20.0739 339.163 19.8027 339.368 19.4609C339.573 19.1146 339.676 18.7249 339.676 18.292C339.676 17.8682 339.596 17.4489 339.437 17.0342C339.282 16.6195 339.063 16.2116 338.78 15.8105C338.498 15.4095 338.167 15.0199 337.789 14.6416C337.415 14.2588 337.012 13.8896 336.579 13.5342L335.82 14.4434C335.943 14.5482 336.062 14.653 336.176 14.7578C336.29 14.8581 336.401 14.9606 336.511 15.0654C336.183 15.3844 335.891 15.724 335.636 16.084C335.381 16.4395 335.18 16.8109 335.034 17.1982C334.893 17.5811 334.822 17.9753 334.822 18.3809C334.822 18.791 334.918 19.1624 335.109 19.4951C335.305 19.8278 335.583 20.0921 335.943 20.2881C336.303 20.4795 336.732 20.5752 337.229 20.5752ZM346.628 17.9229C346.628 17.4124 346.516 16.9111 346.293 16.4189C346.07 15.9268 345.753 15.4368 345.343 14.9492C344.933 14.4616 344.45 13.9717 343.894 13.4795L343.073 14.4502C343.843 15.1338 344.422 15.7627 344.81 16.3369C345.197 16.9066 345.391 17.4102 345.391 17.8477C345.391 18.1895 345.286 18.4674 345.076 18.6816C344.871 18.8958 344.589 19.0531 344.229 19.1533C343.868 19.2536 343.458 19.3037 342.998 19.3037C342.688 19.3037 342.381 19.2832 342.075 19.2422C341.77 19.2012 341.49 19.1465 341.234 19.0781L340.947 20.2744C341.271 20.3656 341.608 20.4362 341.959 20.4863C342.314 20.5319 342.67 20.5547 343.025 20.5547C343.463 20.5547 343.894 20.5091 344.317 20.418C344.746 20.3268 345.133 20.1787 345.479 19.9736C345.83 19.7686 346.108 19.4974 346.313 19.1602C346.523 18.8229 346.628 18.4105 346.628 17.9229ZM348.371 11.0938V17.5059C348.371 18.5039 348.635 19.2536 349.164 19.7549C349.697 20.2516 350.47 20.5 351.481 20.5V19.2422C350.766 19.2422 350.278 19.1055 350.019 18.832C349.763 18.5586 349.636 18.1097 349.636 17.4854V11.0938H348.371ZM351.488 19.2422C351.411 19.2422 351.356 19.2878 351.324 19.3789C351.292 19.4655 351.276 19.6296 351.276 19.8711C351.276 20.1081 351.292 20.2721 351.324 20.3633C351.356 20.4544 351.411 20.5 351.488 20.5C352.021 20.5 352.461 20.3883 352.808 20.165C353.159 19.9417 353.457 19.6569 353.703 19.3105C354.022 19.6979 354.396 20.0055 354.824 20.2334C355.257 20.4567 355.717 20.5684 356.205 20.5684C356.925 20.5684 357.493 20.3451 357.907 19.8984C358.326 19.4473 358.536 18.8503 358.536 18.1074C358.536 17.6107 358.434 17.1344 358.229 16.6787C358.023 16.2184 357.736 15.8424 357.367 15.5508C356.998 15.2546 356.567 15.1064 356.075 15.1064C355.624 15.1064 355.253 15.2113 354.961 15.4209C354.669 15.626 354.421 15.8926 354.216 16.2207C354.015 16.5443 353.826 16.8906 353.648 17.2598C353.484 17.5924 353.311 17.9115 353.129 18.2168C352.947 18.5176 352.726 18.7637 352.466 18.9551C352.211 19.1465 351.885 19.2422 351.488 19.2422ZM354.339 18.3262L354.551 17.8682C354.688 17.5492 354.826 17.278 354.968 17.0547C355.109 16.8268 355.266 16.6536 355.439 16.5352C355.617 16.4121 355.822 16.3506 356.055 16.3506C356.305 16.3506 356.531 16.4372 356.731 16.6104C356.937 16.7835 357.098 17.0046 357.217 17.2734C357.34 17.5378 357.401 17.8158 357.401 18.1074C357.401 18.4857 357.287 18.7819 357.06 18.9961C356.832 19.2103 356.549 19.3174 356.212 19.3174C355.87 19.3174 355.544 19.2331 355.234 19.0645C354.924 18.8958 354.626 18.6497 354.339 18.3262ZM363.301 8.19531C363.146 8.49609 362.991 8.70573 362.836 8.82422C362.686 8.93815 362.517 8.99512 362.33 8.99512C362.161 8.99512 361.991 8.96549 361.817 8.90625C361.649 8.84245 361.476 8.77181 361.298 8.69434C361.125 8.61686 360.949 8.5485 360.771 8.48926C360.594 8.42546 360.416 8.39355 360.238 8.39355C359.942 8.39355 359.65 8.50293 359.363 8.72168C359.076 8.93587 358.81 9.27539 358.563 9.74023L359.09 10.0615C359.24 9.8291 359.397 9.61947 359.562 9.43262C359.73 9.24121 359.935 9.14551 360.177 9.14551C360.309 9.14551 360.446 9.17057 360.587 9.2207C360.728 9.27083 360.876 9.33236 361.031 9.40527C361.214 9.49186 361.41 9.57161 361.619 9.64453C361.829 9.71289 362.045 9.74707 362.269 9.74707C362.61 9.74707 362.907 9.64909 363.157 9.45312C363.412 9.25716 363.649 8.93359 363.868 8.48242L363.301 8.19531ZM361.838 11.0938H360.58V20.5H361.838V11.0938Z" fill="#CBCBCB"/>
<line x1="567.5" y1="16.5" x2="399.5" y2="16.5" stroke="url(#paint0_linear_1498_43300)" stroke-linecap="round" stroke-dasharray="4 4"/>
<path d="M587.617 14.0625C587.268 13.9115 586.87 13.7917 586.422 13.7031C585.979 13.6094 585.542 13.5625 585.109 13.5625C584.234 13.5625 583.477 13.7604 582.836 14.1562C582.195 14.5521 581.701 15.0885 581.352 15.7656C581.003 16.4375 580.828 17.1927 580.828 18.0312C580.828 18.7344 580.964 19.2891 581.234 19.6953C581.51 20.0964 581.919 20.3906 582.461 20.5781C583.008 20.7656 583.685 20.8828 584.492 20.9297C584.992 20.9609 585.323 21.0156 585.484 21.0938C585.651 21.1771 585.734 21.3281 585.734 21.5469C585.734 21.776 585.62 21.974 585.391 22.1406C585.161 22.3073 584.865 22.4427 584.5 22.5469C584.135 22.651 583.742 22.7266 583.32 22.7734C582.904 22.8255 582.505 22.8516 582.125 22.8516C581.396 22.8516 580.799 22.7786 580.336 22.6328C579.872 22.487 579.529 22.2292 579.305 21.8594C579.086 21.4896 578.977 20.9714 578.977 20.3047C578.977 19.7943 579.003 19.3177 579.055 18.875C579.112 18.4271 579.185 17.9323 579.273 17.3906L577.031 16.9766C576.917 17.5286 576.828 18.0755 576.766 18.6172C576.703 19.1536 576.672 19.7031 576.672 20.2656C576.672 22.0104 577.125 23.2786 578.031 24.0703C578.943 24.8672 580.299 25.2656 582.102 25.2656C582.893 25.2656 583.646 25.1901 584.359 25.0391C585.073 24.8932 585.703 24.6562 586.25 24.3281C586.802 24.0052 587.234 23.5755 587.547 23.0391C587.865 22.5078 588.023 21.8594 588.023 21.0938C588.023 20.5677 587.943 20.1458 587.781 19.8281C587.625 19.5052 587.406 19.2578 587.125 19.0859C586.849 18.9141 586.531 18.7943 586.172 18.7266C585.812 18.6536 585.432 18.6068 585.031 18.5859C584.359 18.5443 583.878 18.4688 583.586 18.3594C583.294 18.25 583.148 18.0208 583.148 17.6719C583.148 17.2969 583.24 16.9818 583.422 16.7266C583.609 16.4661 583.865 16.2708 584.188 16.1406C584.51 16.0052 584.875 15.9375 585.281 15.9375C585.542 15.9375 585.826 15.9661 586.133 16.0234C586.44 16.0755 586.693 16.1406 586.891 16.2188L587.617 14.0625ZM591.109 15.75C591.375 16.5469 591.578 17.2786 591.719 17.9453C591.859 18.612 591.93 19.1927 591.93 19.6875C591.93 20.2917 591.799 20.8151 591.539 21.2578C591.284 21.7057 590.872 22.1042 590.305 22.4531C589.737 22.8073 588.987 23.1484 588.055 23.4766L589.102 25.6406C590.336 25.1927 591.336 24.6797 592.102 24.1016C592.872 23.5286 593.438 22.8776 593.797 22.1484C594.156 21.4193 594.336 20.5964 594.336 19.6797C594.336 19.0182 594.253 18.3047 594.086 17.5391C593.919 16.7682 593.688 15.9115 593.391 14.9688L591.109 15.75ZM590.703 12.0625L592.188 13.5391L593.664 12.0625L592.188 10.5781L590.703 12.0625ZM595.859 9.64844V17.1406C595.859 18.4167 596.219 19.3802 596.938 20.0312C597.661 20.6771 598.667 21 599.953 21V18.5938C599.292 18.5938 598.846 18.4818 598.617 18.2578C598.388 18.0339 598.273 17.6458 598.273 17.0938V9.64844H595.859ZM605.266 18.5938C604.938 18.5781 604.701 18.4661 604.555 18.2578C604.409 18.0443 604.354 17.7396 604.391 17.3438L604.555 15.4688L602.148 15.2891L602 17.0156C601.948 17.5885 601.784 17.9948 601.508 18.2344C601.237 18.474 600.818 18.5938 600.25 18.5938H599.953C599.833 18.5938 599.75 18.6849 599.703 18.8672C599.651 19.0495 599.625 19.349 599.625 19.7656C599.625 20.1927 599.651 20.5052 599.703 20.7031C599.755 20.901 599.839 21 599.953 21H600.25C600.865 21 601.417 20.8724 601.906 20.6172C602.401 20.362 602.76 20.0208 602.984 19.5938C603.135 20.0573 603.393 20.4089 603.758 20.6484C604.128 20.8828 604.607 21 605.195 21C606.352 21 607.096 20.5495 607.43 19.6484C607.596 20.0807 607.875 20.4141 608.266 20.6484C608.661 20.8828 609.167 21 609.781 21C610.745 21 611.461 20.7109 611.93 20.1328C612.398 19.5547 612.633 18.6771 612.633 17.5C612.633 17.2188 612.62 16.9193 612.594 16.6016C612.568 16.2786 612.531 15.9531 612.484 15.625C612.438 15.2969 612.38 14.9792 612.312 14.6719L609.984 15.2266C610.042 15.5495 610.091 15.8594 610.133 16.1562C610.174 16.4531 610.206 16.7214 610.227 16.9609C610.247 17.1953 610.258 17.3854 610.258 17.5312C610.258 18.2396 609.958 18.5938 609.359 18.5938C609.026 18.5938 608.779 18.5026 608.617 18.3203C608.461 18.1328 608.398 17.8411 608.43 17.4453L608.531 15.8594L606.438 15.7109L606.305 17.4688C606.268 17.8646 606.164 18.1562 605.992 18.3438C605.82 18.526 605.578 18.6094 605.266 18.5938ZM616.766 18.6719C616.432 18.6719 616.182 18.5938 616.016 18.4375C615.849 18.276 615.766 18.0703 615.766 17.8203C615.766 17.5547 615.844 17.2552 616 16.9219C616.161 16.5833 616.417 16.2552 616.766 15.9375C617.12 16.2604 617.372 16.5885 617.523 16.9219C617.68 17.25 617.758 17.5495 617.758 17.8203C617.758 18.0755 617.674 18.2812 617.508 18.4375C617.341 18.5938 617.094 18.6719 616.766 18.6719ZM616.766 21.0859C617.391 21.0859 617.948 20.9531 618.438 20.6875C618.927 20.4219 619.31 20.0651 619.586 19.6172C619.867 19.1641 620.008 18.6641 620.008 18.1172C620.008 17.5234 619.891 16.9453 619.656 16.3828C619.427 15.8203 619.12 15.2812 618.734 14.7656C618.349 14.25 617.924 13.7682 617.461 13.3203C617.003 12.8672 616.547 12.4583 616.094 12.0938L614.656 13.8125C614.802 13.9375 614.943 14.0625 615.078 14.1875C615.214 14.3073 615.339 14.4219 615.453 14.5312C615.057 14.9219 614.721 15.3203 614.445 15.7266C614.174 16.1328 613.969 16.5521 613.828 16.9844C613.688 17.4115 613.617 17.8568 613.617 18.3203C613.617 18.8203 613.742 19.2812 613.992 19.7031C614.247 20.1198 614.609 20.4557 615.078 20.7109C615.547 20.9609 616.109 21.0859 616.766 21.0859ZM628.133 17.6953C628.133 16.9974 627.984 16.3307 627.688 15.6953C627.391 15.0547 626.984 14.4375 626.469 13.8438C625.953 13.25 625.367 12.6719 624.711 12.1094L623.156 13.9453C624 14.6693 624.646 15.349 625.094 15.9844C625.542 16.6146 625.766 17.1198 625.766 17.5C625.766 17.7969 625.664 18.0312 625.461 18.2031C625.258 18.3698 624.992 18.487 624.664 18.5547C624.341 18.6224 623.995 18.6562 623.625 18.6562C623.214 18.6562 622.81 18.6276 622.414 18.5703C622.023 18.513 621.703 18.4531 621.453 18.3906L620.914 20.6719C621.315 20.7865 621.758 20.8776 622.242 20.9453C622.727 21.013 623.216 21.0469 623.711 21.0469C624.258 21.0469 624.794 20.987 625.32 20.8672C625.846 20.7422 626.32 20.5469 626.742 20.2812C627.164 20.0156 627.5 19.6693 627.75 19.2422C628.005 18.8151 628.133 18.2995 628.133 17.6953ZM629.578 9.64844V17.1406C629.578 18.4167 629.938 19.3802 630.656 20.0312C631.38 20.6771 632.385 21 633.672 21V18.5938C633.01 18.5938 632.565 18.4818 632.336 18.2578C632.107 18.0339 631.992 17.6458 631.992 17.0938V9.64844H629.578ZM633.672 18.5938C633.562 18.5938 633.482 18.6745 633.43 18.8359C633.372 18.9974 633.344 19.3177 633.344 19.7969C633.344 20.276 633.372 20.5964 633.43 20.7578C633.482 20.9193 633.562 21 633.672 21C634.25 21 634.74 20.8958 635.141 20.6875C635.547 20.4792 635.904 20.1927 636.211 19.8281C636.503 20.2083 636.898 20.513 637.398 20.7422C637.904 20.9661 638.424 21.0781 638.961 21.0781C639.924 21.0781 640.672 20.7839 641.203 20.1953C641.734 19.6016 642 18.8099 642 17.8203C642 17.1641 641.867 16.5469 641.602 15.9688C641.336 15.3906 640.964 14.9219 640.484 14.5625C640.01 14.1979 639.458 14.0156 638.828 14.0156C638.255 14.0156 637.784 14.1406 637.414 14.3906C637.049 14.6406 636.742 14.9609 636.492 15.3516C636.247 15.7422 636.016 16.1536 635.797 16.5859C635.625 16.9349 635.445 17.263 635.258 17.5703C635.07 17.8724 634.852 18.1198 634.602 18.3125C634.352 18.5 634.042 18.5938 633.672 18.5938ZM637.43 17.9844L637.555 17.6875C637.69 17.3438 637.826 17.0781 637.961 16.8906C638.096 16.6979 638.232 16.5651 638.367 16.4922C638.508 16.4193 638.654 16.3828 638.805 16.3828C638.971 16.3828 639.13 16.4453 639.281 16.5703C639.438 16.6901 639.565 16.8594 639.664 17.0781C639.763 17.2917 639.812 17.5391 639.812 17.8203C639.812 18.1172 639.721 18.3359 639.539 18.4766C639.362 18.612 639.172 18.6797 638.969 18.6797C638.729 18.6797 638.474 18.6224 638.203 18.5078C637.932 18.388 637.674 18.2135 637.43 17.9844ZM646.977 6.26562C646.805 6.57812 646.646 6.79688 646.5 6.92188C646.354 7.04167 646.193 7.10156 646.016 7.10156C645.844 7.10156 645.674 7.07292 645.508 7.01562C645.341 6.95312 645.167 6.88281 644.984 6.80469C644.802 6.72135 644.617 6.64844 644.43 6.58594C644.242 6.52344 644.049 6.49219 643.852 6.49219C643.424 6.49219 643.026 6.64323 642.656 6.94531C642.292 7.2474 641.969 7.67188 641.688 8.21875L642.562 8.75C642.76 8.46354 642.94 8.23177 643.102 8.05469C643.268 7.8724 643.474 7.78125 643.719 7.78125C643.839 7.78125 643.966 7.80729 644.102 7.85938C644.242 7.90625 644.391 7.96615 644.547 8.03906C644.75 8.1276 644.971 8.21094 645.211 8.28906C645.451 8.36719 645.698 8.40625 645.953 8.40625C646.396 8.40625 646.763 8.27344 647.055 8.00781C647.352 7.73698 647.635 7.31771 647.906 6.75L646.977 6.26562ZM646 9.64844H643.594V21H646V9.64844ZM655.539 22.8438C654.643 22.8438 653.99 22.6432 653.578 22.2422C653.172 21.8411 652.969 21.3021 652.969 20.625C652.969 20.2448 653.018 19.8229 653.117 19.3594C653.221 18.8958 653.357 18.4271 653.523 17.9531L651.406 17.2031C651.151 17.8542 650.956 18.5026 650.82 19.1484C650.685 19.7891 650.617 20.388 650.617 20.9453C650.617 21.7891 650.792 22.5339 651.141 23.1797C651.495 23.8307 652.026 24.3385 652.734 24.7031C653.443 25.0677 654.333 25.25 655.406 25.25C656.474 25.25 657.404 25.0495 658.195 24.6484C658.987 24.2474 659.599 23.6615 660.031 22.8906C660.469 22.1198 660.688 21.1771 660.688 20.0625V9.64844H658.281V20.0625C658.281 20.9948 658.06 21.6901 657.617 22.1484C657.18 22.612 656.487 22.8438 655.539 22.8438ZM662.594 9.64844V17.1406C662.594 18.4167 662.953 19.3802 663.672 20.0312C664.396 20.6771 665.401 21 666.688 21V18.5938C666.026 18.5938 665.581 18.4818 665.352 18.2578C665.122 18.0339 665.008 17.6458 665.008 17.0938V9.64844H662.594ZM670.438 13.2188C669.531 13.2188 668.849 13.513 668.391 14.1016C667.938 14.6849 667.617 15.4974 667.43 16.5391L667.367 16.9375L669.242 17.2734L669.305 16.9609C669.398 16.5078 669.549 16.1693 669.758 15.9453C669.966 15.7161 670.229 15.6016 670.547 15.6016C670.776 15.6016 671.003 15.6432 671.227 15.7266C671.456 15.8047 671.706 15.901 671.977 16.0156C672.253 16.1302 672.555 16.25 672.883 16.375C673.216 16.4948 673.594 16.599 674.016 16.6875L672.281 17.7344C671.901 17.9583 671.531 18.1328 671.172 18.2578C670.818 18.3828 670.453 18.4714 670.078 18.5234C669.703 18.5703 669.292 18.5938 668.844 18.5938H666.688C666.578 18.5938 666.497 18.6745 666.445 18.8359C666.388 18.9974 666.359 19.3177 666.359 19.7969C666.359 20.2708 666.388 20.5911 666.445 20.7578C666.497 20.9193 666.578 21 666.688 21H668.383C669.326 21 670.193 20.8932 670.984 20.6797C671.781 20.4661 672.562 20.1068 673.328 19.6016L676.859 17.2422V15.3203C676.12 15.1693 675.445 14.9766 674.836 14.7422C674.232 14.5026 673.669 14.2708 673.148 14.0469C672.628 13.8177 672.146 13.6224 671.703 13.4609C671.26 13.2995 670.839 13.2188 670.438 13.2188ZM683.078 15.75C683.344 16.5469 683.547 17.2786 683.688 17.9453C683.828 18.612 683.898 19.1927 683.898 19.6875C683.898 20.2917 683.768 20.8151 683.508 21.2578C683.253 21.7057 682.841 22.1042 682.273 22.4531C681.706 22.8073 680.956 23.1484 680.023 23.4766L681.07 25.6406C682.305 25.1927 683.305 24.6797 684.07 24.1016C684.841 23.5286 685.406 22.8776 685.766 22.1484C686.125 21.4193 686.305 20.5964 686.305 19.6797C686.305 19.0182 686.221 18.3047 686.055 17.5391C685.888 16.7682 685.656 15.9115 685.359 14.9688L683.078 15.75ZM694.508 17.6953C694.508 16.9974 694.359 16.3307 694.062 15.6953C693.766 15.0547 693.359 14.4375 692.844 13.8438C692.328 13.25 691.742 12.6719 691.086 12.1094L689.531 13.9453C690.375 14.6693 691.021 15.349 691.469 15.9844C691.917 16.6146 692.141 17.1198 692.141 17.5C692.141 17.7969 692.039 18.0312 691.836 18.2031C691.633 18.3698 691.367 18.487 691.039 18.5547C690.716 18.6224 690.37 18.6562 690 18.6562C689.589 18.6562 689.185 18.6276 688.789 18.5703C688.398 18.513 688.078 18.4531 687.828 18.3906L687.289 20.6719C687.69 20.7865 688.133 20.8776 688.617 20.9453C689.102 21.013 689.591 21.0469 690.086 21.0469C690.633 21.0469 691.169 20.987 691.695 20.8672C692.221 20.7422 692.695 20.5469 693.117 20.2812C693.539 20.0156 693.875 19.6693 694.125 19.2422C694.38 18.8151 694.508 18.2995 694.508 17.6953Z" fill="#417F56"/>
<path d="M715 24.9999C714.453 24.9999 714 24.5466 714 23.9999V19.9999C714 19.4533 714.453 18.9999 715 18.9999C715.547 18.9999 716 19.4533 716 19.9999V23.9999C716 24.5466 715.547 24.9999 715 24.9999Z" fill="#417F56"/>
<path d="M722.467 30.0799H707.533C705.107 30.0799 702.893 28.2133 702.493 25.8266L700.72 15.1999C700.427 13.5466 701.24 11.4266 702.56 10.3733L711.8 2.97326C713.587 1.53326 716.4 1.54659 718.2 2.98659L727.44 10.3733C728.747 11.4266 729.547 13.5466 729.28 15.1999L727.507 25.8133C727.107 28.1733 724.84 30.0799 722.467 30.0799ZM714.987 3.90659C714.28 3.90659 713.573 4.11993 713.053 4.53326L703.813 11.9466C703.067 12.5466 702.533 13.9333 702.693 14.8799L704.467 25.4933C704.707 26.8933 706.107 28.0799 707.533 28.0799H722.467C723.893 28.0799 725.293 26.8933 725.533 25.4799L727.307 14.8666C727.453 13.9333 726.92 12.5199 726.187 11.9333L716.947 4.54659C716.413 4.11993 715.693 3.90659 714.987 3.90659Z" fill="#417F56"/>
<defs>
<linearGradient id="paint0_linear_1498_43300" x1="568" y1="16" x2="399" y2="16" gradientUnits="userSpaceOnUse">
<stop offset="0.485754" stop-color="#417F56"/>
<stop offset="0.501641" stop-color="#CBCBCB"/>
</linearGradient>
</defs>
</svg>
