<svg width="731" height="32" viewBox="0 0 731 32" fill="none" xmlns="http://www.w3.org/2000/svg">
<path d="M13.1328 21C13.5651 21 13.9583 20.8828 14.3125 20.6484C14.6667 20.4089 14.901 20.0755 15.0156 19.6484C15.1823 20.0807 15.4609 20.4141 15.8516 20.6484C16.2422 20.8828 16.7448 21 17.3594 21C18.3177 21 19.0339 20.7135 19.5078 20.1406C19.9818 19.5625 20.2188 18.6849 20.2188 17.5078C20.2188 17.1016 20.1901 16.6641 20.1328 16.1953C20.0807 15.7214 20.0026 15.2448 19.8984 14.7656L17.5625 15.3203C17.6562 15.8516 17.7266 16.3021 17.7734 16.6719C17.8203 17.0417 17.8438 17.3281 17.8438 17.5312C17.8438 18.2396 17.5443 18.5938 16.9453 18.5938C16.612 18.5938 16.3646 18.5026 16.2031 18.3203C16.0469 18.1328 15.9844 17.8411 16.0156 17.4453L16.1172 15.8594L14.0234 15.7109L13.8906 17.4688C13.8542 17.849 13.7552 18.1328 13.5938 18.3203C13.4375 18.5026 13.2135 18.5938 12.9219 18.5938C12.6094 18.5938 12.3672 18.4974 12.1953 18.3047C12.0286 18.112 11.8854 17.7812 11.7656 17.3125L11.1094 15.1406L8.75 16.0703C8.90104 16.487 9.04688 16.9245 9.1875 17.3828C9.32812 17.8411 9.44271 18.2917 9.53125 18.7344C9.625 19.1719 9.67188 19.5807 9.67188 19.9609C9.67188 20.4974 9.57292 20.9609 9.375 21.3516C9.17708 21.7474 8.84635 22.0521 8.38281 22.2656C7.91927 22.4844 7.28906 22.5938 6.49219 22.5938C5.71094 22.5938 5.08333 22.4792 4.60938 22.25C4.14062 22.026 3.80208 21.7005 3.59375 21.2734C3.38542 20.8464 3.28125 20.3281 3.28125 19.7188C3.28125 19.1615 3.35156 18.5677 3.49219 17.9375C3.63802 17.3021 3.79948 16.6927 3.97656 16.1094L1.79688 15.4531C1.61458 15.974 1.45833 16.4974 1.32812 17.0234C1.20312 17.5495 1.10677 18.0625 1.03906 18.5625C0.976562 19.0573 0.945312 19.5286 0.945312 19.9766C0.945312 21.5703 1.39583 22.8047 2.29688 23.6797C3.19792 24.5599 4.59896 25 6.5 25C7.48438 25 8.375 24.8411 9.17188 24.5234C9.96875 24.2109 10.6172 23.7292 11.1172 23.0781C11.6172 22.4271 11.9115 21.599 12 20.5938C12.1302 20.7188 12.2917 20.8177 12.4844 20.8906C12.6771 20.9635 12.8932 21 13.1328 21ZM11.9531 12.75L13.4375 14.2266L14.9141 12.75L13.4375 11.2656L11.9531 12.75ZM14.6875 12.75L16.1719 14.2266L17.6484 12.75L16.1719 11.2656L14.6875 12.75ZM13.3203 10.1719L14.8047 11.6484L16.2812 10.1719L14.8047 8.6875L13.3203 10.1719ZM22.4219 15.75C22.6875 16.5469 22.8906 17.2786 23.0312 17.9453C23.1719 18.612 23.2422 19.1927 23.2422 19.6875C23.2422 20.2917 23.112 20.8151 22.8516 21.2578C22.5964 21.7057 22.1849 22.1042 21.6172 22.4531C21.0495 22.8073 20.2995 23.1484 19.3672 23.4766L20.4141 25.6406C21.6484 25.1927 22.6484 24.6797 23.4141 24.1016C24.1849 23.5286 24.75 22.8776 25.1094 22.1484C25.4688 21.4193 25.6484 20.5964 25.6484 19.6797C25.6484 19.0182 25.5651 18.3047 25.3984 17.5391C25.2318 16.7682 25 15.9115 24.7031 14.9688L22.4219 15.75ZM27.1719 9.64844V17.1406C27.1719 18.4167 27.5312 19.3802 28.25 20.0312C28.974 20.6771 29.9792 21 31.2656 21V18.5938C30.6042 18.5938 30.1589 18.4818 29.9297 18.2578C29.7005 18.0339 29.5859 17.6458 29.5859 17.0938V9.64844H27.1719ZM33.8281 9.70312L35.3125 11.1797L36.7891 9.70312L35.3125 8.21875L33.8281 9.70312ZM31.9297 16.2188C31.9297 16.7396 32.0365 17.1875 32.25 17.5625C32.4635 17.9375 32.737 18.2526 33.0703 18.5078C32.8776 18.5391 32.6849 18.5625 32.4922 18.5781C32.3047 18.5885 32.1042 18.5938 31.8906 18.5938H31.2656C31.1562 18.5938 31.0729 18.6745 31.0156 18.8359C30.9583 18.9974 30.9297 19.3177 30.9297 19.7969C30.9297 20.276 30.9583 20.5964 31.0156 20.7578C31.0729 20.9193 31.1562 21 31.2656 21H32.1094C32.6823 21 33.2396 20.9453 33.7812 20.8359C34.3229 20.7266 34.8203 20.5703 35.2734 20.3672C35.7266 20.5703 36.2266 20.7266 36.7734 20.8359C37.3203 20.9453 37.8776 21 38.4453 21H39.3828V18.5938H38.6797C38.4766 18.5938 38.2839 18.5885 38.1016 18.5781C37.9245 18.5625 37.7474 18.5391 37.5703 18.5078C37.9089 18.2474 38.1849 17.9245 38.3984 17.5391C38.612 17.1484 38.7188 16.6953 38.7188 16.1797C38.7188 15.5234 38.5651 14.9427 38.2578 14.4375C37.9557 13.9271 37.5495 13.5286 37.0391 13.2422C36.5286 12.9505 35.9583 12.8047 35.3281 12.8047C34.6875 12.8047 34.1094 12.9531 33.5938 13.25C33.0833 13.5417 32.6771 13.9453 32.375 14.4609C32.0781 14.9714 31.9297 15.5573 31.9297 16.2188ZM35.3125 17.9688C35.0208 17.7969 34.7839 17.5703 34.6016 17.2891C34.4245 17.0026 34.3359 16.6849 34.3359 16.3359C34.3359 16.0391 34.4167 15.776 34.5781 15.5469C34.7396 15.3177 34.9896 15.2031 35.3281 15.2031C35.6615 15.2031 35.9062 15.3203 36.0625 15.5547C36.224 15.7839 36.3047 16.0443 36.3047 16.3359C36.3047 16.6901 36.2188 17.0078 36.0469 17.2891C35.8802 17.5703 35.6354 17.7969 35.3125 17.9688ZM44.7031 18.5938C44.375 18.5781 44.138 18.4661 43.9922 18.2578C43.8464 18.0443 43.7917 17.7396 43.8281 17.3438L43.9922 15.4688L41.5859 15.2891L41.4375 17.0156C41.3854 17.5885 41.2214 17.9948 40.9453 18.2344C40.6745 18.474 40.2552 18.5938 39.6875 18.5938H39.3906C39.2708 18.5938 39.1875 18.6849 39.1406 18.8672C39.0885 19.0495 39.0625 19.349 39.0625 19.7656C39.0625 20.1927 39.0885 20.5052 39.1406 20.7031C39.1927 20.901 39.276 21 39.3906 21H39.6875C40.3021 21 40.8542 20.8724 41.3438 20.6172C41.8385 20.362 42.1979 20.0208 42.4219 19.5938C42.5729 20.0573 42.8307 20.4089 43.1953 20.6484C43.5651 20.8828 44.0443 21 44.6328 21C45.7891 21 46.5339 20.5495 46.8672 19.6484C47.0339 20.0807 47.3125 20.4141 47.7031 20.6484C48.099 20.8828 48.6042 21 49.2188 21C50.1823 21 50.8984 20.7109 51.3672 20.1328C51.8359 19.5547 52.0703 18.6771 52.0703 17.5C52.0703 17.2188 52.0573 16.9193 52.0312 16.6016C52.0052 16.2786 51.9688 15.9531 51.9219 15.625C51.875 15.2969 51.8177 14.9792 51.75 14.6719L49.4219 15.2266C49.4792 15.5495 49.5286 15.8594 49.5703 16.1562C49.612 16.4531 49.6432 16.7214 49.6641 16.9609C49.6849 17.1953 49.6953 17.3854 49.6953 17.5312C49.6953 18.2396 49.3958 18.5938 48.7969 18.5938C48.4635 18.5938 48.2161 18.5026 48.0547 18.3203C47.8984 18.1328 47.8359 17.8411 47.8672 17.4453L47.9688 15.8594L45.875 15.7109L45.7422 17.4688C45.7057 17.8646 45.6016 18.1562 45.4297 18.3438C45.2578 18.526 45.0156 18.6094 44.7031 18.5938ZM68.2812 18.5938H67.9766C67.5234 18.5938 67.1719 18.5391 66.9219 18.4297C66.6719 18.3203 66.4974 18.1432 66.3984 17.8984C66.2995 17.6484 66.25 17.3151 66.25 16.8984V9.64844H63.8438V20.0625C63.8438 20.9948 63.6224 21.6901 63.1797 22.1484C62.7422 22.612 62.0495 22.8438 61.1016 22.8438C60.2057 22.8438 59.5521 22.6432 59.1406 22.2422C58.7344 21.8411 58.5312 21.3021 58.5312 20.625C58.5312 20.2448 58.5807 19.8229 58.6797 19.3594C58.7839 18.8958 58.9193 18.4271 59.0859 17.9531L56.9688 17.2031C56.7135 17.8542 56.5182 18.5026 56.3828 19.1484C56.2474 19.7891 56.1797 20.388 56.1797 20.9453C56.1797 21.7891 56.3542 22.5339 56.7031 23.1797C57.0573 23.8307 57.5885 24.3385 58.2969 24.7031C59.0052 25.0677 59.8958 25.25 60.9688 25.25C62.0208 25.25 62.9375 25.0547 63.7188 24.6641C64.5 24.2786 65.1068 23.737 65.5391 23.0391C65.9714 22.3464 66.1875 21.5391 66.1875 20.6172V20.2188C66.3698 20.4844 66.6198 20.6823 66.9375 20.8125C67.2552 20.9375 67.6016 21 67.9766 21H68.2812V18.5938ZM69.7031 23.6641L71.1875 25.1406L72.6641 23.6641L71.1875 22.1797L69.7031 23.6641ZM66.9688 23.6641L68.4531 25.1406L69.9297 23.6641L68.4531 22.1797L66.9688 23.6641ZM72.5 14.0234L70.2344 14.6406C70.3542 15.1562 70.4505 15.6198 70.5234 16.0312C70.6016 16.4375 70.6406 16.7917 70.6406 17.0938C70.6406 17.4375 70.5807 17.7214 70.4609 17.9453C70.3464 18.1641 70.151 18.3281 69.875 18.4375C69.599 18.5417 69.224 18.5938 68.75 18.5938H68.2812C68.1719 18.5938 68.0885 18.6745 68.0312 18.8359C67.974 18.9974 67.9453 19.3177 67.9453 19.7969C67.9453 20.276 67.974 20.5964 68.0312 20.7578C68.0885 20.9193 68.1719 21 68.2812 21H68.75C69.7865 21 70.6146 20.8516 71.2344 20.5547C71.8594 20.2578 72.3099 19.8385 72.5859 19.2969C72.862 18.75 73 18.112 73 17.3828C73 16.8984 72.9531 16.375 72.8594 15.8125C72.7708 15.25 72.651 14.6536 72.5 14.0234ZM78.4219 18.5703C78.2604 18.5755 78.0807 18.5807 77.8828 18.5859C77.6901 18.5911 77.5 18.5938 77.3125 18.5938C76.9531 18.5938 76.6927 18.5391 76.5312 18.4297C76.3698 18.3151 76.2891 18.125 76.2891 17.8594C76.2891 17.5885 76.3229 17.3385 76.3906 17.1094C76.4635 16.875 76.5703 16.6875 76.7109 16.5469C76.8516 16.401 77.0312 16.3281 77.25 16.3281C77.4375 16.3281 77.5964 16.3828 77.7266 16.4922C77.862 16.5964 77.974 16.7474 78.0625 16.9453C78.1562 17.1432 78.2318 17.3802 78.2891 17.6562C78.3464 17.9271 78.3906 18.2318 78.4219 18.5703ZM78.1094 21C77.8542 21.4844 77.3646 21.9323 76.6406 22.3438C75.9167 22.7604 75.0286 23.1276 73.9766 23.4453L75.0078 25.625C76.6172 25.1146 77.8828 24.4844 78.8047 23.7344C79.7266 22.9896 80.2969 22.0781 80.5156 21H81.2109V18.5938H80.6094C80.5677 17.974 80.4792 17.388 80.3438 16.8359C80.2135 16.2839 80.0208 15.7969 79.7656 15.375C79.5156 14.9479 79.1875 14.6146 78.7812 14.375C78.3802 14.1302 77.8854 14.0078 77.2969 14.0078C76.7604 14.0078 76.2969 14.1302 75.9062 14.375C75.5156 14.6198 75.1927 14.9427 74.9375 15.3438C74.6823 15.7448 74.4922 16.1849 74.3672 16.6641C74.2474 17.1432 74.1875 17.6172 74.1875 18.0859C74.1875 19.0339 74.4349 19.7578 74.9297 20.2578C75.4245 20.7526 76.1146 21 77 21C77.1823 21 77.3646 21 77.5469 21C77.7344 21 77.9219 21 78.1094 21ZM84.9688 13.2188C84.0625 13.2188 83.3802 13.513 82.9219 14.1016C82.4688 14.6849 82.1484 15.4974 81.9609 16.5391L81.8984 16.9375L83.7734 17.2734L83.8359 16.9609C83.9297 16.5078 84.0807 16.1693 84.2891 15.9453C84.4974 15.7161 84.7604 15.6016 85.0781 15.6016C85.3073 15.6016 85.5339 15.6432 85.7578 15.7266C85.987 15.8047 86.237 15.901 86.5078 16.0156C86.7839 16.1302 87.0859 16.25 87.4141 16.375C87.7474 16.4948 88.125 16.599 88.5469 16.6875L86.8125 17.7344C86.4323 17.9583 86.0625 18.1328 85.7031 18.2578C85.349 18.3828 84.9844 18.4714 84.6094 18.5234C84.2344 18.5703 83.8229 18.5938 83.375 18.5938H81.2188C81.1094 18.5938 81.0286 18.6745 80.9766 18.8359C80.9193 18.9974 80.8906 19.3177 80.8906 19.7969C80.8906 20.2708 80.9193 20.5911 80.9766 20.7578C81.0286 20.9193 81.1094 21 81.2188 21H82.9141C83.8568 21 84.724 20.8932 85.5156 20.6797C86.3125 20.4661 87.0938 20.1068 87.8594 19.6016L88.7969 18.9688C89.0729 19.7031 89.487 20.2266 90.0391 20.5391C90.5911 20.8464 91.2682 21 92.0703 21H92.2734V18.5938H92.0781C91.5833 18.5938 91.2161 18.5495 90.9766 18.4609C90.737 18.3672 90.526 18.1927 90.3438 17.9375L91.3906 17.2422V15.3203C90.651 15.1693 89.9766 14.9766 89.3672 14.7422C88.763 14.5026 88.2005 14.2708 87.6797 14.0469C87.1589 13.8177 86.6771 13.6224 86.2344 13.4609C85.7917 13.2995 85.3698 13.2188 84.9688 13.2188ZM96.0156 14.0234L93.75 14.6406C93.8698 15.1562 93.9661 15.6198 94.0391 16.0312C94.1172 16.4375 94.1562 16.7917 94.1562 17.0938C94.1562 17.6094 94.0286 17.9896 93.7734 18.2344C93.5234 18.474 93.1198 18.5938 92.5625 18.5938H92.2656C92.1562 18.5938 92.0755 18.6745 92.0234 18.8359C91.9661 18.9974 91.9375 19.3177 91.9375 19.7969C91.9375 20.276 91.9661 20.5964 92.0234 20.7578C92.0755 20.9193 92.1562 21 92.2656 21H92.5625C93.5 21 94.2578 20.8516 94.8359 20.5547C95.4193 20.2578 95.8438 19.8385 96.1094 19.2969C96.3802 18.75 96.5156 18.112 96.5156 17.3828C96.5156 16.8984 96.4688 16.375 96.375 15.8125C96.2865 15.25 96.1667 14.6536 96.0156 14.0234ZM94.0781 11.8594L95.5625 13.3359L97.0391 11.8594L95.5625 10.375L94.0781 11.8594ZM91.3438 11.8594L92.8281 13.3359L94.3047 11.8594L92.8281 10.375L91.3438 11.8594Z" fill="#417F56"/>
<path d="M116.999 30.3332C109.093 30.3332 102.666 23.9065 102.666 15.9998C102.666 8.09317 109.093 1.6665 116.999 1.6665C124.906 1.6665 131.333 8.09317 131.333 15.9998C131.333 23.9065 124.906 30.3332 116.999 30.3332ZM116.999 3.6665C110.199 3.6665 104.666 9.19984 104.666 15.9998C104.666 22.7998 110.199 28.3332 116.999 28.3332C123.799 28.3332 129.333 22.7998 129.333 15.9998C129.333 9.19984 123.799 3.6665 116.999 3.6665Z" fill="#417F56"/>
<path d="M115.106 20.7735C114.839 20.7735 114.586 20.6668 114.399 20.4801L110.626 16.7068C110.239 16.3201 110.239 15.6801 110.626 15.2935C111.013 14.9068 111.653 14.9068 112.039 15.2935L115.106 18.3601L121.959 11.5068C122.346 11.1201 122.986 11.1201 123.373 11.5068C123.759 11.8935 123.759 12.5335 123.373 12.9201L115.813 20.4801C115.626 20.6668 115.373 20.7735 115.106 20.7735Z" fill="#417F56"/>
<line x1="311.5" y1="16.5" x2="141.5" y2="16.5" stroke="#417F56" stroke-linecap="round" stroke-dasharray="4 4"/>
<path d="M403.001 17.2999C403.131 17.2999 403.261 17.2699 403.381 17.1999L412.211 12.0899C412.571 11.8799 412.691 11.4199 412.481 11.0599C412.271 10.6999 411.821 10.5799 411.451 10.7899L403.001 15.6799L394.601 10.8199C394.241 10.6099 393.781 10.7399 393.571 11.0899C393.361 11.4499 393.491 11.9099 393.841 12.1199L402.611 17.1999C402.741 17.2599 402.871 17.2999 403.001 17.2999Z" fill="#417F56"/>
<path d="M403 26.36C403.41 26.36 403.75 26.02 403.75 25.61V16.54C403.75 16.13 403.41 15.79 403 15.79C402.59 15.79 402.25 16.13 402.25 16.54V25.61C402.25 26.02 402.59 26.36 403 26.36Z" fill="#417F56"/>
<path d="M402.999 26.75C403.879 26.75 404.749 26.56 405.439 26.18L410.779 23.21C412.229 22.41 413.359 20.48 413.359 18.82V13.17C413.359 11.51 412.229 9.59002 410.779 8.78002L405.439 5.82C404.069 5.06 401.929 5.06 400.559 5.82L395.219 8.78997C393.769 9.58997 392.639 11.52 392.639 13.18V18.83C392.639 20.49 393.769 22.41 395.219 23.22L400.559 26.18C401.249 26.56 402.119 26.75 402.999 26.75ZM402.999 6.74999C403.629 6.74999 404.249 6.88 404.709 7.13L410.049 10.1C411.009 10.64 411.859 12.07 411.859 13.18V18.83C411.859 19.93 411.009 21.37 410.049 21.91L404.709 24.88C403.799 25.39 402.199 25.39 401.289 24.88L395.949 21.91C394.989 21.37 394.139 19.94 394.139 18.83V13.18C394.139 12.08 394.989 10.64 395.949 10.1L401.289 7.13C401.749 6.88 402.369 6.74999 402.999 6.74999Z" fill="#417F56"/>
<path d="M397.999 17.99C398.409 17.99 398.749 17.65 398.749 17.24V14.0201L407.869 8.76007C408.229 8.55007 408.349 8.09005 408.139 7.74005C407.929 7.38005 407.479 7.26003 407.119 7.47003L397.629 12.9501C397.399 13.0801 397.249 13.33 397.249 13.6V17.2601C397.249 17.6501 397.589 17.99 397.999 17.99Z" fill="#417F56"/>
<path d="M330.843 19.2422H330.706C330.196 19.2422 329.797 19.1647 329.51 19.0098C329.227 18.8548 329.029 18.627 328.915 18.3262C328.801 18.0254 328.744 17.6585 328.744 17.2256V11.0938H327.486V20.0967C327.486 21.0765 327.265 21.8034 326.823 22.2773C326.381 22.7559 325.691 22.9951 324.752 22.9951C323.872 22.9951 323.214 22.7946 322.776 22.3936C322.343 21.9925 322.127 21.4274 322.127 20.6982C322.127 20.3473 322.173 19.9554 322.264 19.5225C322.355 19.085 322.485 18.6406 322.653 18.1895L321.539 17.7793C321.325 18.3171 321.163 18.848 321.054 19.3721C320.949 19.8916 320.896 20.3815 320.896 20.8418C320.896 21.5345 321.04 22.1361 321.327 22.6465C321.614 23.1569 322.034 23.5511 322.585 23.8291C323.141 24.1117 323.827 24.2529 324.643 24.2529C325.504 24.2529 326.235 24.1003 326.837 23.7949C327.443 23.4941 327.906 23.0521 328.225 22.4688C328.548 21.8854 328.712 21.1745 328.717 20.3359V19.5225C328.885 19.8415 329.15 20.0853 329.51 20.2539C329.87 20.418 330.269 20.5 330.706 20.5H330.843V19.2422ZM332.477 22.9404L333.502 23.959L334.521 22.9404L333.502 21.915L332.477 22.9404ZM330.091 22.9404L331.116 23.959L332.135 22.9404L331.116 21.915L330.091 22.9404ZM334.281 14.9561L333.099 15.2773C333.208 15.7422 333.297 16.1683 333.365 16.5557C333.438 16.9385 333.475 17.2826 333.475 17.5879C333.475 17.9434 333.411 18.2441 333.283 18.4902C333.156 18.7363 332.937 18.9232 332.627 19.0508C332.317 19.1784 331.889 19.2422 331.342 19.2422H330.85C330.772 19.2422 330.717 19.2878 330.686 19.3789C330.654 19.4655 330.638 19.6296 330.638 19.8711C330.638 20.1081 330.654 20.2721 330.686 20.3633C330.717 20.4544 330.772 20.5 330.85 20.5H331.342C332.176 20.5 332.837 20.3838 333.324 20.1514C333.816 19.9189 334.167 19.5908 334.377 19.167C334.591 18.7432 334.698 18.2441 334.698 17.6699C334.698 17.278 334.66 16.8542 334.582 16.3984C334.505 15.9427 334.404 15.4619 334.281 14.9561ZM340.229 19.2285C339.992 19.2331 339.748 19.2376 339.497 19.2422C339.246 19.2422 339 19.2422 338.759 19.2422C338.326 19.2422 337.993 19.1693 337.761 19.0234C337.533 18.873 337.419 18.6064 337.419 18.2236C337.419 17.9046 337.465 17.5993 337.556 17.3076C337.647 17.016 337.788 16.7767 337.979 16.5898C338.171 16.403 338.412 16.3096 338.704 16.3096C338.978 16.3096 339.205 16.3984 339.388 16.5762C339.575 16.7493 339.725 16.9795 339.839 17.2666C339.957 17.5537 340.046 17.8682 340.105 18.21C340.165 18.5518 340.206 18.8913 340.229 19.2285ZM340.092 20.5C339.955 21.1107 339.536 21.6507 338.834 22.1201C338.137 22.5895 337.202 22.9814 336.031 23.2959L336.537 24.4512C337.959 24.0501 339.085 23.526 339.914 22.8789C340.743 22.2363 341.217 21.4434 341.336 20.5H342.074V19.2422H341.377C341.354 18.7454 341.293 18.2533 341.192 17.7656C341.092 17.2734 340.942 16.8245 340.741 16.4189C340.541 16.0133 340.274 15.6898 339.941 15.4482C339.613 15.2067 339.208 15.0859 338.725 15.0859C338.31 15.0859 337.95 15.1816 337.645 15.373C337.339 15.5599 337.086 15.8105 336.886 16.125C336.685 16.4395 336.535 16.7881 336.435 17.1709C336.339 17.5537 336.291 17.9365 336.291 18.3193C336.291 19.0667 336.501 19.6182 336.92 19.9736C337.339 20.3245 337.907 20.5 338.622 20.5C338.864 20.5 339.105 20.5 339.347 20.5C339.593 20.5 339.841 20.5 340.092 20.5ZM345.287 14.6484C344.617 14.6484 344.109 14.8672 343.763 15.3047C343.416 15.7422 343.175 16.3164 343.038 17.0273L342.99 17.2871L344.016 17.4785L344.057 17.2598C344.148 16.8451 344.291 16.5146 344.487 16.2686C344.688 16.0225 344.97 15.8994 345.335 15.8994C345.554 15.8994 345.777 15.945 346.005 16.0361C346.237 16.1227 346.493 16.2298 346.771 16.3574C347.067 16.4896 347.39 16.6263 347.741 16.7676C348.097 16.9089 348.495 17.0228 348.938 17.1094L347.003 18.3535C346.67 18.5632 346.335 18.734 345.998 18.8662C345.665 18.9938 345.319 19.0895 344.959 19.1533C344.599 19.2126 344.214 19.2422 343.804 19.2422H342.074C341.997 19.2422 341.942 19.2878 341.91 19.3789C341.878 19.4701 341.862 19.6341 341.862 19.8711C341.862 20.1035 341.878 20.2676 341.91 20.3633C341.942 20.4544 341.997 20.5 342.074 20.5H343.605C344.362 20.5 345.062 20.4066 345.704 20.2197C346.351 20.0329 346.976 19.7412 347.577 19.3447L348.247 18.8867C348.562 19.4792 348.942 19.8962 349.389 20.1377C349.835 20.3792 350.364 20.5 350.975 20.5H351.398V19.2422H351.002C350.528 19.2422 350.154 19.1761 349.881 19.0439C349.607 18.9118 349.345 18.6725 349.095 18.3262L350.4 17.458V16.3574C349.808 16.2435 349.268 16.0908 348.78 15.8994C348.293 15.7035 347.839 15.512 347.42 15.3252C347.014 15.1383 346.636 14.9788 346.285 14.8467C345.939 14.7145 345.606 14.6484 345.287 14.6484ZM354.338 14.9561L353.155 15.2773C353.265 15.7422 353.354 16.1683 353.422 16.5557C353.495 16.9385 353.531 17.2826 353.531 17.5879C353.531 18.1211 353.395 18.5312 353.121 18.8184C352.848 19.1009 352.387 19.2422 351.74 19.2422H351.398C351.321 19.2422 351.266 19.2878 351.234 19.3789C351.202 19.4655 351.187 19.6296 351.187 19.8711C351.187 20.1081 351.202 20.2721 351.234 20.3633C351.266 20.4544 351.321 20.5 351.398 20.5H351.74C352.46 20.5 353.041 20.3838 353.483 20.1514C353.925 19.9189 354.247 19.5908 354.447 19.167C354.652 18.7432 354.755 18.2441 354.755 17.6699C354.755 17.278 354.716 16.8542 354.639 16.3984C354.561 15.9427 354.461 15.4619 354.338 14.9561ZM353.299 12.707L354.324 13.7256L355.343 12.707L354.324 11.6816L353.299 12.707ZM350.913 12.707L351.938 13.7256L352.957 12.707L351.938 11.6816L350.913 12.707ZM361.229 19.3105C360.814 19.3105 360.502 19.2057 360.292 18.9961C360.087 18.7865 359.984 18.5107 359.984 18.1689C359.984 17.7952 360.096 17.401 360.319 16.9863C360.543 16.5671 360.846 16.182 361.229 15.8311C361.62 16.1865 361.926 16.5716 362.145 16.9863C362.363 17.401 362.473 17.7952 362.473 18.1689C362.473 18.5153 362.368 18.7933 362.158 19.0029C361.953 19.208 361.643 19.3105 361.229 19.3105ZM361.229 20.5752C361.716 20.5752 362.142 20.4749 362.507 20.2744C362.876 20.0739 363.163 19.8027 363.368 19.4609C363.573 19.1146 363.676 18.7249 363.676 18.292C363.676 17.8682 363.596 17.4489 363.437 17.0342C363.282 16.6195 363.063 16.2116 362.78 15.8105C362.498 15.4095 362.167 15.0199 361.789 14.6416C361.415 14.2588 361.012 13.8896 360.579 13.5342L359.82 14.4434C359.943 14.5482 360.062 14.653 360.176 14.7578C360.29 14.8581 360.401 14.9606 360.511 15.0654C360.183 15.3844 359.891 15.724 359.636 16.084C359.381 16.4395 359.18 16.8109 359.034 17.1982C358.893 17.5811 358.822 17.9753 358.822 18.3809C358.822 18.791 358.918 19.1624 359.109 19.4951C359.305 19.8278 359.583 20.0921 359.943 20.2881C360.303 20.4795 360.732 20.5752 361.229 20.5752ZM370.628 17.9229C370.628 17.4124 370.516 16.9111 370.293 16.4189C370.07 15.9268 369.753 15.4368 369.343 14.9492C368.933 14.4616 368.45 13.9717 367.894 13.4795L367.073 14.4502C367.843 15.1338 368.422 15.7627 368.81 16.3369C369.197 16.9066 369.391 17.4102 369.391 17.8477C369.391 18.1895 369.286 18.4674 369.076 18.6816C368.871 18.8958 368.589 19.0531 368.229 19.1533C367.868 19.2536 367.458 19.3037 366.998 19.3037C366.688 19.3037 366.381 19.2832 366.075 19.2422C365.77 19.2012 365.49 19.1465 365.234 19.0781L364.947 20.2744C365.271 20.3656 365.608 20.4362 365.959 20.4863C366.314 20.5319 366.67 20.5547 367.025 20.5547C367.463 20.5547 367.894 20.5091 368.317 20.418C368.746 20.3268 369.133 20.1787 369.479 19.9736C369.83 19.7686 370.108 19.4974 370.313 19.1602C370.523 18.8229 370.628 18.4105 370.628 17.9229ZM372.371 11.0938V17.5059C372.371 18.5039 372.635 19.2536 373.164 19.7549C373.697 20.2516 374.47 20.5 375.481 20.5V19.2422C374.766 19.2422 374.278 19.1055 374.019 18.832C373.763 18.5586 373.636 18.1097 373.636 17.4854V11.0938H372.371ZM375.488 19.2422C375.411 19.2422 375.356 19.2878 375.324 19.3789C375.292 19.4655 375.276 19.6296 375.276 19.8711C375.276 20.1081 375.292 20.2721 375.324 20.3633C375.356 20.4544 375.411 20.5 375.488 20.5C376.021 20.5 376.461 20.3883 376.808 20.165C377.159 19.9417 377.457 19.6569 377.703 19.3105C378.022 19.6979 378.396 20.0055 378.824 20.2334C379.257 20.4567 379.717 20.5684 380.205 20.5684C380.925 20.5684 381.493 20.3451 381.907 19.8984C382.326 19.4473 382.536 18.8503 382.536 18.1074C382.536 17.6107 382.434 17.1344 382.229 16.6787C382.023 16.2184 381.736 15.8424 381.367 15.5508C380.998 15.2546 380.567 15.1064 380.075 15.1064C379.624 15.1064 379.253 15.2113 378.961 15.4209C378.669 15.626 378.421 15.8926 378.216 16.2207C378.015 16.5443 377.826 16.8906 377.648 17.2598C377.484 17.5924 377.311 17.9115 377.129 18.2168C376.947 18.5176 376.726 18.7637 376.466 18.9551C376.211 19.1465 375.885 19.2422 375.488 19.2422ZM378.339 18.3262L378.551 17.8682C378.688 17.5492 378.826 17.278 378.968 17.0547C379.109 16.8268 379.266 16.6536 379.439 16.5352C379.617 16.4121 379.822 16.3506 380.055 16.3506C380.305 16.3506 380.531 16.4372 380.731 16.6104C380.937 16.7835 381.098 17.0046 381.217 17.2734C381.34 17.5378 381.401 17.8158 381.401 18.1074C381.401 18.4857 381.287 18.7819 381.06 18.9961C380.832 19.2103 380.549 19.3174 380.212 19.3174C379.87 19.3174 379.544 19.2331 379.234 19.0645C378.924 18.8958 378.626 18.6497 378.339 18.3262ZM387.301 8.19531C387.146 8.49609 386.991 8.70573 386.836 8.82422C386.686 8.93815 386.517 8.99512 386.33 8.99512C386.161 8.99512 385.991 8.96549 385.817 8.90625C385.649 8.84245 385.476 8.77181 385.298 8.69434C385.125 8.61686 384.949 8.5485 384.771 8.48926C384.594 8.42546 384.416 8.39355 384.238 8.39355C383.942 8.39355 383.65 8.50293 383.363 8.72168C383.076 8.93587 382.81 9.27539 382.563 9.74023L383.09 10.0615C383.24 9.8291 383.397 9.61947 383.562 9.43262C383.73 9.24121 383.935 9.14551 384.177 9.14551C384.309 9.14551 384.446 9.17057 384.587 9.2207C384.728 9.27083 384.876 9.33236 385.031 9.40527C385.214 9.49186 385.41 9.57161 385.619 9.64453C385.829 9.71289 386.045 9.74707 386.269 9.74707C386.61 9.74707 386.907 9.64909 387.157 9.45312C387.412 9.25716 387.649 8.93359 387.868 8.48242L387.301 8.19531ZM385.838 11.0938H384.58V20.5H385.838V11.0938Z" fill="#417F56"/>
<line x1="593.5" y1="16.5" x2="423.5" y2="16.5" stroke="#417F56" stroke-linecap="round" stroke-dasharray="4 4"/>
<path d="M611.856 15.3184C611.592 15.2181 611.307 15.1406 611.002 15.0859C610.697 15.0267 610.398 14.9971 610.106 14.9971C609.423 14.9971 608.821 15.1475 608.302 15.4482C607.787 15.7445 607.386 16.1501 607.099 16.665C606.812 17.18 606.668 17.7588 606.668 18.4014C606.668 18.8981 606.766 19.2969 606.962 19.5977C607.162 19.8939 607.472 20.1172 607.892 20.2676C608.315 20.4134 608.858 20.5137 609.519 20.5684C610.084 20.6185 610.466 20.6982 610.667 20.8076C610.872 20.9215 610.975 21.1107 610.975 21.375C610.975 21.6348 610.877 21.8649 610.681 22.0654C610.485 22.2705 610.218 22.4437 609.881 22.585C609.548 22.7262 609.168 22.8333 608.739 22.9062C608.315 22.9792 607.873 23.0156 607.413 23.0156C606.693 23.0156 606.105 22.9313 605.649 22.7627C605.198 22.5941 604.866 22.3161 604.651 21.9287C604.437 21.5413 604.33 21.0218 604.33 20.3701C604.33 19.9873 604.353 19.6022 604.398 19.2148C604.449 18.8229 604.515 18.3991 604.597 17.9434L603.414 17.7178C603.318 18.1872 603.245 18.6361 603.195 19.0645C603.15 19.4883 603.127 19.9053 603.127 20.3154C603.127 21.6872 603.478 22.6875 604.18 23.3164C604.886 23.9499 605.962 24.2666 607.406 24.2666C608.081 24.2666 608.707 24.2028 609.286 24.0752C609.865 23.9476 610.371 23.7539 610.804 23.4941C611.237 23.2344 611.574 22.9062 611.815 22.5098C612.057 22.1178 612.178 21.6576 612.178 21.1289C612.178 20.7871 612.123 20.5068 612.014 20.2881C611.909 20.0693 611.752 19.8962 611.542 19.7686C611.337 19.6364 611.086 19.5384 610.79 19.4746C610.494 19.4108 610.154 19.3652 609.771 19.3379C609.07 19.2786 608.58 19.1761 608.302 19.0303C608.024 18.8799 607.885 18.6133 607.885 18.2305C607.885 17.834 607.985 17.4876 608.186 17.1914C608.386 16.8906 608.66 16.6582 609.006 16.4941C609.357 16.3255 609.751 16.2412 610.188 16.2412C610.398 16.2412 610.617 16.2617 610.845 16.3027C611.077 16.3392 611.289 16.3893 611.48 16.4531L611.856 15.3184ZM615.452 16.3779C615.675 17.098 615.84 17.7337 615.944 18.2852C616.054 18.832 616.108 19.3151 616.108 19.7344C616.108 20.2995 615.994 20.7939 615.767 21.2178C615.539 21.6462 615.172 22.029 614.666 22.3662C614.165 22.708 613.497 23.0339 612.663 23.3438L613.196 24.4854C614.185 24.1162 614.985 23.7038 615.596 23.248C616.206 22.7923 616.653 22.2751 616.936 21.6963C617.223 21.1175 617.366 20.459 617.366 19.7207C617.366 19.2194 617.307 18.6702 617.188 18.0732C617.07 17.4762 616.892 16.779 616.655 15.9814L615.452 16.3779ZM614.98 13.1582L616.006 14.1768L617.024 13.1582L616.006 12.1328L614.98 13.1582ZM619.178 11.0938V17.5059C619.178 18.5039 619.442 19.2536 619.971 19.7549C620.504 20.2516 621.276 20.5 622.288 20.5V19.2422C621.573 19.2422 621.085 19.1055 620.825 18.832C620.57 18.5586 620.442 18.1097 620.442 17.4854V11.0938H619.178ZM627.039 19.2422C626.606 19.2331 626.292 19.0918 626.096 18.8184C625.9 18.5404 625.827 18.1416 625.877 17.6221L626.014 16.207L624.749 16.1045L624.64 17.2598C624.571 17.9707 624.38 18.4788 624.065 18.7842C623.751 19.0895 623.275 19.2422 622.637 19.2422H622.295C622.222 19.2422 622.17 19.29 622.138 19.3857C622.101 19.4814 622.083 19.6387 622.083 19.8574C622.083 20.0807 622.101 20.2448 622.138 20.3496C622.17 20.4499 622.222 20.5 622.295 20.5H622.637C623.229 20.5 623.749 20.3701 624.195 20.1104C624.646 19.846 624.95 19.4997 625.104 19.0713C625.205 19.5361 625.414 19.8916 625.733 20.1377C626.052 20.3792 626.476 20.5 627.005 20.5C627.998 20.5 628.63 20.0739 628.898 19.2217C629.012 19.6318 629.233 19.9486 629.562 20.1719C629.894 20.3906 630.32 20.5 630.84 20.5C631.569 20.5 632.116 20.2812 632.48 19.8438C632.845 19.4017 633.027 18.7432 633.027 17.8682C633.027 17.654 633.016 17.4147 632.993 17.1504C632.975 16.8861 632.948 16.6217 632.911 16.3574C632.875 16.0931 632.834 15.8538 632.788 15.6396L631.571 15.9336C631.612 16.1478 631.649 16.3779 631.681 16.624C631.713 16.8656 631.738 17.098 631.756 17.3213C631.774 17.5446 631.783 17.7314 631.783 17.8818C631.783 18.7887 631.407 19.2422 630.655 19.2422C630.236 19.2422 629.922 19.1214 629.712 18.8799C629.502 18.6383 629.418 18.2601 629.459 17.7451L629.548 16.5283L628.42 16.4395L628.311 17.7861C628.265 18.3011 628.137 18.6748 627.928 18.9072C627.723 19.1351 627.426 19.2467 627.039 19.2422ZM636.773 19.3105C636.359 19.3105 636.047 19.2057 635.837 18.9961C635.632 18.7865 635.529 18.5107 635.529 18.1689C635.529 17.7952 635.641 17.401 635.864 16.9863C636.088 16.5671 636.391 16.182 636.773 15.8311C637.165 16.1865 637.471 16.5716 637.689 16.9863C637.908 17.401 638.018 17.7952 638.018 18.1689C638.018 18.5153 637.913 18.7933 637.703 19.0029C637.498 19.208 637.188 19.3105 636.773 19.3105ZM636.773 20.5752C637.261 20.5752 637.687 20.4749 638.052 20.2744C638.421 20.0739 638.708 19.8027 638.913 19.4609C639.118 19.1146 639.221 18.7249 639.221 18.292C639.221 17.8682 639.141 17.4489 638.981 17.0342C638.826 16.6195 638.608 16.2116 638.325 15.8105C638.043 15.4095 637.712 15.0199 637.334 14.6416C636.96 14.2588 636.557 13.8896 636.124 13.5342L635.365 14.4434C635.488 14.5482 635.607 14.653 635.721 14.7578C635.835 14.8581 635.946 14.9606 636.056 15.0654C635.728 15.3844 635.436 15.724 635.181 16.084C634.925 16.4395 634.725 16.8109 634.579 17.1982C634.438 17.5811 634.367 17.9753 634.367 18.3809C634.367 18.791 634.463 19.1624 634.654 19.4951C634.85 19.8278 635.128 20.0921 635.488 20.2881C635.848 20.4795 636.277 20.5752 636.773 20.5752ZM646.173 17.9229C646.173 17.4124 646.061 16.9111 645.838 16.4189C645.615 15.9268 645.298 15.4368 644.888 14.9492C644.478 14.4616 643.994 13.9717 643.438 13.4795L642.618 14.4502C643.388 15.1338 643.967 15.7627 644.354 16.3369C644.742 16.9066 644.936 17.4102 644.936 17.8477C644.936 18.1895 644.831 18.4674 644.621 18.6816C644.416 18.8958 644.133 19.0531 643.773 19.1533C643.413 19.2536 643.003 19.3037 642.543 19.3037C642.233 19.3037 641.925 19.2832 641.62 19.2422C641.315 19.2012 641.035 19.1465 640.779 19.0781L640.492 20.2744C640.816 20.3656 641.153 20.4362 641.504 20.4863C641.859 20.5319 642.215 20.5547 642.57 20.5547C643.008 20.5547 643.438 20.5091 643.862 20.418C644.291 20.3268 644.678 20.1787 645.024 19.9736C645.375 19.7686 645.653 19.4974 645.858 19.1602C646.068 18.8229 646.173 18.4105 646.173 17.9229ZM647.916 11.0938V17.5059C647.916 18.5039 648.18 19.2536 648.709 19.7549C649.242 20.2516 650.015 20.5 651.026 20.5V19.2422C650.311 19.2422 649.823 19.1055 649.563 18.832C649.308 18.5586 649.181 18.1097 649.181 17.4854V11.0938H647.916ZM651.033 19.2422C650.956 19.2422 650.901 19.2878 650.869 19.3789C650.837 19.4655 650.821 19.6296 650.821 19.8711C650.821 20.1081 650.837 20.2721 650.869 20.3633C650.901 20.4544 650.956 20.5 651.033 20.5C651.566 20.5 652.006 20.3883 652.353 20.165C652.703 19.9417 653.002 19.6569 653.248 19.3105C653.567 19.6979 653.941 20.0055 654.369 20.2334C654.802 20.4567 655.262 20.5684 655.75 20.5684C656.47 20.5684 657.037 20.3451 657.452 19.8984C657.871 19.4473 658.081 18.8503 658.081 18.1074C658.081 17.6107 657.979 17.1344 657.773 16.6787C657.568 16.2184 657.281 15.8424 656.912 15.5508C656.543 15.2546 656.112 15.1064 655.62 15.1064C655.169 15.1064 654.798 15.2113 654.506 15.4209C654.214 15.626 653.966 15.8926 653.761 16.2207C653.56 16.5443 653.371 16.8906 653.193 17.2598C653.029 17.5924 652.856 17.9115 652.674 18.2168C652.492 18.5176 652.271 18.7637 652.011 18.9551C651.756 19.1465 651.43 19.2422 651.033 19.2422ZM653.884 18.3262L654.096 17.8682C654.232 17.5492 654.371 17.278 654.513 17.0547C654.654 16.8268 654.811 16.6536 654.984 16.5352C655.162 16.4121 655.367 16.3506 655.6 16.3506C655.85 16.3506 656.076 16.4372 656.276 16.6104C656.481 16.7835 656.643 17.0046 656.762 17.2734C656.885 17.5378 656.946 17.8158 656.946 18.1074C656.946 18.4857 656.832 18.7819 656.604 18.9961C656.377 19.2103 656.094 19.3174 655.757 19.3174C655.415 19.3174 655.089 19.2331 654.779 19.0645C654.469 18.8958 654.171 18.6497 653.884 18.3262ZM662.846 8.19531C662.691 8.49609 662.536 8.70573 662.381 8.82422C662.23 8.93815 662.062 8.99512 661.875 8.99512C661.706 8.99512 661.535 8.96549 661.362 8.90625C661.194 8.84245 661.021 8.77181 660.843 8.69434C660.67 8.61686 660.494 8.5485 660.316 8.48926C660.139 8.42546 659.961 8.39355 659.783 8.39355C659.487 8.39355 659.195 8.50293 658.908 8.72168C658.621 8.93587 658.354 9.27539 658.108 9.74023L658.635 10.0615C658.785 9.8291 658.942 9.61947 659.106 9.43262C659.275 9.24121 659.48 9.14551 659.722 9.14551C659.854 9.14551 659.991 9.17057 660.132 9.2207C660.273 9.27083 660.421 9.33236 660.576 9.40527C660.758 9.49186 660.954 9.57161 661.164 9.64453C661.374 9.71289 661.59 9.74707 661.813 9.74707C662.155 9.74707 662.451 9.64909 662.702 9.45312C662.957 9.25716 663.194 8.93359 663.413 8.48242L662.846 8.19531ZM661.383 11.0938H660.125V20.5H661.383V11.0938ZM669.805 22.9951C668.925 22.9951 668.267 22.7946 667.829 22.3936C667.396 21.9925 667.18 21.4274 667.18 20.6982C667.18 20.3473 667.225 19.9554 667.316 19.5225C667.408 19.085 667.537 18.6406 667.706 18.1895L666.592 17.7793C666.378 18.3171 666.216 18.848 666.106 19.3721C666.002 19.8916 665.949 20.3815 665.949 20.8418C665.949 21.5345 666.093 22.1361 666.38 22.6465C666.667 23.1569 667.086 23.5511 667.638 23.8291C668.194 24.1117 668.88 24.2529 669.695 24.2529C670.561 24.2529 671.299 24.098 671.91 23.7881C672.521 23.4827 672.988 23.0202 673.312 22.4004C673.635 21.7852 673.797 21.0173 673.797 20.0967V11.0938H672.539V20.0967C672.539 21.0765 672.318 21.8034 671.876 22.2773C671.434 22.7559 670.743 22.9951 669.805 22.9951ZM675.93 11.0938V17.5059C675.93 18.5039 676.194 19.2536 676.723 19.7549C677.256 20.2516 678.028 20.5 679.04 20.5V19.2422C678.325 19.2422 677.837 19.1055 677.577 18.832C677.322 18.5586 677.194 18.1097 677.194 17.4854V11.0938H675.93ZM682.26 14.6484C681.59 14.6484 681.082 14.8672 680.735 15.3047C680.389 15.7422 680.147 16.3164 680.011 17.0273L679.963 17.2871L680.988 17.4785L681.029 17.2598C681.12 16.8451 681.264 16.5146 681.46 16.2686C681.66 16.0225 681.943 15.8994 682.308 15.8994C682.526 15.8994 682.75 15.945 682.978 16.0361C683.21 16.1227 683.465 16.2298 683.743 16.3574C684.039 16.4896 684.363 16.6263 684.714 16.7676C685.069 16.9089 685.468 17.0228 685.91 17.1094L683.976 18.3535C683.643 18.5632 683.308 18.734 682.971 18.8662C682.638 18.9938 682.292 19.0895 681.932 19.1533C681.572 19.2126 681.187 19.2422 680.776 19.2422H679.047C678.969 19.2422 678.915 19.2878 678.883 19.3789C678.851 19.4701 678.835 19.6341 678.835 19.8711C678.835 20.1035 678.851 20.2676 678.883 20.3633C678.915 20.4544 678.969 20.5 679.047 20.5H680.578C681.335 20.5 682.034 20.4066 682.677 20.2197C683.324 20.0329 683.948 19.7412 684.55 19.3447L687.373 17.458V16.3574C686.781 16.2435 686.241 16.0908 685.753 15.8994C685.265 15.7035 684.812 15.512 684.393 15.3252C683.987 15.1383 683.609 14.9788 683.258 14.8467C682.911 14.7145 682.579 14.6484 682.26 14.6484ZM693.382 16.3779C693.605 17.098 693.769 17.7337 693.874 18.2852C693.983 18.832 694.038 19.3151 694.038 19.7344C694.038 20.2995 693.924 20.7939 693.696 21.2178C693.468 21.6462 693.102 22.029 692.596 22.3662C692.094 22.708 691.427 23.0339 690.593 23.3438L691.126 24.4854C692.115 24.1162 692.915 23.7038 693.525 23.248C694.136 22.7923 694.583 22.2751 694.865 21.6963C695.152 21.1175 695.296 20.459 695.296 19.7207C695.296 19.2194 695.237 18.6702 695.118 18.0732C695 17.4762 694.822 16.779 694.585 15.9814L693.382 16.3779ZM702.323 17.9229C702.323 17.4124 702.212 16.9111 701.988 16.4189C701.765 15.9268 701.448 15.4368 701.038 14.9492C700.628 14.4616 700.145 13.9717 699.589 13.4795L698.769 14.4502C699.539 15.1338 700.118 15.7627 700.505 16.3369C700.892 16.9066 701.086 17.4102 701.086 17.8477C701.086 18.1895 700.981 18.4674 700.771 18.6816C700.566 18.8958 700.284 19.0531 699.924 19.1533C699.564 19.2536 699.154 19.3037 698.693 19.3037C698.383 19.3037 698.076 19.2832 697.771 19.2422C697.465 19.2012 697.185 19.1465 696.93 19.0781L696.643 20.2744C696.966 20.3656 697.303 20.4362 697.654 20.4863C698.01 20.5319 698.365 20.5547 698.721 20.5547C699.158 20.5547 699.589 20.5091 700.013 20.418C700.441 20.3268 700.828 20.1787 701.175 19.9736C701.526 19.7686 701.804 19.4974 702.009 19.1602C702.218 18.8229 702.323 18.4105 702.323 17.9229Z" fill="#417F56"/>
<path d="M719.001 22.7498C718.591 22.7498 718.251 22.4098 718.251 21.9998V18.9998C718.251 18.5898 718.591 18.2498 719.001 18.2498C719.411 18.2498 719.751 18.5898 719.751 18.9998V21.9998C719.751 22.4098 719.411 22.7498 719.001 22.7498Z" fill="#417F56"/>
<path d="M724.601 26.5598H713.401C711.581 26.5598 709.921 25.1598 709.621 23.3698L708.291 15.3998C708.071 14.1598 708.681 12.5698 709.671 11.7798L716.601 6.22982C717.941 5.14982 720.051 5.15982 721.401 6.23982L728.331 11.7798C729.311 12.5698 729.911 14.1598 729.711 15.3998L728.381 23.3598C728.081 25.1298 726.381 26.5598 724.601 26.5598ZM718.991 6.92982C718.461 6.92982 717.931 7.08982 717.541 7.39982L710.611 12.9598C710.051 13.4098 709.651 14.4498 709.771 15.1598L711.101 23.1198C711.281 24.1698 712.331 25.0598 713.401 25.0598H724.601C725.671 25.0598 726.721 24.1698 726.901 23.1098L728.231 15.1498C728.341 14.4498 727.941 13.3898 727.391 12.9498L720.461 7.40982C720.061 7.08982 719.521 6.92982 718.991 6.92982Z" fill="#417F56"/>
</svg>
