<svg width="731" height="32" viewBox="0 0 731 32" fill="none" xmlns="http://www.w3.org/2000/svg">
<path d="M11.5508 20.5C11.9792 20.5 12.3529 20.3906 12.6719 20.1719C12.9954 19.9531 13.2119 19.6364 13.3213 19.2217C13.4352 19.6318 13.6562 19.9486 13.9844 20.1719C14.3125 20.3906 14.7363 20.5 15.2559 20.5C15.985 20.5 16.5319 20.2835 16.8965 19.8506C17.2656 19.4131 17.4502 18.7568 17.4502 17.8818C17.4502 17.5719 17.4274 17.2233 17.3818 16.8359C17.3408 16.4486 17.2861 16.0863 17.2178 15.749L15.9873 16.043C16.0557 16.3893 16.1081 16.7311 16.1445 17.0684C16.1855 17.4056 16.2061 17.679 16.2061 17.8887C16.2061 18.791 15.8301 19.2422 15.0781 19.2422C14.6589 19.2422 14.3444 19.1214 14.1348 18.8799C13.9251 18.6383 13.8408 18.2601 13.8818 17.7451L13.9707 16.5283L12.8428 16.4395L12.7334 17.7861C12.6878 18.292 12.5648 18.6611 12.3643 18.8936C12.1637 19.126 11.8743 19.2422 11.4961 19.2422C11.0404 19.2422 10.7031 19.1009 10.4844 18.8184C10.2702 18.5312 10.1016 18.1211 9.97852 17.5879L9.5957 16.166L8.3584 16.624C8.47689 17.0114 8.58626 17.4079 8.68652 17.8135C8.78678 18.2191 8.86654 18.6133 8.92578 18.9961C8.98958 19.3789 9.02148 19.7321 9.02148 20.0557C9.02148 20.6253 8.91895 21.1107 8.71387 21.5117C8.51335 21.9128 8.18294 22.2181 7.72266 22.4277C7.26237 22.6374 6.64258 22.7422 5.86328 22.7422C5.125 22.7422 4.51888 22.6374 4.04492 22.4277C3.57552 22.2227 3.22689 21.9014 2.99902 21.4639C2.77572 21.0309 2.66406 20.4727 2.66406 19.7891C2.66406 19.2923 2.71419 18.7705 2.81445 18.2236C2.91927 17.6768 3.0332 17.1846 3.15625 16.7471L2.01465 16.4121C1.90527 16.763 1.80501 17.1436 1.71387 17.5537C1.62728 17.9593 1.55892 18.3672 1.50879 18.7773C1.45866 19.1875 1.43359 19.5771 1.43359 19.9463C1.43359 21.2679 1.79134 22.2728 2.50684 22.9609C3.22233 23.6536 4.34798 24 5.88379 24C6.84082 24 7.6429 23.8451 8.29004 23.5352C8.94173 23.2298 9.42708 22.7627 9.74609 22.1338C10.0697 21.5094 10.2132 20.7188 10.1768 19.7617C10.3135 19.9896 10.4889 20.1696 10.7031 20.3018C10.9219 20.4339 11.2044 20.5 11.5508 20.5ZM11.0039 13.8281L12.0293 14.8467L13.0479 13.8281L12.0293 12.8027L11.0039 13.8281ZM13.3896 13.8281L14.415 14.8467L15.4336 13.8281L14.415 12.8027L13.3896 13.8281ZM12.2002 11.7021L13.2256 12.7207L14.2441 11.7021L13.2256 10.6768L12.2002 11.7021ZM19.9932 16.3779C20.2165 17.098 20.3805 17.7337 20.4854 18.2852C20.5947 18.832 20.6494 19.3151 20.6494 19.7344C20.6494 20.2995 20.5355 20.7939 20.3076 21.2178C20.0798 21.6462 19.7129 22.029 19.207 22.3662C18.7057 22.708 18.0381 23.0339 17.2041 23.3438L17.7373 24.4854C18.7262 24.1162 19.526 23.7038 20.1367 23.248C20.7474 22.7923 21.194 22.2751 21.4766 21.6963C21.7637 21.1175 21.9072 20.459 21.9072 19.7207C21.9072 19.2194 21.848 18.6702 21.7295 18.0732C21.611 17.4762 21.4333 16.779 21.1963 15.9814L19.9932 16.3779ZM23.7188 11.0938V17.5059C23.7188 18.5039 23.9831 19.2536 24.5117 19.7549C25.0449 20.2516 25.8174 20.5 26.8291 20.5V19.2422C26.1136 19.2422 25.626 19.1055 25.3662 18.832C25.111 18.5586 24.9834 18.1097 24.9834 17.4854V11.0938H23.7188ZM29.2217 11.3125L30.2471 12.3311L31.2656 11.3125L30.2471 10.2871L29.2217 11.3125ZM27.6699 16.7402C27.6699 17.2871 27.7998 17.7497 28.0596 18.1279C28.3239 18.5062 28.6497 18.8138 29.0371 19.0508C28.8047 19.1146 28.5677 19.1624 28.3262 19.1943C28.0892 19.2262 27.8408 19.2422 27.5811 19.2422H26.8359C26.7585 19.2422 26.7038 19.2878 26.6719 19.3789C26.64 19.4655 26.624 19.6296 26.624 19.8711C26.624 20.1081 26.64 20.2721 26.6719 20.3633C26.7038 20.4544 26.7585 20.5 26.8359 20.5H27.7041C28.1735 20.5 28.6133 20.4567 29.0234 20.3701C29.4382 20.2835 29.8392 20.1536 30.2266 19.9805C30.6139 20.1536 31.0127 20.2835 31.4229 20.3701C31.8376 20.4567 32.2728 20.5 32.7285 20.5H33.665V19.2422H32.8926C32.6374 19.2422 32.389 19.2262 32.1475 19.1943C31.9105 19.1624 31.6849 19.1146 31.4707 19.0508C31.8535 18.8092 32.1748 18.4971 32.4346 18.1143C32.6989 17.7314 32.8311 17.2689 32.8311 16.7266C32.8311 16.1888 32.7148 15.7217 32.4824 15.3252C32.2546 14.9287 31.9469 14.6234 31.5596 14.4092C31.1722 14.1904 30.737 14.0811 30.2539 14.0811C29.7617 14.0811 29.3197 14.1904 28.9277 14.4092C28.5404 14.6279 28.2327 14.9355 28.0049 15.332C27.7816 15.7285 27.6699 16.1979 27.6699 16.7402ZM30.2471 18.7158C29.8551 18.5199 29.5361 18.2624 29.29 17.9434C29.0485 17.6243 28.9277 17.237 28.9277 16.7812C28.9277 16.3529 29.0462 16.002 29.2832 15.7285C29.5202 15.4505 29.8438 15.3115 30.2539 15.3115C30.6549 15.3115 30.974 15.4505 31.2109 15.7285C31.4479 16.002 31.5664 16.3529 31.5664 16.7812C31.5664 17.2415 31.4456 17.6312 31.2041 17.9502C30.9671 18.2646 30.6481 18.5199 30.2471 18.7158ZM38.416 19.2422C37.9831 19.2331 37.6686 19.0918 37.4727 18.8184C37.2767 18.5404 37.2038 18.1416 37.2539 17.6221L37.3906 16.207L36.126 16.1045L36.0166 17.2598C35.9482 17.9707 35.7568 18.4788 35.4424 18.7842C35.1279 19.0895 34.6517 19.2422 34.0137 19.2422H33.6719C33.599 19.2422 33.5465 19.29 33.5146 19.3857C33.4782 19.4814 33.46 19.6387 33.46 19.8574C33.46 20.0807 33.4782 20.2448 33.5146 20.3496C33.5465 20.4499 33.599 20.5 33.6719 20.5H34.0137C34.6061 20.5 35.1257 20.3701 35.5723 20.1104C36.0234 19.846 36.3265 19.4997 36.4814 19.0713C36.5817 19.5361 36.7913 19.8916 37.1104 20.1377C37.4294 20.3792 37.8532 20.5 38.3818 20.5C39.3753 20.5 40.0065 20.0739 40.2754 19.2217C40.3893 19.6318 40.6104 19.9486 40.9385 20.1719C41.2712 20.3906 41.6973 20.5 42.2168 20.5C42.946 20.5 43.4928 20.2812 43.8574 19.8438C44.222 19.4017 44.4043 18.7432 44.4043 17.8682C44.4043 17.654 44.3929 17.4147 44.3701 17.1504C44.3519 16.8861 44.3245 16.6217 44.2881 16.3574C44.2516 16.0931 44.2106 15.8538 44.165 15.6396L42.9482 15.9336C42.9893 16.1478 43.0257 16.3779 43.0576 16.624C43.0895 16.8656 43.1146 17.098 43.1328 17.3213C43.151 17.5446 43.1602 17.7314 43.1602 17.8818C43.1602 18.7887 42.7842 19.2422 42.0322 19.2422C41.613 19.2422 41.2985 19.1214 41.0889 18.8799C40.8792 18.6383 40.7949 18.2601 40.8359 17.7451L40.9248 16.5283L39.7969 16.4395L39.6875 17.7861C39.6419 18.3011 39.5143 18.6748 39.3047 18.9072C39.0996 19.1351 38.8034 19.2467 38.416 19.2422ZM58.4248 19.2422H58.2881C57.7777 19.2422 57.3789 19.1647 57.0918 19.0098C56.8092 18.8548 56.611 18.627 56.4971 18.3262C56.3831 18.0254 56.3262 17.6585 56.3262 17.2256V11.0938H55.0684V20.0967C55.0684 21.0765 54.8473 21.8034 54.4053 22.2773C53.9632 22.7559 53.2728 22.9951 52.334 22.9951C51.4544 22.9951 50.7959 22.7946 50.3584 22.3936C49.9255 21.9925 49.709 21.4274 49.709 20.6982C49.709 20.3473 49.7546 19.9554 49.8457 19.5225C49.9368 19.085 50.0667 18.6406 50.2354 18.1895L49.1211 17.7793C48.9069 18.3171 48.7451 18.848 48.6357 19.3721C48.5309 19.8916 48.4785 20.3815 48.4785 20.8418C48.4785 21.5345 48.6221 22.1361 48.9092 22.6465C49.1963 23.1569 49.6156 23.5511 50.167 23.8291C50.723 24.1117 51.4089 24.2529 52.2246 24.2529C53.0859 24.2529 53.8174 24.1003 54.4189 23.7949C55.0251 23.4941 55.4876 23.0521 55.8066 22.4688C56.1302 21.8854 56.2943 21.1745 56.2988 20.3359V19.5225C56.4674 19.8415 56.7318 20.0853 57.0918 20.2539C57.4518 20.418 57.8506 20.5 58.2881 20.5H58.4248V19.2422ZM60.0586 22.9404L61.084 23.959L62.1025 22.9404L61.084 21.915L60.0586 22.9404ZM57.6729 22.9404L58.6982 23.959L59.7168 22.9404L58.6982 21.915L57.6729 22.9404ZM61.8633 14.9561L60.6807 15.2773C60.79 15.7422 60.8789 16.1683 60.9473 16.5557C61.0202 16.9385 61.0566 17.2826 61.0566 17.5879C61.0566 17.9434 60.9928 18.2441 60.8652 18.4902C60.7376 18.7363 60.5189 18.9232 60.209 19.0508C59.8991 19.1784 59.4707 19.2422 58.9238 19.2422H58.4316C58.3542 19.2422 58.2995 19.2878 58.2676 19.3789C58.2357 19.4655 58.2197 19.6296 58.2197 19.8711C58.2197 20.1081 58.2357 20.2721 58.2676 20.3633C58.2995 20.4544 58.3542 20.5 58.4316 20.5H58.9238C59.7578 20.5 60.4186 20.3838 60.9062 20.1514C61.3984 19.9189 61.7493 19.5908 61.959 19.167C62.1732 18.7432 62.2803 18.2441 62.2803 17.6699C62.2803 17.278 62.2415 16.8542 62.1641 16.3984C62.0866 15.9427 61.9863 15.4619 61.8633 14.9561ZM67.8105 19.2285C67.5736 19.2331 67.3298 19.2376 67.0791 19.2422C66.8285 19.2422 66.5824 19.2422 66.3408 19.2422C65.9079 19.2422 65.5752 19.1693 65.3428 19.0234C65.1149 18.873 65.001 18.6064 65.001 18.2236C65.001 17.9046 65.0465 17.5993 65.1377 17.3076C65.2288 17.016 65.3701 16.7767 65.5615 16.5898C65.7529 16.403 65.9945 16.3096 66.2861 16.3096C66.5596 16.3096 66.7874 16.3984 66.9697 16.5762C67.1566 16.7493 67.307 16.9795 67.4209 17.2666C67.5394 17.5537 67.6283 17.8682 67.6875 18.21C67.7467 18.5518 67.7878 18.8913 67.8105 19.2285ZM67.6738 20.5C67.5371 21.1107 67.1178 21.6507 66.416 22.1201C65.7188 22.5895 64.7845 22.9814 63.6133 23.2959L64.1191 24.4512C65.541 24.0501 66.6667 23.526 67.4961 22.8789C68.3255 22.2363 68.7995 21.4434 68.918 20.5H69.6562V19.2422H68.959C68.9362 18.7454 68.8747 18.2533 68.7744 17.7656C68.6742 17.2734 68.5238 16.8245 68.3232 16.4189C68.1227 16.0133 67.8561 15.6898 67.5234 15.4482C67.1953 15.2067 66.7897 15.0859 66.3066 15.0859C65.8919 15.0859 65.5319 15.1816 65.2266 15.373C64.9212 15.5599 64.6683 15.8105 64.4678 16.125C64.2673 16.4395 64.1169 16.7881 64.0166 17.1709C63.9209 17.5537 63.873 17.9365 63.873 18.3193C63.873 19.0667 64.0827 19.6182 64.502 19.9736C64.9212 20.3245 65.4886 20.5 66.2041 20.5C66.4456 20.5 66.6872 20.5 66.9287 20.5C67.1748 20.5 67.4232 20.5 67.6738 20.5ZM72.8691 14.6484C72.1992 14.6484 71.6911 14.8672 71.3447 15.3047C70.9984 15.7422 70.7568 16.3164 70.6201 17.0273L70.5723 17.2871L71.5977 17.4785L71.6387 17.2598C71.7298 16.8451 71.8734 16.5146 72.0693 16.2686C72.2699 16.0225 72.5524 15.8994 72.917 15.8994C73.1357 15.8994 73.359 15.945 73.5869 16.0361C73.8193 16.1227 74.0745 16.2298 74.3525 16.3574C74.6488 16.4896 74.9723 16.6263 75.3232 16.7676C75.6787 16.9089 76.0775 17.0228 76.5195 17.1094L74.585 18.3535C74.2523 18.5632 73.9173 18.734 73.5801 18.8662C73.2474 18.9938 72.901 19.0895 72.541 19.1533C72.181 19.2126 71.7959 19.2422 71.3857 19.2422H69.6562C69.5788 19.2422 69.5241 19.2878 69.4922 19.3789C69.4603 19.4701 69.4443 19.6341 69.4443 19.8711C69.4443 20.1035 69.4603 20.2676 69.4922 20.3633C69.5241 20.4544 69.5788 20.5 69.6562 20.5H71.1875C71.944 20.5 72.6436 20.4066 73.2861 20.2197C73.9333 20.0329 74.5576 19.7412 75.1592 19.3447L75.8291 18.8867C76.1436 19.4792 76.5241 19.8962 76.9707 20.1377C77.4173 20.3792 77.946 20.5 78.5566 20.5H78.9805V19.2422H78.584C78.11 19.2422 77.7363 19.1761 77.4629 19.0439C77.1895 18.9118 76.9274 18.6725 76.6768 18.3262L77.9824 17.458V16.3574C77.39 16.2435 76.8499 16.0908 76.3623 15.8994C75.8747 15.7035 75.4212 15.512 75.002 15.3252C74.5964 15.1383 74.2181 14.9788 73.8672 14.8467C73.5208 14.7145 73.1882 14.6484 72.8691 14.6484ZM81.9199 14.9561L80.7373 15.2773C80.8467 15.7422 80.9355 16.1683 81.0039 16.5557C81.0768 16.9385 81.1133 17.2826 81.1133 17.5879C81.1133 18.1211 80.9766 18.5312 80.7031 18.8184C80.4297 19.1009 79.9694 19.2422 79.3223 19.2422H78.9805C78.903 19.2422 78.8483 19.2878 78.8164 19.3789C78.7845 19.4655 78.7686 19.6296 78.7686 19.8711C78.7686 20.1081 78.7845 20.2721 78.8164 20.3633C78.8483 20.4544 78.903 20.5 78.9805 20.5H79.3223C80.0423 20.5 80.6234 20.3838 81.0654 20.1514C81.5075 19.9189 81.8288 19.5908 82.0293 19.167C82.2344 18.7432 82.3369 18.2441 82.3369 17.6699C82.3369 17.278 82.2982 16.8542 82.2207 16.3984C82.1432 15.9427 82.043 15.4619 81.9199 14.9561ZM80.8809 12.707L81.9062 13.7256L82.9248 12.707L81.9062 11.6816L80.8809 12.707ZM78.4951 12.707L79.5205 13.7256L80.5391 12.707L79.5205 11.6816L78.4951 12.707Z" fill="#CBCBCB"/>
<path d="M99 26.75C93.07 26.75 88.25 21.93 88.25 16C88.25 10.07 93.07 5.25 99 5.25C104.93 5.25 109.75 10.07 109.75 16C109.75 21.93 104.93 26.75 99 26.75ZM99 6.75C93.9 6.75 89.75 10.9 89.75 16C89.75 21.1 93.9 25.25 99 25.25C104.1 25.25 108.25 21.1 108.25 16C108.25 10.9 104.1 6.75 99 6.75Z" fill="#CBCBCB"/>
<path d="M97.5795 19.5801C97.3795 19.5801 97.1895 19.5001 97.0495 19.3601L94.2195 16.5301C93.9295 16.2401 93.9295 15.7601 94.2195 15.4701C94.5095 15.1801 94.9895 15.1801 95.2795 15.4701L97.5795 17.7701L102.719 12.6301C103.009 12.3401 103.489 12.3401 103.779 12.6301C104.069 12.9201 104.069 13.4001 103.779 13.6901L98.1095 19.3601C97.9695 19.5001 97.7795 19.5801 97.5795 19.5801Z" fill="#CBCBCB"/>
<line x1="273" y1="16.5" x2="119.5" y2="16.5" stroke="#CBCBCB" stroke-linecap="round" stroke-dasharray="4 4"/>
<path d="M392.5 18.75H393.5C393.91 18.75 394.25 18.41 394.25 18C394.25 17.59 393.91 17.25 393.5 17.25H392.5C391.81 17.25 391.25 16.69 391.25 16V6.75H399.5C400.68 6.75 401.76 7.38998 402.34 8.41998C402.54 8.77998 403 8.91002 403.36 8.71002C403.72 8.51002 403.85 8.05 403.65 7.69C402.81 6.19 401.22 5.25 399.5 5.25H390.5C390.09 5.25 389.75 5.59 389.75 6V16C389.75 17.52 390.98 18.75 392.5 18.75Z" fill="#CBCBCB"/>
<path d="M386.5 24.75H387.5C387.91 24.75 388.25 24.41 388.25 24C388.25 23.31 388.81 22.75 389.5 22.75C390.19 22.75 390.75 23.31 390.75 24C390.75 24.41 391.09 24.75 391.5 24.75H395.5C395.91 24.75 396.25 24.41 396.25 24C396.25 23.31 396.81 22.75 397.5 22.75C398.19 22.75 398.75 23.31 398.75 24C398.75 24.41 399.09 24.75 399.5 24.75H400.5C402.57 24.75 404.25 23.07 404.25 21C404.25 20.59 403.91 20.25 403.5 20.25C403.09 20.25 402.75 20.59 402.75 21C402.75 22.24 401.74 23.25 400.5 23.25H400.15C399.82 22.1 398.76 21.25 397.5 21.25C396.24 21.25 395.18 22.1 394.85 23.25H392.14C391.81 22.1 390.75 21.25 389.49 21.25C388.23 21.25 387.17 22.1 386.84 23.25H386.5C385.26 23.25 384.25 22.24 384.25 21V18.75H386.5C387.46 18.75 388.25 17.96 388.25 17V14C388.25 13.04 387.47 12.25 386.5 12.25L387.57 10.38C387.79 9.99 388.21 9.75 388.66 9.75H389.75V16C389.75 17.52 390.98 18.75 392.5 18.75H393.5C393.91 18.75 394.25 18.41 394.25 18C394.25 17.59 393.91 17.25 393.5 17.25H392.5C391.81 17.25 391.25 16.69 391.25 16V9C391.25 8.59 390.91 8.25 390.5 8.25H388.66C387.67 8.25 386.76 8.78001 386.27 9.64001L384.56 12.63C384.43 12.86 384.43 13.15 384.56 13.38C384.69 13.61 384.94 13.75 385.21 13.75H386.5C386.64 13.75 386.75 13.86 386.75 14V17C386.75 17.14 386.64 17.25 386.5 17.25H383.5C383.09 17.25 382.75 17.59 382.75 18V21C382.75 23.07 384.43 24.75 386.5 24.75Z" fill="#CBCBCB"/>
<path d="M397.5 26.75C399.02 26.75 400.25 25.52 400.25 24C400.25 22.48 399.02 21.25 397.5 21.25C395.98 21.25 394.75 22.48 394.75 24C394.75 25.52 395.98 26.75 397.5 26.75ZM397.5 22.75C398.19 22.75 398.75 23.31 398.75 24C398.75 24.69 398.19 25.25 397.5 25.25C396.81 25.25 396.25 24.69 396.25 24C396.25 23.31 396.81 22.75 397.5 22.75Z" fill="#CBCBCB"/>
<path d="M389.5 26.75C391.02 26.75 392.25 25.52 392.25 24C392.25 22.48 391.02 21.25 389.5 21.25C387.98 21.25 386.75 22.48 386.75 24C386.75 25.52 387.98 26.75 389.5 26.75ZM389.5 22.75C390.19 22.75 390.75 23.31 390.75 24C390.75 24.69 390.19 25.25 389.5 25.25C388.81 25.25 388.25 24.69 388.25 24C388.25 23.31 388.81 22.75 389.5 22.75Z" fill="#CBCBCB"/>
<path d="M383.5 18.75H386.5C387.46 18.75 388.25 17.96 388.25 17V14C388.25 13.04 387.46 12.25 386.5 12.25H385.21C384.94 12.25 384.69 12.39 384.56 12.63L382.85 15.63C382.79 15.74 382.75 15.87 382.75 16V18C382.75 18.41 383.09 18.75 383.5 18.75ZM386.5 13.75C386.64 13.75 386.75 13.86 386.75 14V17C386.75 17.14 386.64 17.25 386.5 17.25H384.25V16.2L385.65 13.75H386.5Z" fill="#CBCBCB"/>
<path d="M397.5 12.75H403.5C403.91 12.75 404.25 12.41 404.25 12C404.25 11.59 403.91 11.25 403.5 11.25H397.5C397.09 11.25 396.75 11.59 396.75 12C396.75 12.41 397.09 12.75 397.5 12.75Z" fill="#CBCBCB"/>
<path d="M399.5 15.75H403.5C403.91 15.75 404.25 15.41 404.25 15C404.25 14.59 403.91 14.25 403.5 14.25H399.5C399.09 14.25 398.75 14.59 398.75 15C398.75 15.41 399.09 15.75 399.5 15.75Z" fill="#CBCBCB"/>
<path d="M401.5 18.75H403.5C403.91 18.75 404.25 18.41 404.25 18C404.25 17.59 403.91 17.25 403.5 17.25H401.5C401.09 17.25 400.75 17.59 400.75 18C400.75 18.41 401.09 18.75 401.5 18.75Z" fill="#CBCBCB"/>
<path d="M282.781 15.1406C282.572 15.9199 282.467 16.6309 282.467 17.2734C282.467 18.0345 282.626 18.6543 282.945 19.1328C283.269 19.6068 283.777 19.9531 284.47 20.1719C285.167 20.3906 286.078 20.5 287.204 20.5C288.681 20.5 289.818 20.3245 290.615 19.9736C291.417 19.6227 291.862 19.1009 291.948 18.4082C292.176 18.8958 292.445 19.2946 292.755 19.6045C293.065 19.9098 293.425 20.1354 293.835 20.2812C294.245 20.4271 294.712 20.5 295.236 20.5H295.243V19.2422H295.236C294.771 19.2422 294.377 19.1807 294.054 19.0576C293.73 18.9346 293.436 18.7249 293.172 18.4287C292.912 18.1279 292.643 17.7109 292.365 17.1777C292.119 16.6901 291.85 16.2526 291.559 15.8652C291.267 15.4733 290.925 15.0928 290.533 14.7236C290.141 14.3499 289.672 13.9512 289.125 13.5273V13.459C289.822 13.0944 290.549 12.764 291.306 12.4678C292.067 12.167 292.905 11.8776 293.821 11.5996L293.541 10.376C292.529 10.6585 291.54 11.0072 290.574 11.4219C289.613 11.832 288.662 12.3083 287.724 12.8506V14.0127C288.804 14.7464 289.626 15.4323 290.191 16.0703C290.761 16.7038 291.046 17.262 291.046 17.7451C291.046 18.2464 290.727 18.6224 290.089 18.873C289.455 19.1191 288.494 19.2422 287.204 19.2422C286.32 19.2422 285.62 19.1784 285.105 19.0508C284.59 18.9232 284.221 18.709 283.998 18.4082C283.779 18.1074 283.67 17.7041 283.67 17.1982C283.67 16.7015 283.759 16.1068 283.937 15.4141L282.781 15.1406ZM298.757 17.1777V16.1592H297.499V17.1777C297.499 17.638 297.451 18.0208 297.355 18.3262C297.26 18.6315 297.075 18.8617 296.802 19.0166C296.528 19.167 296.123 19.2422 295.585 19.2422H295.25C295.173 19.2422 295.118 19.2878 295.086 19.3789C295.054 19.4655 295.038 19.6296 295.038 19.8711C295.038 20.1081 295.054 20.2721 295.086 20.3633C295.118 20.4544 295.173 20.5 295.25 20.5H295.585C295.981 20.5 296.355 20.443 296.706 20.3291C297.057 20.2152 297.358 20.0488 297.608 19.8301C297.859 19.6113 298.03 19.3447 298.121 19.0303C298.253 19.4997 298.538 19.862 298.976 20.1172C299.413 20.3724 299.921 20.5 300.5 20.5H300.992V19.2422H300.521C300.024 19.2422 299.648 19.167 299.393 19.0166C299.142 18.8662 298.973 18.6383 298.887 18.333C298.8 18.0231 298.757 17.638 298.757 17.1777ZM296.104 22.9404L297.13 23.959L298.148 22.9404L297.13 21.915L296.104 22.9404ZM293.719 22.9404L294.744 23.959L295.763 22.9404L294.744 21.915L293.719 22.9404ZM299.741 22.9336L300.767 23.9521L301.785 22.9336L300.767 21.9082L299.741 22.9336ZM302.127 22.9336L303.152 23.9521L304.171 22.9336L303.152 21.9082L302.127 22.9336ZM300.944 25.0596L301.97 26.0781L302.988 25.0596L301.97 24.0342L300.944 25.0596ZM303.932 14.9561L302.749 15.2773C302.858 15.7422 302.947 16.1683 303.016 16.5557C303.089 16.9385 303.125 17.2826 303.125 17.5879C303.125 18.1211 302.988 18.5312 302.715 18.8184C302.441 19.1009 301.981 19.2422 301.334 19.2422H300.992C300.915 19.2422 300.86 19.2878 300.828 19.3789C300.796 19.4655 300.78 19.6296 300.78 19.8711C300.78 20.1081 300.796 20.2721 300.828 20.3633C300.86 20.4544 300.915 20.5 300.992 20.5H301.334C302.054 20.5 302.635 20.3838 303.077 20.1514C303.519 19.9189 303.84 19.5908 304.041 19.167C304.246 18.7432 304.349 18.2441 304.349 17.6699C304.349 17.278 304.31 16.8542 304.232 16.3984C304.155 15.9427 304.055 15.4619 303.932 14.9561ZM311.93 19.2422C312.404 18.5085 312.846 17.9388 313.256 17.5332C313.671 17.123 314.053 16.8337 314.404 16.665C314.755 16.4964 315.072 16.4121 315.354 16.4121C315.769 16.4121 316.095 16.5374 316.332 16.7881C316.574 17.0342 316.694 17.3532 316.694 17.7451C316.694 18.0596 316.621 18.3148 316.476 18.5107C316.33 18.7067 316.127 18.8571 315.867 18.9619C315.612 19.0667 315.32 19.1396 314.992 19.1807C314.664 19.2217 314.318 19.2422 313.953 19.2422H311.93ZM310.46 19.2422H308.416V20.5H313.714C314.425 20.5 315.086 20.4408 315.696 20.3223C316.312 20.1992 316.815 19.9736 317.207 19.6455C317.439 19.8962 317.715 20.1012 318.034 20.2607C318.358 20.4202 318.775 20.5 319.285 20.5H319.292V19.2422H319.285C318.952 19.2422 318.665 19.2035 318.424 19.126C318.182 19.0439 317.975 18.93 317.802 18.7842C317.884 18.6338 317.948 18.4697 317.993 18.292C318.039 18.1143 318.062 17.9229 318.062 17.7178C318.062 17.2438 317.961 16.8154 317.761 16.4326C317.56 16.0498 317.273 15.7445 316.899 15.5166C316.526 15.2887 316.077 15.1748 315.553 15.1748C314.942 15.1748 314.331 15.3753 313.721 15.7764C313.115 16.1729 312.522 16.763 311.943 17.5469C311.989 17.2552 312.019 16.9658 312.032 16.6787C312.05 16.387 312.06 16.0863 312.06 15.7764V11.0938H310.809V18.709C310.754 18.7956 310.697 18.8822 310.638 18.9688C310.578 19.0553 310.519 19.1465 310.46 19.2422ZM324.043 19.2422C323.61 19.2331 323.296 19.0918 323.1 18.8184C322.904 18.5404 322.831 18.1416 322.881 17.6221L323.018 16.207L321.753 16.1045L321.644 17.2598C321.575 17.9707 321.384 18.4788 321.069 18.7842C320.755 19.0895 320.279 19.2422 319.641 19.2422H319.299C319.226 19.2422 319.174 19.29 319.142 19.3857C319.105 19.4814 319.087 19.6387 319.087 19.8574C319.087 20.0807 319.105 20.2448 319.142 20.3496C319.174 20.4499 319.226 20.5 319.299 20.5H319.641C320.233 20.5 320.753 20.3701 321.199 20.1104C321.65 19.846 321.953 19.4997 322.108 19.0713C322.209 19.5361 322.418 19.8916 322.737 20.1377C323.056 20.3792 323.48 20.5 324.009 20.5C325.002 20.5 325.633 20.0739 325.902 19.2217C326.016 19.6318 326.237 19.9486 326.565 20.1719C326.898 20.3906 327.324 20.5 327.844 20.5C328.573 20.5 329.12 20.2812 329.484 19.8438C329.849 19.4017 330.031 18.7432 330.031 17.8682C330.031 17.654 330.02 17.4147 329.997 17.1504C329.979 16.8861 329.951 16.6217 329.915 16.3574C329.879 16.0931 329.838 15.8538 329.792 15.6396L328.575 15.9336C328.616 16.1478 328.653 16.3779 328.685 16.624C328.716 16.8656 328.742 17.098 328.76 17.3213C328.778 17.5446 328.787 17.7314 328.787 17.8818C328.787 18.7887 328.411 19.2422 327.659 19.2422C327.24 19.2422 326.925 19.1214 326.716 18.8799C326.506 18.6383 326.422 18.2601 326.463 17.7451L326.552 16.5283L325.424 16.4395L325.314 17.7861C325.269 18.3011 325.141 18.6748 324.932 18.9072C324.727 19.1351 324.43 19.2467 324.043 19.2422ZM335.568 19.2285C335.331 19.2331 335.088 19.2376 334.837 19.2422C334.586 19.2422 334.34 19.2422 334.099 19.2422C333.666 19.2422 333.333 19.1693 333.101 19.0234C332.873 18.873 332.759 18.6064 332.759 18.2236C332.759 17.9046 332.804 17.5993 332.896 17.3076C332.987 17.016 333.128 16.7767 333.319 16.5898C333.511 16.403 333.752 16.3096 334.044 16.3096C334.317 16.3096 334.545 16.3984 334.728 16.5762C334.914 16.7493 335.065 16.9795 335.179 17.2666C335.297 17.5537 335.386 17.8682 335.445 18.21C335.505 18.5518 335.546 18.8913 335.568 19.2285ZM335.432 20.5C335.295 21.1107 334.876 21.6507 334.174 22.1201C333.477 22.5895 332.542 22.9814 331.371 23.2959L331.877 24.4512C333.299 24.0501 334.424 23.526 335.254 22.8789C336.083 22.2363 336.557 21.4434 336.676 20.5H337.414V19.2422H336.717C336.694 18.7454 336.632 18.2533 336.532 17.7656C336.432 17.2734 336.282 16.8245 336.081 16.4189C335.881 16.0133 335.614 15.6898 335.281 15.4482C334.953 15.2067 334.548 15.0859 334.064 15.0859C333.65 15.0859 333.29 15.1816 332.984 15.373C332.679 15.5599 332.426 15.8105 332.226 16.125C332.025 16.4395 331.875 16.7881 331.774 17.1709C331.679 17.5537 331.631 17.9365 331.631 18.3193C331.631 19.0667 331.84 19.6182 332.26 19.9736C332.679 20.3245 333.246 20.5 333.962 20.5C334.203 20.5 334.445 20.5 334.687 20.5C334.933 20.5 335.181 20.5 335.432 20.5ZM340.354 14.9561L339.171 15.2773C339.28 15.7422 339.369 16.1683 339.438 16.5557C339.51 16.9385 339.547 17.2826 339.547 17.5879C339.547 18.1211 339.41 18.5312 339.137 18.8184C338.863 19.1009 338.403 19.2422 337.756 19.2422H337.414C337.337 19.2422 337.282 19.2878 337.25 19.3789C337.218 19.4655 337.202 19.6296 337.202 19.8711C337.202 20.1081 337.218 20.2721 337.25 20.3633C337.282 20.4544 337.337 20.5 337.414 20.5H337.756C338.476 20.5 339.057 20.3838 339.499 20.1514C339.941 19.9189 340.262 19.5908 340.463 19.167C340.668 18.7432 340.771 18.2441 340.771 17.6699C340.771 17.278 340.732 16.8542 340.654 16.3984C340.577 15.9427 340.477 15.4619 340.354 14.9561ZM339.314 12.707L340.34 13.7256L341.358 12.707L340.34 11.6816L339.314 12.707ZM336.929 12.707L337.954 13.7256L338.973 12.707L337.954 11.6816L336.929 12.707ZM348.693 22.9951C347.814 22.9951 347.155 22.7946 346.718 22.3936C346.285 21.9925 346.068 21.4274 346.068 20.6982C346.068 20.3473 346.114 19.9554 346.205 19.5225C346.296 19.085 346.426 18.6406 346.595 18.1895L345.48 17.7793C345.266 18.3171 345.104 18.848 344.995 19.3721C344.89 19.8916 344.838 20.3815 344.838 20.8418C344.838 21.5345 344.981 22.1361 345.269 22.6465C345.556 23.1569 345.975 23.5511 346.526 23.8291C347.082 24.1117 347.768 24.2529 348.584 24.2529C349.45 24.2529 350.188 24.098 350.799 23.7881C351.41 23.4827 351.877 23.0202 352.2 22.4004C352.524 21.7852 352.686 21.0173 352.686 20.0967V11.0938H351.428V20.0967C351.428 21.0765 351.207 21.8034 350.765 22.2773C350.323 22.7559 349.632 22.9951 348.693 22.9951ZM354.818 11.0938V17.5059C354.818 18.5039 355.083 19.2536 355.611 19.7549C356.145 20.2516 356.917 20.5 357.929 20.5V19.2422C357.213 19.2422 356.726 19.1055 356.466 18.832C356.211 18.5586 356.083 18.1097 356.083 17.4854V11.0938H354.818ZM362.68 19.2422C362.247 19.2331 361.932 19.0918 361.736 18.8184C361.54 18.5404 361.467 18.1416 361.518 17.6221L361.654 16.207L360.39 16.1045L360.28 17.2598C360.212 17.9707 360.021 18.4788 359.706 18.7842C359.392 19.0895 358.915 19.2422 358.277 19.2422H357.936C357.863 19.2422 357.81 19.29 357.778 19.3857C357.742 19.4814 357.724 19.6387 357.724 19.8574C357.724 20.0807 357.742 20.2448 357.778 20.3496C357.81 20.4499 357.863 20.5 357.936 20.5H358.277C358.87 20.5 359.389 20.3701 359.836 20.1104C360.287 19.846 360.59 19.4997 360.745 19.0713C360.845 19.5361 361.055 19.8916 361.374 20.1377C361.693 20.3792 362.117 20.5 362.646 20.5C363.639 20.5 364.27 20.0739 364.539 19.2217C364.653 19.6318 364.874 19.9486 365.202 20.1719C365.535 20.3906 365.961 20.5 366.48 20.5C367.21 20.5 367.757 20.2812 368.121 19.8438C368.486 19.4017 368.668 18.7432 368.668 17.8682C368.668 17.654 368.657 17.4147 368.634 17.1504C368.616 16.8861 368.588 16.6217 368.552 16.3574C368.515 16.0931 368.474 15.8538 368.429 15.6396L367.212 15.9336C367.253 16.1478 367.289 16.3779 367.321 16.624C367.353 16.8656 367.378 17.098 367.396 17.3213C367.415 17.5446 367.424 17.7314 367.424 17.8818C367.424 18.7887 367.048 19.2422 366.296 19.2422C365.877 19.2422 365.562 19.1214 365.353 18.8799C365.143 18.6383 365.059 18.2601 365.1 17.7451L365.188 16.5283L364.061 16.4395L363.951 17.7861C363.906 18.3011 363.778 18.6748 363.568 18.9072C363.363 19.1351 363.067 19.2467 362.68 19.2422ZM371.259 16.3779C371.482 17.098 371.646 17.7337 371.751 18.2852C371.86 18.832 371.915 19.3151 371.915 19.7344C371.915 20.2995 371.801 20.7939 371.573 21.2178C371.345 21.6462 370.979 22.029 370.473 22.3662C369.971 22.708 369.304 23.0339 368.47 23.3438L369.003 24.4854C369.992 24.1162 370.792 23.7038 371.402 23.248C372.013 22.7923 372.46 22.2751 372.742 21.6963C373.029 21.1175 373.173 20.459 373.173 19.7207C373.173 19.2194 373.114 18.6702 372.995 18.0732C372.877 17.4762 372.699 16.779 372.462 15.9814L371.259 16.3779ZM376.338 20.5V11.0938H375.08V20.5H376.338Z" fill="#CBCBCB"/>
<line x1="567.5" y1="16.5" x2="414" y2="16.5" stroke="url(#paint0_linear_2092_35939)" stroke-linecap="round" stroke-dasharray="4 4"/>
<path d="M587.617 14.0625C587.268 13.9115 586.87 13.7917 586.422 13.7031C585.979 13.6094 585.542 13.5625 585.109 13.5625C584.234 13.5625 583.477 13.7604 582.836 14.1562C582.195 14.5521 581.701 15.0885 581.352 15.7656C581.003 16.4375 580.828 17.1927 580.828 18.0312C580.828 18.7344 580.964 19.2891 581.234 19.6953C581.51 20.0964 581.919 20.3906 582.461 20.5781C583.008 20.7656 583.685 20.8828 584.492 20.9297C584.992 20.9609 585.323 21.0156 585.484 21.0938C585.651 21.1771 585.734 21.3281 585.734 21.5469C585.734 21.776 585.62 21.974 585.391 22.1406C585.161 22.3073 584.865 22.4427 584.5 22.5469C584.135 22.651 583.742 22.7266 583.32 22.7734C582.904 22.8255 582.505 22.8516 582.125 22.8516C581.396 22.8516 580.799 22.7786 580.336 22.6328C579.872 22.487 579.529 22.2292 579.305 21.8594C579.086 21.4896 578.977 20.9714 578.977 20.3047C578.977 19.7943 579.003 19.3177 579.055 18.875C579.112 18.4271 579.185 17.9323 579.273 17.3906L577.031 16.9766C576.917 17.5286 576.828 18.0755 576.766 18.6172C576.703 19.1536 576.672 19.7031 576.672 20.2656C576.672 22.0104 577.125 23.2786 578.031 24.0703C578.943 24.8672 580.299 25.2656 582.102 25.2656C582.893 25.2656 583.646 25.1901 584.359 25.0391C585.073 24.8932 585.703 24.6562 586.25 24.3281C586.802 24.0052 587.234 23.5755 587.547 23.0391C587.865 22.5078 588.023 21.8594 588.023 21.0938C588.023 20.5677 587.943 20.1458 587.781 19.8281C587.625 19.5052 587.406 19.2578 587.125 19.0859C586.849 18.9141 586.531 18.7943 586.172 18.7266C585.812 18.6536 585.432 18.6068 585.031 18.5859C584.359 18.5443 583.878 18.4688 583.586 18.3594C583.294 18.25 583.148 18.0208 583.148 17.6719C583.148 17.2969 583.24 16.9818 583.422 16.7266C583.609 16.4661 583.865 16.2708 584.188 16.1406C584.51 16.0052 584.875 15.9375 585.281 15.9375C585.542 15.9375 585.826 15.9661 586.133 16.0234C586.44 16.0755 586.693 16.1406 586.891 16.2188L587.617 14.0625ZM591.109 15.75C591.375 16.5469 591.578 17.2786 591.719 17.9453C591.859 18.612 591.93 19.1927 591.93 19.6875C591.93 20.2917 591.799 20.8151 591.539 21.2578C591.284 21.7057 590.872 22.1042 590.305 22.4531C589.737 22.8073 588.987 23.1484 588.055 23.4766L589.102 25.6406C590.336 25.1927 591.336 24.6797 592.102 24.1016C592.872 23.5286 593.438 22.8776 593.797 22.1484C594.156 21.4193 594.336 20.5964 594.336 19.6797C594.336 19.0182 594.253 18.3047 594.086 17.5391C593.919 16.7682 593.688 15.9115 593.391 14.9688L591.109 15.75ZM590.703 12.0625L592.188 13.5391L593.664 12.0625L592.188 10.5781L590.703 12.0625ZM595.859 9.64844V17.1406C595.859 18.4167 596.219 19.3802 596.938 20.0312C597.661 20.6771 598.667 21 599.953 21V18.5938C599.292 18.5938 598.846 18.4818 598.617 18.2578C598.388 18.0339 598.273 17.6458 598.273 17.0938V9.64844H595.859ZM605.266 18.5938C604.938 18.5781 604.701 18.4661 604.555 18.2578C604.409 18.0443 604.354 17.7396 604.391 17.3438L604.555 15.4688L602.148 15.2891L602 17.0156C601.948 17.5885 601.784 17.9948 601.508 18.2344C601.237 18.474 600.818 18.5938 600.25 18.5938H599.953C599.833 18.5938 599.75 18.6849 599.703 18.8672C599.651 19.0495 599.625 19.349 599.625 19.7656C599.625 20.1927 599.651 20.5052 599.703 20.7031C599.755 20.901 599.839 21 599.953 21H600.25C600.865 21 601.417 20.8724 601.906 20.6172C602.401 20.362 602.76 20.0208 602.984 19.5938C603.135 20.0573 603.393 20.4089 603.758 20.6484C604.128 20.8828 604.607 21 605.195 21C606.352 21 607.096 20.5495 607.43 19.6484C607.596 20.0807 607.875 20.4141 608.266 20.6484C608.661 20.8828 609.167 21 609.781 21C610.745 21 611.461 20.7109 611.93 20.1328C612.398 19.5547 612.633 18.6771 612.633 17.5C612.633 17.2188 612.62 16.9193 612.594 16.6016C612.568 16.2786 612.531 15.9531 612.484 15.625C612.438 15.2969 612.38 14.9792 612.312 14.6719L609.984 15.2266C610.042 15.5495 610.091 15.8594 610.133 16.1562C610.174 16.4531 610.206 16.7214 610.227 16.9609C610.247 17.1953 610.258 17.3854 610.258 17.5312C610.258 18.2396 609.958 18.5938 609.359 18.5938C609.026 18.5938 608.779 18.5026 608.617 18.3203C608.461 18.1328 608.398 17.8411 608.43 17.4453L608.531 15.8594L606.438 15.7109L606.305 17.4688C606.268 17.8646 606.164 18.1562 605.992 18.3438C605.82 18.526 605.578 18.6094 605.266 18.5938ZM616.766 18.6719C616.432 18.6719 616.182 18.5938 616.016 18.4375C615.849 18.276 615.766 18.0703 615.766 17.8203C615.766 17.5547 615.844 17.2552 616 16.9219C616.161 16.5833 616.417 16.2552 616.766 15.9375C617.12 16.2604 617.372 16.5885 617.523 16.9219C617.68 17.25 617.758 17.5495 617.758 17.8203C617.758 18.0755 617.674 18.2812 617.508 18.4375C617.341 18.5938 617.094 18.6719 616.766 18.6719ZM616.766 21.0859C617.391 21.0859 617.948 20.9531 618.438 20.6875C618.927 20.4219 619.31 20.0651 619.586 19.6172C619.867 19.1641 620.008 18.6641 620.008 18.1172C620.008 17.5234 619.891 16.9453 619.656 16.3828C619.427 15.8203 619.12 15.2812 618.734 14.7656C618.349 14.25 617.924 13.7682 617.461 13.3203C617.003 12.8672 616.547 12.4583 616.094 12.0938L614.656 13.8125C614.802 13.9375 614.943 14.0625 615.078 14.1875C615.214 14.3073 615.339 14.4219 615.453 14.5312C615.057 14.9219 614.721 15.3203 614.445 15.7266C614.174 16.1328 613.969 16.5521 613.828 16.9844C613.688 17.4115 613.617 17.8568 613.617 18.3203C613.617 18.8203 613.742 19.2812 613.992 19.7031C614.247 20.1198 614.609 20.4557 615.078 20.7109C615.547 20.9609 616.109 21.0859 616.766 21.0859ZM628.133 17.6953C628.133 16.9974 627.984 16.3307 627.688 15.6953C627.391 15.0547 626.984 14.4375 626.469 13.8438C625.953 13.25 625.367 12.6719 624.711 12.1094L623.156 13.9453C624 14.6693 624.646 15.349 625.094 15.9844C625.542 16.6146 625.766 17.1198 625.766 17.5C625.766 17.7969 625.664 18.0312 625.461 18.2031C625.258 18.3698 624.992 18.487 624.664 18.5547C624.341 18.6224 623.995 18.6562 623.625 18.6562C623.214 18.6562 622.81 18.6276 622.414 18.5703C622.023 18.513 621.703 18.4531 621.453 18.3906L620.914 20.6719C621.315 20.7865 621.758 20.8776 622.242 20.9453C622.727 21.013 623.216 21.0469 623.711 21.0469C624.258 21.0469 624.794 20.987 625.32 20.8672C625.846 20.7422 626.32 20.5469 626.742 20.2812C627.164 20.0156 627.5 19.6693 627.75 19.2422C628.005 18.8151 628.133 18.2995 628.133 17.6953ZM629.578 9.64844V17.1406C629.578 18.4167 629.938 19.3802 630.656 20.0312C631.38 20.6771 632.385 21 633.672 21V18.5938C633.01 18.5938 632.565 18.4818 632.336 18.2578C632.107 18.0339 631.992 17.6458 631.992 17.0938V9.64844H629.578ZM633.672 18.5938C633.562 18.5938 633.482 18.6745 633.43 18.8359C633.372 18.9974 633.344 19.3177 633.344 19.7969C633.344 20.276 633.372 20.5964 633.43 20.7578C633.482 20.9193 633.562 21 633.672 21C634.25 21 634.74 20.8958 635.141 20.6875C635.547 20.4792 635.904 20.1927 636.211 19.8281C636.503 20.2083 636.898 20.513 637.398 20.7422C637.904 20.9661 638.424 21.0781 638.961 21.0781C639.924 21.0781 640.672 20.7839 641.203 20.1953C641.734 19.6016 642 18.8099 642 17.8203C642 17.1641 641.867 16.5469 641.602 15.9688C641.336 15.3906 640.964 14.9219 640.484 14.5625C640.01 14.1979 639.458 14.0156 638.828 14.0156C638.255 14.0156 637.784 14.1406 637.414 14.3906C637.049 14.6406 636.742 14.9609 636.492 15.3516C636.247 15.7422 636.016 16.1536 635.797 16.5859C635.625 16.9349 635.445 17.263 635.258 17.5703C635.07 17.8724 634.852 18.1198 634.602 18.3125C634.352 18.5 634.042 18.5938 633.672 18.5938ZM637.43 17.9844L637.555 17.6875C637.69 17.3438 637.826 17.0781 637.961 16.8906C638.096 16.6979 638.232 16.5651 638.367 16.4922C638.508 16.4193 638.654 16.3828 638.805 16.3828C638.971 16.3828 639.13 16.4453 639.281 16.5703C639.438 16.6901 639.565 16.8594 639.664 17.0781C639.763 17.2917 639.812 17.5391 639.812 17.8203C639.812 18.1172 639.721 18.3359 639.539 18.4766C639.362 18.612 639.172 18.6797 638.969 18.6797C638.729 18.6797 638.474 18.6224 638.203 18.5078C637.932 18.388 637.674 18.2135 637.43 17.9844ZM646.977 6.26562C646.805 6.57812 646.646 6.79688 646.5 6.92188C646.354 7.04167 646.193 7.10156 646.016 7.10156C645.844 7.10156 645.674 7.07292 645.508 7.01562C645.341 6.95312 645.167 6.88281 644.984 6.80469C644.802 6.72135 644.617 6.64844 644.43 6.58594C644.242 6.52344 644.049 6.49219 643.852 6.49219C643.424 6.49219 643.026 6.64323 642.656 6.94531C642.292 7.2474 641.969 7.67188 641.688 8.21875L642.562 8.75C642.76 8.46354 642.94 8.23177 643.102 8.05469C643.268 7.8724 643.474 7.78125 643.719 7.78125C643.839 7.78125 643.966 7.80729 644.102 7.85938C644.242 7.90625 644.391 7.96615 644.547 8.03906C644.75 8.1276 644.971 8.21094 645.211 8.28906C645.451 8.36719 645.698 8.40625 645.953 8.40625C646.396 8.40625 646.763 8.27344 647.055 8.00781C647.352 7.73698 647.635 7.31771 647.906 6.75L646.977 6.26562ZM646 9.64844H643.594V21H646V9.64844ZM655.539 22.8438C654.643 22.8438 653.99 22.6432 653.578 22.2422C653.172 21.8411 652.969 21.3021 652.969 20.625C652.969 20.2448 653.018 19.8229 653.117 19.3594C653.221 18.8958 653.357 18.4271 653.523 17.9531L651.406 17.2031C651.151 17.8542 650.956 18.5026 650.82 19.1484C650.685 19.7891 650.617 20.388 650.617 20.9453C650.617 21.7891 650.792 22.5339 651.141 23.1797C651.495 23.8307 652.026 24.3385 652.734 24.7031C653.443 25.0677 654.333 25.25 655.406 25.25C656.474 25.25 657.404 25.0495 658.195 24.6484C658.987 24.2474 659.599 23.6615 660.031 22.8906C660.469 22.1198 660.688 21.1771 660.688 20.0625V9.64844H658.281V20.0625C658.281 20.9948 658.06 21.6901 657.617 22.1484C657.18 22.612 656.487 22.8438 655.539 22.8438ZM662.594 9.64844V17.1406C662.594 18.4167 662.953 19.3802 663.672 20.0312C664.396 20.6771 665.401 21 666.688 21V18.5938C666.026 18.5938 665.581 18.4818 665.352 18.2578C665.122 18.0339 665.008 17.6458 665.008 17.0938V9.64844H662.594ZM670.438 13.2188C669.531 13.2188 668.849 13.513 668.391 14.1016C667.938 14.6849 667.617 15.4974 667.43 16.5391L667.367 16.9375L669.242 17.2734L669.305 16.9609C669.398 16.5078 669.549 16.1693 669.758 15.9453C669.966 15.7161 670.229 15.6016 670.547 15.6016C670.776 15.6016 671.003 15.6432 671.227 15.7266C671.456 15.8047 671.706 15.901 671.977 16.0156C672.253 16.1302 672.555 16.25 672.883 16.375C673.216 16.4948 673.594 16.599 674.016 16.6875L672.281 17.7344C671.901 17.9583 671.531 18.1328 671.172 18.2578C670.818 18.3828 670.453 18.4714 670.078 18.5234C669.703 18.5703 669.292 18.5938 668.844 18.5938H666.688C666.578 18.5938 666.497 18.6745 666.445 18.8359C666.388 18.9974 666.359 19.3177 666.359 19.7969C666.359 20.2708 666.388 20.5911 666.445 20.7578C666.497 20.9193 666.578 21 666.688 21H668.383C669.326 21 670.193 20.8932 670.984 20.6797C671.781 20.4661 672.562 20.1068 673.328 19.6016L676.859 17.2422V15.3203C676.12 15.1693 675.445 14.9766 674.836 14.7422C674.232 14.5026 673.669 14.2708 673.148 14.0469C672.628 13.8177 672.146 13.6224 671.703 13.4609C671.26 13.2995 670.839 13.2188 670.438 13.2188ZM683.078 15.75C683.344 16.5469 683.547 17.2786 683.688 17.9453C683.828 18.612 683.898 19.1927 683.898 19.6875C683.898 20.2917 683.768 20.8151 683.508 21.2578C683.253 21.7057 682.841 22.1042 682.273 22.4531C681.706 22.8073 680.956 23.1484 680.023 23.4766L681.07 25.6406C682.305 25.1927 683.305 24.6797 684.07 24.1016C684.841 23.5286 685.406 22.8776 685.766 22.1484C686.125 21.4193 686.305 20.5964 686.305 19.6797C686.305 19.0182 686.221 18.3047 686.055 17.5391C685.888 16.7682 685.656 15.9115 685.359 14.9688L683.078 15.75ZM694.508 17.6953C694.508 16.9974 694.359 16.3307 694.062 15.6953C693.766 15.0547 693.359 14.4375 692.844 13.8438C692.328 13.25 691.742 12.6719 691.086 12.1094L689.531 13.9453C690.375 14.6693 691.021 15.349 691.469 15.9844C691.917 16.6146 692.141 17.1198 692.141 17.5C692.141 17.7969 692.039 18.0312 691.836 18.2031C691.633 18.3698 691.367 18.487 691.039 18.5547C690.716 18.6224 690.37 18.6562 690 18.6562C689.589 18.6562 689.185 18.6276 688.789 18.5703C688.398 18.513 688.078 18.4531 687.828 18.3906L687.289 20.6719C687.69 20.7865 688.133 20.8776 688.617 20.9453C689.102 21.013 689.591 21.0469 690.086 21.0469C690.633 21.0469 691.169 20.987 691.695 20.8672C692.221 20.7422 692.695 20.5469 693.117 20.2812C693.539 20.0156 693.875 19.6693 694.125 19.2422C694.38 18.8151 694.508 18.2995 694.508 17.6953Z" fill="#417F56"/>
<path d="M715 24.9999C714.453 24.9999 714 24.5466 714 23.9999V19.9999C714 19.4533 714.453 18.9999 715 18.9999C715.547 18.9999 716 19.4533 716 19.9999V23.9999C716 24.5466 715.547 24.9999 715 24.9999Z" fill="#417F56"/>
<path d="M722.467 30.0799H707.533C705.107 30.0799 702.893 28.2133 702.493 25.8266L700.72 15.1999C700.427 13.5466 701.24 11.4266 702.56 10.3733L711.8 2.97326C713.587 1.53326 716.4 1.54659 718.2 2.98659L727.44 10.3733C728.747 11.4266 729.547 13.5466 729.28 15.1999L727.507 25.8133C727.107 28.1733 724.84 30.0799 722.467 30.0799ZM714.987 3.90659C714.28 3.90659 713.573 4.11993 713.053 4.53326L703.813 11.9466C703.067 12.5466 702.533 13.9333 702.693 14.8799L704.467 25.4933C704.707 26.8933 706.107 28.0799 707.533 28.0799H722.467C723.893 28.0799 725.293 26.8933 725.533 25.4799L727.307 14.8666C727.453 13.9333 726.92 12.5199 726.187 11.9333L716.947 4.54659C716.413 4.11993 715.693 3.90659 714.987 3.90659Z" fill="#417F56"/>
<defs>
<linearGradient id="paint0_linear_2092_35939" x1="568" y1="16" x2="413.5" y2="16" gradientUnits="userSpaceOnUse">
<stop offset="0.485754" stop-color="#417F56"/>
<stop offset="0.501641" stop-color="#CBCBCB"/>
</linearGradient>
</defs>
</svg>
