<svg width="16" height="17" viewBox="0 0 16 17" fill="none" xmlns="http://www.w3.org/2000/svg">
<path d="M14.6668 6.66669H1.3335C1.06016 6.66669 0.833496 6.44002 0.833496 6.16669C0.833496 5.89335 1.06016 5.66669 1.3335 5.66669H14.6668C14.9402 5.66669 15.1668 5.89335 15.1668 6.16669C15.1668 6.44002 14.9402 6.66669 14.6668 6.66669Z" fill="#353535"/>
<path d="M5.33333 12H4C3.72667 12 3.5 11.7733 3.5 11.5C3.5 11.2267 3.72667 11 4 11H5.33333C5.60667 11 5.83333 11.2267 5.83333 11.5C5.83333 11.7733 5.60667 12 5.33333 12Z" fill="#353535"/>
<path d="M9.66667 12H7C6.72667 12 6.5 11.7733 6.5 11.5C6.5 11.2267 6.72667 11 7 11H9.66667C9.94 11 10.1667 11.2267 10.1667 11.5C10.1667 11.7733 9.94 12 9.66667 12Z" fill="#353535"/>
<path d="M11.7068 14.6666H4.2935C1.64016 14.6666 0.833496 13.8666 0.833496 11.24V5.75998C0.833496 3.13331 1.64016 2.33331 4.2935 2.33331H11.7002C14.3535 2.33331 15.1602 3.13331 15.1602 5.75998V11.2333C15.1668 13.8666 14.3602 14.6666 11.7068 14.6666ZM4.2935 3.33331C2.20016 3.33331 1.8335 3.69331 1.8335 5.75998V11.2333C1.8335 13.3 2.20016 13.66 4.2935 13.66H11.7002C13.7935 13.66 14.1602 13.3 14.1602 11.2333V5.75998C14.1602 3.69331 13.7935 3.33331 11.7002 3.33331H4.2935Z" fill="#353535"/>
</svg>
