<svg width="280" height="24" viewBox="0 0 280 24" fill="none" xmlns="http://www.w3.org/2000/svg">
<path d="M8.00065 19.1668C4.04732 19.1668 0.833984 15.9535 0.833984 12.0002C0.833984 8.04683 4.04732 4.8335 8.00065 4.8335C11.954 4.8335 15.1673 8.04683 15.1673 12.0002C15.1673 15.9535 11.954 19.1668 8.00065 19.1668ZM8.00065 5.8335C4.60065 5.8335 1.83398 8.60016 1.83398 12.0002C1.83398 15.4002 4.60065 18.1668 8.00065 18.1668C11.4007 18.1668 14.1673 15.4002 14.1673 12.0002C14.1673 8.60016 11.4007 5.8335 8.00065 5.8335Z" fill="#CBCBCB"/>
<path d="M7.05297 14.3867C6.91964 14.3867 6.79297 14.3334 6.69964 14.2401L4.81297 12.3534C4.61964 12.1601 4.61964 11.8401 4.81297 11.6467C5.0063 11.4534 5.3263 11.4534 5.51964 11.6467L7.05297 13.1801L10.4796 9.7534C10.673 9.56007 10.993 9.56007 11.1863 9.7534C11.3796 9.94673 11.3796 10.2667 11.1863 10.4601L7.4063 14.2401C7.31297 14.3334 7.1863 14.3867 7.05297 14.3867Z" fill="#CBCBCB"/>
<line x1="123.5" y1="12.5" x2="20.5" y2="12.5" stroke="#CBCBCB" stroke-linecap="round" stroke-dasharray="4 4"/>
<path d="M136 12.8669C136.086 12.8669 136.173 12.8469 136.253 12.8002L142.14 9.39359C142.38 9.25359 142.46 8.94691 142.32 8.70691C142.18 8.46691 141.88 8.38689 141.633 8.52689L136 11.7869L130.4 8.54691C130.16 8.40691 129.853 8.49359 129.713 8.72693C129.573 8.96693 129.66 9.27357 129.893 9.41357L135.74 12.8002C135.826 12.8402 135.913 12.8669 136 12.8669Z" fill="#CBCBCB"/>
<path d="M136 18.9065C136.273 18.9065 136.5 18.6799 136.5 18.4065V12.3599C136.5 12.0865 136.273 11.8599 136 11.8599C135.727 11.8599 135.5 12.0865 135.5 12.3599V18.4065C135.5 18.6799 135.727 18.9065 136 18.9065Z" fill="#CBCBCB"/>
<path d="M136 19.1668C136.586 19.1668 137.166 19.0402 137.626 18.7868L141.186 16.8068C142.153 16.2735 142.906 14.9868 142.906 13.8802V10.1135C142.906 9.00681 142.153 7.72684 141.186 7.18684L137.626 5.2135C136.713 4.70683 135.286 4.70683 134.373 5.2135L130.813 7.19348C129.846 7.72681 129.093 9.01349 129.093 10.1202V13.8868C129.093 14.9935 129.846 16.2735 130.813 16.8135L134.373 18.7868C134.833 19.0402 135.413 19.1668 136 19.1668ZM136 5.83349C136.42 5.83349 136.833 5.92016 137.14 6.08683L140.7 8.06681C141.34 8.42681 141.906 9.38015 141.906 10.1202V13.8868C141.906 14.6202 141.34 15.5801 140.7 15.9401L137.14 17.9202C136.533 18.2602 135.466 18.2602 134.86 17.9202L131.3 15.9401C130.66 15.5801 130.093 14.6268 130.093 13.8868V10.1202C130.093 9.38682 130.66 8.42681 131.3 8.06681L134.86 6.08683C135.166 5.92016 135.58 5.83349 136 5.83349Z" fill="#CBCBCB"/>
<path d="M132.667 13.3269C132.941 13.3269 133.167 13.1002 133.167 12.8269V10.6802L139.247 7.17354C139.487 7.03354 139.567 6.72686 139.427 6.49353C139.287 6.25353 138.987 6.17351 138.747 6.31351L132.421 9.96688C132.267 10.0535 132.167 10.2202 132.167 10.4002V12.8402C132.167 13.1002 132.394 13.3269 132.667 13.3269Z" fill="#CBCBCB"/>
<line x1="251.5" y1="12.5" x2="148.5" y2="12.5" stroke="url(#paint0_linear_2092_35821)" stroke-linecap="round" stroke-dasharray="4 4"/>
<path d="M268.001 18.7498C267.591 18.7498 267.251 18.4098 267.251 17.9998V14.9998C267.251 14.5898 267.591 14.2498 268.001 14.2498C268.411 14.2498 268.751 14.5898 268.751 14.9998V17.9998C268.751 18.4098 268.411 18.7498 268.001 18.7498Z" fill="#417F56"/>
<path d="M273.601 22.5598H262.401C260.581 22.5598 258.921 21.1598 258.621 19.3698L257.291 11.3998C257.071 10.1598 257.681 8.56982 258.671 7.77982L265.601 2.22982C266.941 1.14982 269.051 1.15982 270.401 2.23982L277.331 7.77982C278.311 8.56982 278.911 10.1598 278.711 11.3998L277.381 19.3598C277.081 21.1298 275.381 22.5598 273.601 22.5598ZM267.991 2.92982C267.461 2.92982 266.931 3.08982 266.541 3.39982L259.611 8.95982C259.051 9.40982 258.651 10.4498 258.771 11.1598L260.101 19.1198C260.281 20.1698 261.331 21.0598 262.401 21.0598H273.601C274.671 21.0598 275.721 20.1698 275.901 19.1098L277.231 11.1498C277.341 10.4498 276.941 9.38982 276.391 8.94982L269.461 3.40982C269.061 3.08982 268.521 2.92982 267.991 2.92982Z" fill="#417F56"/>
<defs>
<linearGradient id="paint0_linear_2092_35821" x1="252" y1="12" x2="148" y2="12" gradientUnits="userSpaceOnUse">
<stop offset="0.485754" stop-color="#417F56"/>
<stop offset="0.501641" stop-color="#CBCBCB"/>
</linearGradient>
</defs>
</svg>
