<svg width="58" height="40" viewBox="0 0 58 40" fill="none" xmlns="http://www.w3.org/2000/svg">
<rect width="58" height="40" rx="4" fill="#E5F2E9"/>
<path d="M16 27.1999C15.5333 27.1999 15.0667 27.0199 14.7133 26.6666L10.3667 22.3199C10.1733 22.1266 10.1733 21.8066 10.3667 21.6133C10.56 21.4199 10.88 21.4199 11.0733 21.6133L15.42 25.9599C15.74 26.2799 16.26 26.2799 16.58 25.9599L20.9267 21.6133C21.12 21.4199 21.44 21.4199 21.6333 21.6133C21.8267 21.8066 21.8267 22.1266 21.6333 22.3199L17.2867 26.6666C16.9333 27.0199 16.4667 27.1999 16 27.1999Z" fill="#417F56"/>
<path d="M38 20.75C34.83 20.75 32.25 18.17 32.25 15C32.25 11.83 34.83 9.25 38 9.25C41.17 9.25 43.75 11.83 43.75 15C43.75 18.17 41.17 20.75 38 20.75ZM38 10.75C35.66 10.75 33.75 12.66 33.75 15C33.75 17.34 35.66 19.25 38 19.25C40.34 19.25 42.25 17.34 42.25 15C42.25 12.66 40.34 10.75 38 10.75Z" fill="#417F56"/>
<path d="M46.5901 30.75C46.1801 30.75 45.8401 30.41 45.8401 30C45.8401 26.55 42.3202 23.75 38.0002 23.75C33.6802 23.75 30.1602 26.55 30.1602 30C30.1602 30.41 29.8202 30.75 29.4102 30.75C29.0002 30.75 28.6602 30.41 28.6602 30C28.6602 25.73 32.8502 22.25 38.0002 22.25C43.1502 22.25 47.3401 25.73 47.3401 30C47.3401 30.41 47.0001 30.75 46.5901 30.75Z" fill="#417F56"/>
</svg>
