<svg width="131" height="127" viewBox="0 0 131 127" fill="none" xmlns="http://www.w3.org/2000/svg">
<g opacity="0.35" clip-path="url(#clip0_1946_45213)">
<path fill-rule="evenodd" clip-rule="evenodd" d="M3.02196 87.0388C2.77199 83.0725 2.52202 79.0113 2.2788 75.0111L1.82615 67.3768L1.74508 65.9733C1.35999 64.3461 1.36675 62.624 1.41404 61.1324C1.06948 61.1595 0.718173 61.1867 0.373618 61.2138C0.164183 61.2273 0.0358193 61.1121 0.00879546 61.0036C-0.0249844 60.8884 0.0358194 60.746 0.238499 60.6985C1.55591 60.3866 1.69779 60.3663 3.05574 60.1019C20.9996 43.4909 26.9921 27.6122 20.8645 12.9132C16.5001 10.0181 11.3723 6.03148 7.19715 3.67882C7.04852 3.59068 7.04852 3.45508 7.12283 3.36016C7.19715 3.26524 7.35929 3.21778 7.51468 3.30592C19.3984 9.93675 33.9238 14.0861 50.6989 15.6387C58.3196 16.3438 66.42 16.554 75.4798 16.2693C81.6074 16.0794 88.8498 15.7201 96.0787 14.52C104.564 13.1166 111.516 10.6825 117.319 7.08915C117.401 7.03491 117.522 7.04847 117.59 7.12305C117.657 7.19085 117.651 7.27899 117.569 7.33323C106.929 14.4726 92.2143 16.0523 79.2158 16.6557C69.6967 17.0964 61.1098 17.0286 53.1851 16.4252C45.0509 15.8014 37.6125 14.6217 30.5796 12.8521C22.9183 10.9266 16.1285 8.19429 9.70362 4.81108C17.5405 9.96387 22.3576 13.4352 30.2012 18.6423C32.6334 20.2559 35.0588 21.8695 37.4909 23.4832C44.5307 28.1478 64.2108 30.2835 72.9936 29.7004C78.5064 29.3343 83.918 28.358 89.093 26.8054C93.8155 25.3883 97.869 23.4018 102.166 21.3C109.996 14.2014 117.934 7.09593 125.893 0.0650879C125.954 0.010848 126.028 -0.00949198 126.116 0.00406799C126.204 0.024408 126.285 0.0854278 126.318 0.160008C126.352 0.241368 126.332 0.315947 126.264 0.376967C123.501 2.79742 120.562 5.39416 117.029 8.54685C116.779 9.23841 116.455 9.92997 116.144 10.5944C115.833 11.2521 115.509 11.9368 115.266 12.6216C114.705 14.1878 114.273 15.8421 113.975 17.5303C113.421 20.7034 113.394 23.9442 113.887 27.1579C114.806 33.1718 117.651 39.0636 122.339 44.6706C125.008 44.2774 127.872 43.8706 130.771 43.4977C130.872 43.4841 130.967 43.5316 130.994 43.6197C131.021 43.7011 130.96 43.7824 130.858 43.8028C126.622 44.6571 123.366 45.1588 119.34 45.7283C108.354 63.6139 108.523 83.7979 108.685 103.318C111.097 106.646 113.556 110.003 116.002 113.291C116.049 113.352 116.022 113.42 115.955 113.454C115.874 113.487 115.779 113.467 115.732 113.406C113.685 110.748 111.631 108.03 109.456 105.101C109.401 105.121 109.327 105.114 109.26 105.107C95.241 104.036 81.8979 109.521 75.2433 119.095C75.1825 121.983 75.0947 124.532 74.9933 126.885C74.9933 126.953 74.9258 127 74.8379 127H74.8312C74.7501 126.993 74.6826 126.939 74.6826 126.871C74.6218 123.63 74.615 120.993 74.6218 118.145C64.1905 107.311 52.2392 98.4224 39.0989 91.7373C34.971 96.9443 30.9309 102.206 26.7962 107.406C26.7016 107.528 26.526 107.555 26.3774 107.48C26.2355 107.413 26.1409 107.257 26.2422 107.108C28.5393 103.772 31.1065 100.314 34.0859 96.5307C33.7279 88.7134 31.5592 81.9063 27.4516 75.723C24.7965 71.7228 21.432 68.0751 17.4527 64.8885C17.0271 69.4244 14.5071 72.0211 10.1698 72.394C7.72412 72.6042 5.17711 71.5262 3.52866 69.5735C3.04223 68.9972 2.64362 68.3667 2.33285 67.6683C2.74496 74.1093 3.13005 80.652 3.50163 86.9777M74.6015 117.65C74.6082 116.355 74.6218 114.999 74.6353 113.521C68.1158 102.151 56.2928 92.7882 42.1931 87.8388C41.2878 88.9575 40.3622 90.1101 39.3691 91.3644C53.435 98.5105 65.6093 107.596 74.6015 117.65ZM92.5386 66.4208C92.6467 65.6954 92.775 64.9699 92.9304 64.258C94.2208 58.217 97.0718 52.5964 101.2 47.9928C99.8486 48.142 98.4974 48.2911 97.1799 48.4335C96.7408 51.715 95.7206 54.7728 94.1533 57.539C93.1466 59.3086 91.6806 61.2951 89.1471 60.8951C88.0459 60.7256 87.0325 60.1425 86.1204 59.1662C85.0732 62.2308 84.7422 65.4513 85.1476 68.7464C85.1543 68.8074 85.1003 68.8616 85.026 68.8684C85.0057 68.8684 84.9787 68.8684 84.9584 68.8616C84.9651 68.8684 84.9719 68.882 84.9787 68.8887C84.9922 68.8955 84.9989 68.9023 85.0124 68.9023C85.0395 68.9159 85.0665 68.9294 85.0868 68.943C85.1408 68.9769 85.1813 69.0176 85.1881 69.0718C85.1949 69.1057 85.1813 69.1464 85.1611 69.1803C87.8635 73.3432 90.6672 77.5671 93.5047 81.7436C92.3089 77.4654 91.8968 73.0042 92.2819 68.6175C92.3427 67.8717 92.4305 67.1463 92.5386 66.4208ZM52.8067 33.3548C52.5567 33.2802 52.3068 33.2124 52.0568 33.1379L52.7865 33.626L52.8 33.3819C52.8 33.3684 52.8 33.3616 52.8067 33.3548ZM44.2537 36.0465C43.8213 38.6703 42.916 41.3281 41.5648 43.8841C40.727 45.4639 39.7474 46.9623 38.6394 48.3522C36.2005 51.4167 33.1604 53.9863 29.7486 55.8169L30.3093 55.722C31.4714 55.5186 32.6266 55.3152 33.7819 55.1118C35.3696 54.827 40.119 54.2372 41.1392 53.627C45.2468 51.1658 48.341 48.1149 50.3273 44.5689C51.969 41.64 52.4284 38.7924 52.6648 35.5312C52.6986 35.0634 52.7324 34.5888 52.7594 34.1074L50.7056 32.7446H50.6921C50.6178 32.7243 50.557 32.6768 50.5164 32.6226L44.1253 28.3715C44.6523 30.8191 44.6928 33.4158 44.2537 36.0465ZM45.0914 83.1945C47.7397 80.0961 50.1719 77.2688 52.9824 74.1229C52.7932 70.2312 52.0365 67.1395 50.5637 64.2919C50.3543 63.8851 50.1314 63.4851 49.8881 63.0851C48.1991 60.2782 45.7805 57.7357 42.5309 55.3627C42.0647 55.0237 41.585 54.6847 41.0851 54.3524C38.2814 54.8813 36.0114 55.3084 33.9373 55.6813C32.9982 55.8508 32.0591 56.0203 31.12 56.183L29.9648 56.3864C35.4912 59.1052 40.0852 63.2749 42.9092 68.1565C45.7873 73.133 46.5574 78.4485 45.0914 83.1945ZM74.8177 103.345C73.4327 100.87 71.8045 98.5173 69.9466 96.307C64.3797 89.6762 56.8063 84.3335 47.9694 80.8961C47.1587 81.8453 46.294 82.8691 45.3144 84.0488C44.2807 85.2963 43.5037 86.2319 42.5309 87.432C46.0643 88.6727 49.4422 90.1847 52.6176 91.9271C62.157 97.1477 69.9128 104.436 74.6488 112.816C74.669 111.576 74.6826 110.281 74.7096 108.836C74.7434 106.904 74.7771 105.25 74.8177 103.345ZM91.2144 49.8844C91.5657 49.5522 91.9238 49.2268 92.2954 48.9149C91.89 48.9556 91.4779 48.9895 91.0725 49.0302L90.8091 49.0505C87.7351 51.0031 85.7083 52.8202 84.2288 54.9287C84.2355 54.9423 84.2355 54.9626 84.2355 54.9762C84.2423 55.0033 84.249 55.0304 84.2558 55.0576C84.5395 56.0949 85.1003 57.2407 85.7691 58.1696C86.9109 55.044 88.7755 52.2167 91.2144 49.8844ZM86.2555 58.7798C87.0933 59.7425 88.4647 60.8205 90.2618 60.5493C92.6805 60.19 93.8763 57.4238 94.6667 55.5932C94.7275 55.4508 94.7883 55.3152 94.8424 55.1864C95.7679 53.0981 96.4098 50.8404 96.7611 48.4674C95.3423 48.6166 94.1533 48.7318 93.0453 48.8403C89.843 51.8574 87.5594 55.1999 86.2555 58.7798ZM82.6006 49.8234C81.0805 51.4438 80.1211 52.949 79.6009 54.5558C79.2969 55.4779 79.128 56.4203 79.0807 57.3492C79.0537 57.9933 79.0807 58.99 79.1753 59.6612C79.5131 60.3866 79.9522 61.0307 81.0332 62.7325C81.0872 60.6443 81.648 58.5018 82.6343 56.5085C82.9654 55.844 83.3437 55.1999 83.7626 54.5762C83.4248 52.888 83.6072 51.1658 84.2963 49.5793C83.7964 49.6132 83.3032 49.6539 82.8032 49.6878C82.7559 49.7014 82.6816 49.7353 82.6006 49.8234ZM75.169 79.0384V78.8485C75.1149 78.8146 75.0744 78.7672 75.0676 78.7197C75.0609 78.6858 75.0609 78.6519 75.0744 78.618C75.0879 78.5841 75.1082 78.557 75.142 78.5299C75.1555 78.5231 75.1622 78.5163 75.1757 78.5095L75.223 74.706C73.203 69.9871 68.69 66.6513 62.1705 65.0648C61.1031 66.1767 60.245 67.0853 59.4749 67.926C59.3127 68.109 59.1438 68.2853 58.9817 68.4684L58.6979 68.7803C65.9674 69.9261 72.2301 73.8313 75.169 79.0384ZM59.7383 69.3566C61.1706 70.0617 62.5353 70.8346 63.819 71.6753C64.677 72.238 65.5012 72.8211 66.2849 73.4381C67.0686 74.0483 67.8185 74.6856 68.5211 75.3365C71.6897 78.2858 74.007 81.6283 75.0947 84.9912L75.1622 79.6079C75.1555 79.6011 75.1487 79.5943 75.142 79.5808C71.9329 74.3737 66.3389 70.6719 59.7383 69.3566ZM75.8108 64.6038C75.7905 66.1767 75.7703 67.6412 75.7568 69.1871C77.1215 68.1429 79.182 67.6751 81.2494 67.8378C82.2357 67.9124 83.2221 68.1294 84.1409 68.4955C83.4923 67.4853 82.8438 66.4751 82.1952 65.4581C80.3643 64.4072 78.4456 64.1495 75.8108 64.6038ZM81.8439 64.9021L81.6953 64.6648C81.6074 64.5224 81.5128 64.38 81.425 64.2377C81.425 64.4072 81.4318 64.5563 81.4318 64.7055C81.5669 64.7665 81.7088 64.8343 81.8439 64.9021ZM78.628 41.884C74.3921 43.1044 69.3926 43.057 65.2512 41.6874C71.4937 45.1656 78.4997 43.0502 78.6956 43.1451L79.1077 42.7587L79.1415 42.7248C79.6955 42.1959 80.2495 41.6739 80.7967 41.145L80.844 41.0976C80.5265 41.2332 80.2022 41.362 79.8644 41.484L78.628 41.884ZM60.3869 50.0132C61.2652 49.837 61.9273 49.7014 62.7245 49.5387C63.8257 49.3149 64.9134 49.0912 66.0079 48.8674C67.1834 48.6301 67.2037 48.6979 67.0821 48.1691C66.9808 47.7555 66.8929 47.3284 66.8051 46.9148C66.4335 45.1452 66.0552 43.3078 64.5351 41.8908C64.2919 41.7552 64.0487 41.6196 63.8122 41.484C65.035 44.6096 63.569 48.2233 60.3869 50.0132ZM75.3109 67.2209C72.5004 64.3461 69.271 62.5291 65.4539 61.668L64.481 62.6715C63.8257 63.3495 63.1636 64.0275 62.5083 64.7055C67.9604 65.5801 73.1084 69.3023 75.2298 73.8585C75.2568 71.4245 75.2838 69.5871 75.3109 67.2209ZM75.3176 66.6717C75.3446 64.4953 75.3582 63.3495 75.3852 60.8138C73.8583 58.9493 71.8518 57.9187 69.244 57.6679C68.2644 58.7323 67.1699 59.8917 65.8052 61.2952C69.7642 62.2308 73.203 64.1766 75.3176 66.6717ZM68.9467 57.0034C69.3048 56.6644 69.9128 56.1017 70.325 55.722C70.5547 55.1593 70.3993 54.1016 69.0819 52.0676C68.8454 51.7761 68.5954 51.4777 68.386 51.1862C67.9333 50.5489 67.6158 49.9319 67.3456 49.0776C67.1024 49.0844 66.5146 49.2268 66.3187 49.2675C66.1363 49.3081 65.9538 49.342 65.7714 49.3827C68.4806 51.2269 69.7237 54.2372 68.9467 57.0034ZM69.6156 57.2746C71.9464 57.4916 74.2096 58.6577 75.3987 60.251L75.4257 57.8509C73.9597 56.7729 72.5071 56.2373 70.7641 56.1288C70.7236 56.1288 70.6898 56.122 70.656 56.122C70.3047 56.5017 69.9601 56.8882 69.6156 57.2746ZM68.44 57.4916C68.6765 56.7593 68.7778 56.0271 68.7508 55.3084C68.6765 53.1388 67.4604 51.0641 65.258 49.4912C64.6026 49.6336 63.9541 49.7692 63.2987 49.9048L62.6434 50.0404C65.3661 52.6574 66.8119 55.8915 66.7375 59.1866C67.2848 58.6238 67.859 58.0543 68.44 57.4916ZM78.2767 43.6468C77.8646 43.579 76.5134 43.9113 75.75 44.0604C75.2568 44.1553 74.8312 44.2367 74.615 44.2503C73.2098 44.3181 71.7978 44.2299 70.4128 43.9791C69.1224 43.7485 67.886 43.3824 66.724 42.8943C66.6362 42.8536 66.5349 42.8129 66.4268 42.7722C66.1971 42.6773 65.9471 42.5824 65.7174 42.4671C66.6902 43.7689 66.9808 45.2605 67.2645 46.7046C67.3929 47.3555 67.5212 48.0199 67.7171 48.6572C68.0752 49.8438 68.717 50.7116 69.4061 51.6337C69.6494 51.9591 69.8993 52.2981 70.1493 52.6642C70.7236 53.5049 70.8114 54.1151 70.9262 54.9694C70.9398 55.0508 70.9668 55.1525 70.9398 55.2271C70.8181 55.5932 70.8722 55.6474 71.0141 55.7017L71.0546 55.7356C71.1492 55.8034 71.9059 55.9118 72.3112 55.9729C72.6625 56.0271 72.872 56.0542 72.9463 56.0813C73.8989 56.3797 74.7366 56.8136 75.4325 57.3899C75.6284 57.1797 76.6621 56.5763 76.9931 56.278C76.9864 56.278 76.9999 56.278 76.9931 56.278C77.493 55.1932 79.6887 50.5896 79.5401 49.681C79.4996 49.4166 79.2091 49.0437 78.9321 48.6912C78.7024 48.3928 78.4794 48.1149 78.3781 47.8776C78.1619 47.3758 78.0133 46.8606 77.9389 46.3385C77.8916 46.0673 78.1889 43.735 78.2767 43.6468ZM75.8176 64.136C77.3782 63.6953 79.3374 63.858 81.1142 64.5699C81.0805 64.2648 81.0534 63.9529 81.0399 63.641C79.6279 61.4036 78.3781 59.4103 76.9863 57.1594L75.8513 57.817C75.7973 57.8577 75.8243 63.4919 75.8176 64.136ZM61.9678 64.2512C61.576 59.6951 59.4884 55.5254 55.5902 51.5048C50.7259 52.4947 46.1859 53.3897 41.7202 54.2372C48.2127 58.1628 52.6513 64.7326 53.3134 71.0244C53.408 71.9194 53.4283 72.8143 53.3607 73.6957C56.1982 70.5227 59.0965 67.3904 61.9678 64.2512ZM62.2786 63.919C63.4744 62.6172 64.8796 61.0985 66.3524 59.5866C66.4741 56.0746 65.035 52.8134 62.1975 50.1421C60.1302 50.576 58.0899 51.0031 56.1374 51.4031L56.1307 51.4099C59.7924 54.6304 62.0759 59.2883 62.2786 63.919ZM59.1911 50.2573C63.042 47.8776 64.3459 44.8808 63.1771 41.0908C62.1705 40.467 61.1639 39.7755 60.2586 39.1449C62.0016 42.9146 60.7112 47.5725 57.0562 50.6845C57.7724 50.5421 58.4817 50.3997 59.1911 50.2573ZM60.6099 38.7653C61.0423 39.0432 61.4814 39.3144 61.9205 39.5992C61.9678 39.6195 62.0084 39.6399 62.0556 39.6602C63.7919 40.4738 65.6498 41.2535 67.7374 41.7484C68.082 41.8298 68.44 41.8976 68.7981 41.9654C68.8859 41.979 68.9603 41.9993 69.0481 42.0196C69.9466 42.1756 70.8789 42.2705 71.8721 42.2976C75.169 42.3858 78.2835 41.7552 81.6817 40.3043C81.9655 40.0331 82.256 39.7619 82.5398 39.4907C82.9046 39.1449 83.2626 38.7992 83.6275 38.4534C79.8036 39.5585 75.4595 40.0602 71.0343 39.9043C67.7712 39.789 63.1636 39.3415 59.2317 37.8771C59.6775 38.1754 60.1505 38.4737 60.6099 38.7653ZM79.1618 43.1722L78.7632 43.5384C77.993 45.5995 78.4119 47.7284 79.9387 49.5454C79.959 49.5387 79.986 49.5319 80.013 49.5251L82.0804 49.342C80.3643 47.6403 79.3307 45.4639 79.1618 43.1722ZM80.2225 49.8641C79.4996 51.6133 78.4659 53.41 77.3849 56.9221C77.7836 57.5662 78.1822 58.2103 78.5875 58.8544C78.2835 55.4033 79.5874 52.1083 82.202 49.7285C81.5466 49.776 80.8845 49.8234 80.2225 49.8641ZM84.0666 54.1423C85.5799 52.0608 87.573 50.3387 89.8497 49.1386C88.1607 49.2878 86.4177 49.4302 84.6746 49.559C84.0396 51.0913 83.8301 52.6371 84.0666 54.1423ZM84.3098 56.3322C84.1747 56.0203 84.0531 55.6813 83.9518 55.3355C83.8842 55.4372 83.8099 55.5389 83.7423 55.6474C82.3101 57.9662 81.5331 60.5629 81.425 63.363C82.4857 65.0241 83.6072 66.7734 84.8571 68.7057C84.222 65.4038 84.4922 61.9053 85.6272 58.5832C84.9854 57.7492 84.553 56.8949 84.3098 56.3322ZM84.5193 69.0854C83.6477 68.665 82.7424 68.4006 81.8169 68.2853C81.6682 68.265 81.5128 68.2582 81.3642 68.2446C81.3304 68.2446 81.2967 68.2379 81.2629 68.2379C81.1345 68.2311 81.0061 68.2311 80.8845 68.2311C80.8237 68.2311 80.7629 68.2243 80.7021 68.2311C80.5467 68.2311 80.3914 68.2446 80.236 68.2514C80.2022 68.2514 80.1752 68.2514 80.1414 68.2582C79.7833 68.2853 79.4253 68.3396 79.0672 68.4141C79.0537 68.4141 79.0402 68.4209 79.0199 68.4209C78.6483 68.5023 78.2767 68.604 77.9119 68.7328C77.6214 68.8345 77.3377 68.9565 77.0539 69.0854C76.6148 69.2888 76.1756 69.5193 75.75 69.7972L75.6892 74.9636L75.7095 75.0178C75.723 75.0585 75.7162 75.0924 75.6892 75.1195L75.6487 78.1773C78.0605 76.5705 81.4453 75.8721 84.7084 76.1162C86.6001 76.2586 88.4512 76.7196 90.0591 77.5129C88.2485 74.8212 86.3907 71.9872 84.5193 69.0854ZM73.7165 83.0657C72.3112 80.4689 70.7573 78.1977 68.5752 76.0552C66.4605 73.9737 63.9879 72.1567 61.2044 70.6244C60.2788 70.1159 59.3127 69.6345 58.3196 69.1871C56.5901 71.0854 54.8943 72.9703 53.2796 74.7941C58.5696 76.5501 63.1974 79.852 66.1633 82.3267C70.0885 85.6014 73.1354 89.2219 75.0068 92.8289L75.0947 85.7641C74.6353 84.8285 74.1826 83.9267 73.7165 83.0657ZM74.8988 93.378C72.1964 88.9575 69.3791 85.5878 66.0349 82.7741C62.1367 79.4994 57.6508 77.2756 53.0162 75.106C51.3947 76.9434 49.8003 78.7672 48.2802 80.5368C60.1707 85.1878 69.825 93.2696 74.8312 102.775C74.8447 101.745 75.169 93.6492 74.8988 93.378ZM50.6245 44.935C50.3611 45.3825 50.0908 45.8232 49.8003 46.2504C47.76 49.2607 44.9765 51.7964 41.6594 53.6541C46.5777 52.732 51.5163 51.7693 56.4009 50.8065C60.0964 47.7013 61.2382 43.5316 59.6978 38.7449C59.1776 38.3788 58.6169 37.9923 58.0629 37.6262L53.2999 34.46C53.6918 37.5177 52.7189 41.3213 50.6245 44.935ZM53.2188 33.904L57.5494 36.7787C58.0831 36.9211 58.6101 37.0635 59.1371 37.2126C62.9677 38.2568 66.5822 39.2466 70.6965 39.4432C74.9933 39.6534 79.3374 39.1856 83.9788 38.0127C84.4179 37.694 87.5662 34.7515 88.0121 34.3379C87.6878 34.5006 87.3568 34.6566 87.0325 34.799C76.8039 39.3415 64.3257 36.6567 53.1243 33.4497C53.158 33.6057 53.1918 33.7616 53.2188 33.904ZM84.3841 38.3178C84.2152 41.5925 85.6407 44.5893 88.6269 47.247C89.0525 47.6267 89.5119 47.9996 89.9983 48.3657C90.0456 48.3996 90.0524 48.4606 90.0119 48.5013C89.9713 48.542 89.897 48.5556 89.8362 48.5217C86.1474 46.5283 83.7896 42.6231 83.918 38.7517L82.4452 40.1212C82.4587 40.1348 82.4722 40.1484 82.479 40.1687C82.506 40.2297 82.4857 40.2907 82.4249 40.3246C82.2763 40.4128 82.1209 40.4941 81.9655 40.5755C81.2223 41.2671 80.4792 41.9586 79.736 42.6434C79.8239 45.0096 80.7021 47.1318 82.4857 49.3149C88.5391 48.7793 94.937 48.1894 100.93 47.5386C93.8763 45.3893 89.6808 39.1381 89.1201 33.9447C87.5594 35.3753 85.8367 36.9753 84.3841 38.3178ZM93.3358 42.0603C95.5518 44.5282 98.4501 46.0944 101.254 47.4165C101.288 47.4301 101.308 47.4572 101.315 47.4843C102.754 47.3284 104.145 47.1724 105.497 47.0097C106.321 46.9148 107.199 46.8063 108.172 46.6843C100.376 43.2129 95.0113 35.7888 95.018 28.4936C93.1804 30.1886 91.3428 31.8768 89.5052 33.5786C89.7686 36.6363 91.0928 39.5653 93.3358 42.0603ZM90.4172 78.0756C85.33 75.9467 80.2225 76.1908 75.6352 78.774L75.473 91.9814C77.0607 88.8626 80.3035 86.5235 84.249 85.676C84.5868 85.6014 84.9314 85.5472 85.2827 85.4997C85.3908 85.4861 85.4921 85.4726 85.6002 85.459C85.8502 85.4319 86.1069 85.4048 86.3636 85.3844C86.4785 85.3777 86.5866 85.3709 86.7014 85.3641C86.9852 85.3505 87.2757 85.3438 87.5594 85.3438C87.627 85.3438 87.7013 85.3438 87.7689 85.3438C88.1269 85.3505 88.4918 85.3641 88.8498 85.3912C88.8701 85.3912 88.8904 85.3912 88.9039 85.3912C88.9579 85.398 89.012 85.4048 89.066 85.4116C89.37 85.4387 89.6741 85.4726 89.9781 85.5133C90.0862 85.5268 90.1875 85.5404 90.2888 85.5607C90.5996 85.6082 90.9036 85.6624 91.2077 85.7234C91.2685 85.737 91.3293 85.7438 91.3901 85.7573C91.7549 85.8387 92.1062 85.9268 92.4575 86.0285C92.5386 86.0557 92.6197 86.076 92.7075 86.1031C92.9777 86.1845 93.248 86.2726 93.5115 86.3675C93.606 86.4014 93.7074 86.4353 93.802 86.476C94.0992 86.5913 94.3897 86.7065 94.6735 86.8354C94.7073 86.8489 94.7478 86.8625 94.7816 86.8828C95.0991 87.0252 95.4031 87.1811 95.7004 87.3439C95.7815 87.3913 95.8558 87.432 95.9368 87.4795C96.1598 87.6083 96.3692 87.7371 96.5787 87.8795C96.6597 87.9337 96.734 87.9812 96.8151 88.0354C97.0786 88.2253 97.3421 88.4151 97.5785 88.6185C95.1396 85.0861 92.7886 81.6351 90.4172 78.0756ZM84.6544 86.0624C83.8437 86.2252 83.06 86.4557 82.3168 86.7404C79.0875 87.9947 76.554 90.3813 75.4527 93.317C75.4122 97.0867 75.3987 101.012 75.3784 104.721C77.9457 101.453 82.4317 98.7817 87.4446 97.5477C90.12 96.8901 93.525 96.5646 96.8692 96.8223C99.7607 97.046 102.605 97.6969 104.902 98.9444C102.639 95.8121 100.376 92.6255 98.146 89.4321C94.5113 86.537 89.4714 85.0997 84.6544 86.0624ZM38.5584 90.9508L38.5651 90.9576C42.0647 86.7133 40.7338 88.3134 44.0848 84.381C45.6049 78.0485 45.0036 72.8076 42.1931 67.8785C39.5515 63.2546 34.9507 59.2272 29.2419 56.5288C24.9654 57.2882 21.3712 57.9119 17.9527 58.4882C24.7694 61.8579 30.3026 66.6785 33.9711 72.4347C37.6801 78.2587 39.2137 84.6454 38.4097 90.9101C38.457 90.9101 38.5111 90.9237 38.5584 90.9508ZM34.3899 96.1104C35.5114 94.6934 36.6937 93.2289 37.903 91.7508C37.9571 91.3373 37.9976 90.9237 38.0382 90.5033C39.1124 77.6553 31.093 65.2411 17.3108 58.5832L16.946 58.6442C17.2635 60.0951 17.6013 62.2443 17.4662 64.4139C28.492 73.1398 34.8021 84.9641 34.3899 96.1104ZM16.6285 58.712C15.3313 58.9357 14.0004 59.1798 12.7168 59.4171C12.0142 59.5459 11.3115 59.6747 10.6089 59.8036C12.8722 61.0917 15.0543 62.5494 17.0947 64.136C17.169 62.346 16.919 60.4748 16.6285 58.712ZM1.8802 61.0918C1.99505 62.78 2.10315 64.4682 2.21124 66.1496C2.41392 67.0581 2.75848 67.865 3.26517 68.5972C4.79878 70.8414 8.07543 72.7533 11.6426 71.655C15.0071 70.6109 16.7839 68.3057 17.0609 64.6038C14.8854 62.8952 12.5141 61.3155 10.0144 59.912C7.60926 60.3392 4.765 60.8205 1.8802 61.0918ZM33.1131 21.0559L29.7418 18.8185C26.9651 16.9744 24.1817 15.1302 21.405 13.2861C24.837 21.1034 24.5532 29.5309 20.5537 38.3517C20.1483 39.2466 19.7092 40.1348 19.2295 41.0365C15.8921 47.308 10.7778 53.6473 3.99482 59.9324C6.4067 59.4985 8.29837 59.2408 10.7103 58.9086C12.737 58.6306 13.5072 58.1018 15.4462 56.9017C15.8786 56.6373 16.311 56.3593 16.7298 56.0813C22.2089 52.4744 26.553 48.0403 29.4311 43.0841C33.1874 36.6363 34.3899 29.4292 33.1131 21.0559ZM34.444 21.9373L33.5657 21.3542C35.2615 28.358 34.1602 35.6736 30.3701 42.5281C26.7354 49.1047 20.7767 54.766 13.5613 58.5086C15.8313 58.1831 28.1339 56.4542 29.1676 55.7627C34.9372 51.9184 38.7408 47.9386 41.1324 43.2536C43.4024 38.8059 44.1861 33.9582 43.5983 28.0122C40.5446 25.9918 37.4977 23.9578 34.444 21.9373ZM88.6471 27.3613C83.3707 28.9343 77.9052 29.9038 72.4058 30.236C61.326 30.914 49.7868 29.0563 39.8015 25.0087L43.551 27.4901L43.5375 27.3817C43.5308 27.3003 43.5916 27.2325 43.6929 27.2257C43.7875 27.2189 43.8686 27.2664 43.8888 27.341C43.9159 27.4495 43.9429 27.5512 43.9699 27.6596L43.9969 27.7952L50.7326 32.2565C50.7867 32.2429 50.8475 32.2497 50.9083 32.27C64.096 36.1753 77.8916 39.4771 88.9917 33.4294C91.0388 31.5174 93.0723 29.6326 95.0383 27.8224V27.7478C95.0383 27.6868 95.0788 27.6461 95.1464 27.6257C95.1802 27.6122 95.2207 27.6122 95.2612 27.619C97.1935 25.8358 99.1189 24.0798 100.984 22.378C97.7339 24.2222 93.6939 25.8562 88.6471 27.3613ZM102.504 21.639C100.213 23.7272 97.8285 25.9104 95.4166 28.1275C95.6126 35.6126 100.477 42.3519 108.76 46.6165C109.706 46.4944 115.441 45.83 115.718 45.5588C111.395 42.6773 107.895 38.9212 105.591 34.704C103.328 30.5615 102.267 26.046 102.504 21.639ZM121.88 44.7452C117.333 39.9111 114.313 33.5989 113.354 26.9681C112.881 23.6798 112.921 20.405 113.475 17.232C113.914 14.737 114.543 11.9029 115.867 9.56385C114.09 11.1504 112.313 12.7437 110.577 14.3166C110.482 14.6421 110.395 14.9675 110.307 15.2997C110.064 16.2896 109.874 17.2998 109.753 18.3168C109.577 20.161 109.557 22.0119 109.699 23.8222V23.8289C109.78 24.6968 109.915 25.5646 110.077 26.4257C110.091 26.4867 110.097 26.5477 110.111 26.6087C110.138 26.7443 110.172 26.8799 110.199 27.0088C111.347 32.3649 114.043 37.6601 118.042 42.379C118.353 42.7451 118.677 43.1112 119.002 43.4706C119.454 43.9723 119.921 44.4672 120.407 44.9554L121.88 44.7452ZM120.056 45.0164C119.272 44.2977 118.529 43.5519 117.826 42.7858C117.124 42.0196 116.468 41.2264 115.847 40.4196C115.536 40.0128 115.239 39.606 114.955 39.1856C111.8 34.6091 109.942 29.4089 109.51 23.8357V23.8289C109.402 22.7374 109.374 21.6458 109.408 20.561C109.415 20.2627 109.422 19.9643 109.442 19.666C109.469 19.205 109.51 18.7507 109.564 18.2965C109.564 18.2965 109.564 18.2965 109.564 18.2897C109.678 17.0896 109.854 15.9031 110.091 14.7438C109.456 15.3133 108.834 15.876 108.226 16.432C106.395 18.0863 104.652 19.666 102.956 21.2119C102.537 27.3952 104.706 33.5786 108.949 38.8195C110.246 40.4196 114.421 44.7249 116.401 45.4503C116.482 45.3961 119.394 45.1113 120.056 45.0164ZM109.253 73.5534C110.78 62.7461 113.921 53.6677 118.867 45.8029C117.786 45.952 116.718 46.0944 115.691 46.23C107.118 54.4474 101.97 64.6106 100.605 75.4721C99.8958 81.1605 100.22 87.0455 101.639 92.9441C101.659 93.0187 101.605 93.0797 101.517 93.0933C101.429 93.1068 101.348 93.0662 101.321 92.9916C96.5516 77.1061 101.76 59.2476 114.908 46.3385C111.739 46.7453 108.746 47.0979 105.598 47.4775C104.713 47.586 103.787 47.6945 102.754 47.8098C102.409 47.8504 102.051 47.8911 101.679 47.9318C93.1331 58.6645 90.5051 71.0787 94.2884 82.8894C98.6933 89.3507 103.355 95.9883 108.152 102.626C107.956 93.2289 107.881 83.2555 109.253 73.5534ZM108.192 104.124L108.179 103.419C107.159 102.043 106.145 100.646 105.125 99.2427L105.105 99.2359C104.409 99.0597 103.713 98.8766 103.044 98.6936C100.72 98.0698 98.5244 97.4799 96.0382 97.324C92.9237 97.1409 89.7551 97.4732 86.8636 98.2868C73.48 102.07 75.4257 109.053 75.2433 118.071C76.885 115.82 78.9456 113.793 81.3102 112.037C81.8979 111.596 82.5127 111.176 83.1343 110.769C83.7626 110.362 84.4044 109.975 85.0665 109.609C91.6671 105.921 99.8283 104.043 107.854 104.653C108.3 104.687 108.739 104.728 109.185 104.775L109.05 104.592C108.922 104.423 108.8 104.253 108.672 104.084V104.145C108.672 104.246 108.577 104.321 108.449 104.321C108.327 104.328 108.192 104.246 108.192 104.124Z" fill="#CBCBCB"/>
</g>
<defs>
<clipPath id="clip0_1946_45213">
<rect width="131" height="127" fill="white"/>
</clipPath>
</defs>
</svg>
