<svg width="16" height="16" viewBox="0 0 16 16" fill="none" xmlns="http://www.w3.org/2000/svg">
<path d="M8.6665 6.5H4.6665C4.39317 6.5 4.1665 6.27333 4.1665 6C4.1665 5.72667 4.39317 5.5 4.6665 5.5H8.6665C8.93984 5.5 9.1665 5.72667 9.1665 6C9.1665 6.27333 8.93984 6.5 8.6665 6.5Z" fill="#717171"/>
<path d="M12.6931 9.86662C11.6864 9.86662 10.8331 9.11995 10.7531 8.15995C10.6998 7.60662 10.8998 7.06663 11.2998 6.6733C11.6331 6.32663 12.1064 6.1333 12.6064 6.1333H13.9998C14.6598 6.1533 15.1664 6.67327 15.1664 7.31327V8.68665C15.1664 9.32665 14.6598 9.84662 14.0198 9.86662H12.6931ZM13.9798 7.1333H12.6131C12.3798 7.1333 12.1665 7.21996 12.0131 7.37996C11.8198 7.56663 11.7264 7.81995 11.7531 8.07328C11.7864 8.51328 12.2131 8.86662 12.6931 8.86662H13.9998C14.0864 8.86662 14.1664 8.78665 14.1664 8.68665V7.31327C14.1664 7.21327 14.0864 7.13997 13.9798 7.1333Z" fill="#717171"/>
<path d="M10.6668 14.1666H4.66683C2.3735 14.1666 0.833496 12.6266 0.833496 10.3333V5.66665C0.833496 3.61331 2.10015 2.12665 4.06681 1.87998C4.24681 1.85332 4.4535 1.83331 4.66683 1.83331H10.6668C10.8268 1.83331 11.0335 1.83998 11.2468 1.87331C13.2135 2.09998 14.5002 3.59331 14.5002 5.66665V6.63332C14.5002 6.90665 14.2735 7.13332 14.0002 7.13332H12.6135C12.3802 7.13332 12.1668 7.21998 12.0135 7.37998L12.0068 7.38666C11.8202 7.56666 11.7335 7.8133 11.7535 8.06663C11.7868 8.50663 12.2135 8.85997 12.6935 8.85997H14.0002C14.2735 8.85997 14.5002 9.08663 14.5002 9.35997V10.3266C14.5002 12.6266 12.9602 14.1666 10.6668 14.1666ZM4.66683 2.83331C4.50683 2.83331 4.35349 2.84664 4.20015 2.86664C2.73349 3.0533 1.8335 4.11998 1.8335 5.66665V10.3333C1.8335 12.0533 2.94683 13.1666 4.66683 13.1666H10.6668C12.3868 13.1666 13.5002 12.0533 13.5002 10.3333V9.86664H12.6935C11.6868 9.86664 10.8335 9.11997 10.7535 8.15997C10.7002 7.61331 10.9002 7.06666 11.3002 6.67999C11.6468 6.32666 12.1135 6.13332 12.6135 6.13332H13.5002V5.66665C13.5002 4.10665 12.5868 3.0333 11.1068 2.85997C10.9468 2.8333 10.8068 2.83331 10.6668 2.83331H4.66683Z" fill="#717171"/>
</svg>
