<svg width="24" height="24" viewBox="0 0 24 24" fill="none" xmlns="http://www.w3.org/2000/svg">
<rect width="24" height="24" rx="4" fill="#E5F2E9"/>
<path d="M12.0003 12.5002C9.88699 12.5002 8.16699 10.7802 8.16699 8.66683C8.16699 6.5535 9.88699 4.8335 12.0003 4.8335C14.1137 4.8335 15.8337 6.5535 15.8337 8.66683C15.8337 10.7802 14.1137 12.5002 12.0003 12.5002ZM12.0003 5.8335C10.4403 5.8335 9.16699 7.10683 9.16699 8.66683C9.16699 10.2268 10.4403 11.5002 12.0003 11.5002C13.5603 11.5002 14.8337 10.2268 14.8337 8.66683C14.8337 7.10683 13.5603 5.8335 12.0003 5.8335Z" fill="#417F56"/>
<path d="M17.7268 19.1667C17.4534 19.1667 17.2268 18.94 17.2268 18.6667C17.2268 16.3667 14.8801 14.5 12.0001 14.5C9.1201 14.5 6.77344 16.3667 6.77344 18.6667C6.77344 18.94 6.54677 19.1667 6.27344 19.1667C6.0001 19.1667 5.77344 18.94 5.77344 18.6667C5.77344 15.82 8.56677 13.5 12.0001 13.5C15.4334 13.5 18.2268 15.82 18.2268 18.6667C18.2268 18.94 18.0001 19.1667 17.7268 19.1667Z" fill="#417F56"/>
</svg>
