<svg width="16" height="16" viewBox="0 0 16 16" fill="none" xmlns="http://www.w3.org/2000/svg">
<path d="M7.99992 9.44655C6.57992 9.44655 5.41992 8.29321 5.41992 6.86655C5.41992 5.43988 6.57992 4.29321 7.99992 4.29321C9.41992 4.29321 10.5799 5.44655 10.5799 6.87321C10.5799 8.29988 9.41992 9.44655 7.99992 9.44655ZM7.99992 5.29321C7.13326 5.29321 6.41992 5.99988 6.41992 6.87321C6.41992 7.74655 7.12659 8.45321 7.99992 8.45321C8.87326 8.45321 9.57992 7.74655 9.57992 6.87321C9.57992 5.99988 8.86659 5.29321 7.99992 5.29321Z" fill="#353535"/>
<path d="M7.99914 15.1733C7.01247 15.1733 6.01914 14.7999 5.24581 14.0599C3.27914 12.1666 1.10581 9.14659 1.92581 5.55325C2.66581 2.29325 5.51247 0.833252 7.99914 0.833252C7.99914 0.833252 7.99914 0.833252 8.00581 0.833252C10.4925 0.833252 13.3391 2.29325 14.0791 5.55992C14.8925 9.15325 12.7191 12.1666 10.7525 14.0599C9.97914 14.7999 8.98581 15.1733 7.99914 15.1733ZM7.99914 1.83325C6.05914 1.83325 3.56581 2.86659 2.90581 5.77325C2.18581 8.91325 4.15914 11.6199 5.94581 13.3333C7.09914 14.4466 8.90581 14.4466 10.0591 13.3333C11.8391 11.6199 13.8125 8.91325 13.1058 5.77325C12.4391 2.86659 9.93914 1.83325 7.99914 1.83325Z" fill="#353535"/>
</svg>
