<svg width="16" height="16" viewBox="0 0 16 16" fill="none" xmlns="http://www.w3.org/2000/svg">
<path d="M8.66602 6.5H4.66602C4.39268 6.5 4.16602 6.27333 4.16602 6C4.16602 5.72667 4.39268 5.5 4.66602 5.5H8.66602C8.93935 5.5 9.16602 5.72667 9.16602 6C9.16602 6.27333 8.93935 6.5 8.66602 6.5Z" fill="#353535"/>
<path d="M12.6926 9.86662C11.6859 9.86662 10.8326 9.11995 10.7526 8.15995C10.6993 7.60662 10.8993 7.06663 11.2993 6.6733C11.6326 6.32663 12.1059 6.1333 12.6059 6.1333H13.9993C14.6593 6.1533 15.166 6.67327 15.166 7.31327V8.68665C15.166 9.32665 14.6593 9.84662 14.0193 9.86662H12.6926ZM13.9793 7.1333H12.6126C12.3793 7.1333 12.166 7.21996 12.0126 7.37996C11.8193 7.56663 11.726 7.81995 11.7526 8.07328C11.786 8.51328 12.2126 8.86662 12.6926 8.86662H13.9993C14.086 8.86662 14.166 8.78665 14.166 8.68665V7.31327C14.166 7.21327 14.0859 7.13997 13.9793 7.1333Z" fill="#353535"/>
<path d="M10.6673 14.1666H4.66732C2.37398 14.1666 0.833984 12.6266 0.833984 10.3333V5.66659C0.833984 3.61325 2.10063 2.12659 4.0673 1.87992C4.2473 1.85326 4.45398 1.83325 4.66732 1.83325H10.6673C10.8273 1.83325 11.034 1.83992 11.2473 1.87325C13.214 2.09992 14.5007 3.59325 14.5007 5.66659V6.63326C14.5007 6.90659 14.274 7.13326 14.0007 7.13326H12.614C12.3806 7.13326 12.1673 7.21992 12.014 7.37992L12.0073 7.3866C11.8207 7.5666 11.734 7.81324 11.754 8.06657C11.7873 8.50657 12.214 8.8599 12.694 8.8599H14.0007C14.274 8.8599 14.5007 9.08657 14.5007 9.3599V10.3266C14.5007 12.6266 12.9607 14.1666 10.6673 14.1666ZM4.66732 2.83325C4.50732 2.83325 4.35398 2.84658 4.20064 2.86658C2.73398 3.05324 1.83398 4.11992 1.83398 5.66659V10.3333C1.83398 12.0533 2.94732 13.1666 4.66732 13.1666H10.6673C12.3873 13.1666 13.5007 12.0533 13.5007 10.3333V9.86658H12.694C11.6873 9.86658 10.834 9.11991 10.754 8.15991C10.7007 7.61325 10.9007 7.0666 11.3007 6.67993C11.6473 6.3266 12.114 6.13326 12.614 6.13326H13.5007V5.66659C13.5007 4.10659 12.5873 3.03324 11.1073 2.8599C10.9473 2.83324 10.8073 2.83325 10.6673 2.83325H4.66732Z" fill="#353535"/>
</svg>
