<svg width="20" height="20" viewBox="0 0 20 20" fill="none" xmlns="http://www.w3.org/2000/svg">
<path d="M18.3329 9.14175V10.8584C18.3329 11.3167 17.9662 11.6917 17.4995 11.7084H15.8662C14.9662 11.7084 14.1412 11.0501 14.0662 10.1501C14.0162 9.62508 14.2162 9.13342 14.5662 8.79175C14.8745 8.47508 15.2995 8.29175 15.7662 8.29175H17.4995C17.9662 8.30841 18.3329 8.68342 18.3329 9.14175Z" fill="#417F56"/>
<path d="M17.0596 12.9584H15.868C14.2846 12.9584 12.9513 11.7667 12.818 10.2501C12.743 9.38342 13.0596 8.51675 13.693 7.90008C14.2263 7.35008 14.968 7.04175 15.768 7.04175H17.0596C17.3013 7.04175 17.5013 6.84175 17.4763 6.60008C17.293 4.57508 15.9513 3.19175 13.9596 2.95841C13.7596 2.92508 13.5513 2.91675 13.3346 2.91675H5.83464C5.6013 2.91675 5.3763 2.93341 5.15964 2.96675C3.03464 3.23341 1.66797 4.81675 1.66797 7.08342V12.9167C1.66797 15.2167 3.53464 17.0834 5.83464 17.0834H13.3346C15.668 17.0834 17.2763 15.6251 17.4763 13.4001C17.5013 13.1584 17.3013 12.9584 17.0596 12.9584ZM10.8346 8.12508H5.83464C5.49297 8.12508 5.20964 7.84175 5.20964 7.50008C5.20964 7.15841 5.49297 6.87508 5.83464 6.87508H10.8346C11.1763 6.87508 11.4596 7.15841 11.4596 7.50008C11.4596 7.84175 11.1763 8.12508 10.8346 8.12508Z" fill="#417F56"/>
</svg>
