<svg width="280" height="24" viewBox="0 0 280 24" fill="none" xmlns="http://www.w3.org/2000/svg">
<path d="M8.00065 19.1668C4.04732 19.1668 0.833984 15.9535 0.833984 12.0002C0.833984 8.04683 4.04732 4.8335 8.00065 4.8335C11.954 4.8335 15.1673 8.04683 15.1673 12.0002C15.1673 15.9535 11.954 19.1668 8.00065 19.1668ZM8.00065 5.8335C4.60065 5.8335 1.83398 8.60016 1.83398 12.0002C1.83398 15.4002 4.60065 18.1668 8.00065 18.1668C11.4007 18.1668 14.1673 15.4002 14.1673 12.0002C14.1673 8.60016 11.4007 5.8335 8.00065 5.8335Z" fill="#CBCBCB"/>
<path d="M7.05297 14.3867C6.91964 14.3867 6.79297 14.3334 6.69964 14.2401L4.81297 12.3534C4.61964 12.1601 4.61964 11.8401 4.81297 11.6467C5.0063 11.4534 5.3263 11.4534 5.51964 11.6467L7.05297 13.1801L10.4796 9.7534C10.673 9.56007 10.993 9.56007 11.1863 9.7534C11.3796 9.94673 11.3796 10.2667 11.1863 10.4601L7.4063 14.2401C7.31297 14.3334 7.1863 14.3867 7.05297 14.3867Z" fill="#CBCBCB"/>
<line x1="123.5" y1="12.5" x2="20.5" y2="12.5" stroke="#CBCBCB" stroke-linecap="round" stroke-dasharray="4 4"/>
<path d="M135.334 13.8335H136.001C136.274 13.8335 136.501 13.6068 136.501 13.3335C136.501 13.0602 136.274 12.8335 136.001 12.8335H135.334C134.874 12.8335 134.501 12.4602 134.501 12.0002V5.8335H140.001C140.787 5.8335 141.507 6.26015 141.894 6.94682C142.027 7.18682 142.334 7.27351 142.574 7.14018C142.814 7.00684 142.901 6.70016 142.767 6.46016C142.207 5.46016 141.147 4.8335 140.001 4.8335H134.001C133.727 4.8335 133.501 5.06016 133.501 5.3335V12.0002C133.501 13.0135 134.321 13.8335 135.334 13.8335Z" fill="#CBCBCB"/>
<path d="M131.333 17.8335H131.999C132.273 17.8335 132.499 17.6068 132.499 17.3335C132.499 16.8735 132.873 16.5002 133.333 16.5002C133.793 16.5002 134.166 16.8735 134.166 17.3335C134.166 17.6068 134.393 17.8335 134.666 17.8335H137.333C137.606 17.8335 137.833 17.6068 137.833 17.3335C137.833 16.8735 138.206 16.5002 138.666 16.5002C139.126 16.5002 139.499 16.8735 139.499 17.3335C139.499 17.6068 139.726 17.8335 139.999 17.8335H140.666C142.046 17.8335 143.166 16.7135 143.166 15.3335C143.166 15.0602 142.939 14.8335 142.666 14.8335C142.393 14.8335 142.166 15.0602 142.166 15.3335C142.166 16.1602 141.493 16.8335 140.666 16.8335H140.433C140.213 16.0668 139.506 15.5002 138.666 15.5002C137.826 15.5002 137.119 16.0668 136.899 16.8335H135.093C134.873 16.0668 134.166 15.5002 133.326 15.5002C132.486 15.5002 131.779 16.0668 131.559 16.8335H131.333C130.506 16.8335 129.833 16.1602 129.833 15.3335V13.8335H131.333C131.973 13.8335 132.499 13.3068 132.499 12.6668V10.6668C132.499 10.0268 131.979 9.50016 131.333 9.50016L132.046 8.2535C132.193 7.9935 132.473 7.8335 132.773 7.8335H133.499V12.0002C133.499 13.0135 134.319 13.8335 135.333 13.8335H135.999C136.273 13.8335 136.499 13.6068 136.499 13.3335C136.499 13.0602 136.273 12.8335 135.999 12.8335H135.333C134.873 12.8335 134.499 12.4602 134.499 12.0002V7.3335C134.499 7.06016 134.273 6.8335 133.999 6.8335H132.773C132.113 6.8335 131.506 7.18684 131.179 7.76017L130.039 9.7535C129.953 9.90683 129.953 10.1002 130.039 10.2535C130.126 10.4068 130.293 10.5002 130.473 10.5002H131.333C131.426 10.5002 131.499 10.5735 131.499 10.6668V12.6668C131.499 12.7602 131.426 12.8335 131.333 12.8335H129.333C129.059 12.8335 128.833 13.0602 128.833 13.3335V15.3335C128.833 16.7135 129.953 17.8335 131.333 17.8335Z" fill="#CBCBCB"/>
<path d="M138.667 19.1667C139.68 19.1667 140.5 18.3467 140.5 17.3333C140.5 16.32 139.68 15.5 138.667 15.5C137.653 15.5 136.833 16.32 136.833 17.3333C136.833 18.3467 137.653 19.1667 138.667 19.1667ZM138.667 16.5C139.127 16.5 139.5 16.8733 139.5 17.3333C139.5 17.7933 139.127 18.1667 138.667 18.1667C138.207 18.1667 137.833 17.7933 137.833 17.3333C137.833 16.8733 138.207 16.5 138.667 16.5Z" fill="#CBCBCB"/>
<path d="M133.333 19.1667C134.346 19.1667 135.166 18.3467 135.166 17.3333C135.166 16.32 134.346 15.5 133.333 15.5C132.319 15.5 131.499 16.32 131.499 17.3333C131.499 18.3467 132.319 19.1667 133.333 19.1667ZM133.333 16.5C133.793 16.5 134.166 16.8733 134.166 17.3333C134.166 17.7933 133.793 18.1667 133.333 18.1667C132.873 18.1667 132.499 17.7933 132.499 17.3333C132.499 16.8733 132.873 16.5 133.333 16.5Z" fill="#CBCBCB"/>
<path d="M129.333 13.8333H131.333C131.973 13.8333 132.5 13.3067 132.5 12.6667V10.6667C132.5 10.0267 131.973 9.5 131.333 9.5H130.473C130.293 9.5 130.127 9.59334 130.04 9.75334L128.9 11.7533C128.86 11.8267 128.833 11.9133 128.833 12V13.3333C128.833 13.6067 129.06 13.8333 129.333 13.8333ZM131.333 10.5C131.427 10.5 131.5 10.5733 131.5 10.6667V12.6667C131.5 12.76 131.427 12.8333 131.333 12.8333H129.833V12.1333L130.767 10.5H131.333Z" fill="#CBCBCB"/>
<path d="M138.666 9.8335H142.666C142.939 9.8335 143.166 9.60683 143.166 9.3335C143.166 9.06016 142.939 8.8335 142.666 8.8335H138.666C138.393 8.8335 138.166 9.06016 138.166 9.3335C138.166 9.60683 138.393 9.8335 138.666 9.8335Z" fill="#CBCBCB"/>
<path d="M139.999 11.8335H142.666C142.939 11.8335 143.166 11.6068 143.166 11.3335C143.166 11.0602 142.939 10.8335 142.666 10.8335H139.999C139.726 10.8335 139.499 11.0602 139.499 11.3335C139.499 11.6068 139.726 11.8335 139.999 11.8335Z" fill="#CBCBCB"/>
<path d="M141.333 13.8335H142.666C142.939 13.8335 143.166 13.6068 143.166 13.3335C143.166 13.0602 142.939 12.8335 142.666 12.8335H141.333C141.059 12.8335 140.833 13.0602 140.833 13.3335C140.833 13.6068 141.059 13.8335 141.333 13.8335Z" fill="#CBCBCB"/>
<line x1="251.5" y1="12.5" x2="148.5" y2="12.5" stroke="url(#paint0_linear_1517_45080)" stroke-linecap="round" stroke-dasharray="4 4"/>
<path d="M268.001 18.7498C267.591 18.7498 267.251 18.4098 267.251 17.9998V14.9998C267.251 14.5898 267.591 14.2498 268.001 14.2498C268.411 14.2498 268.751 14.5898 268.751 14.9998V17.9998C268.751 18.4098 268.411 18.7498 268.001 18.7498Z" fill="#417F56"/>
<path d="M273.601 22.5598H262.401C260.581 22.5598 258.921 21.1598 258.621 19.3698L257.291 11.3998C257.071 10.1598 257.681 8.56982 258.671 7.77982L265.601 2.22982C266.941 1.14982 269.051 1.15982 270.401 2.23982L277.331 7.77982C278.311 8.56982 278.911 10.1598 278.711 11.3998L277.381 19.3598C277.081 21.1298 275.381 22.5598 273.601 22.5598ZM267.991 2.92982C267.461 2.92982 266.931 3.08982 266.541 3.39982L259.611 8.95982C259.051 9.40982 258.651 10.4498 258.771 11.1598L260.101 19.1198C260.281 20.1698 261.331 21.0598 262.401 21.0598H273.601C274.671 21.0598 275.721 20.1698 275.901 19.1098L277.231 11.1498C277.341 10.4498 276.941 9.38982 276.391 8.94982L269.461 3.40982C269.061 3.08982 268.521 2.92982 267.991 2.92982Z" fill="#417F56"/>
<defs>
<linearGradient id="paint0_linear_1517_45080" x1="252" y1="12" x2="148" y2="12" gradientUnits="userSpaceOnUse">
<stop offset="0.485754" stop-color="#417F56"/>
<stop offset="0.501641" stop-color="#CBCBCB"/>
</linearGradient>
</defs>
</svg>
