<svg width="280" height="24" viewBox="0 0 280 24" fill="none" xmlns="http://www.w3.org/2000/svg">
<path d="M12 22.75C6.07 22.75 1.25 17.93 1.25 12C1.25 6.07 6.07 1.25 12 1.25C17.93 1.25 22.75 6.07 22.75 12C22.75 17.93 17.93 22.75 12 22.75ZM12 2.75C6.9 2.75 2.75 6.9 2.75 12C2.75 17.1 6.9 21.25 12 21.25C17.1 21.25 21.25 17.1 21.25 12C21.25 6.9 17.1 2.75 12 2.75Z" fill="#417F56"/>
<path d="M10.5795 15.5801C10.3795 15.5801 10.1895 15.5001 10.0495 15.3601L7.21945 12.5301C6.92945 12.2401 6.92945 11.7601 7.21945 11.4701C7.50945 11.1801 7.98945 11.1801 8.27945 11.4701L10.5795 13.7701L15.7195 8.6301C16.0095 8.3401 16.4895 8.3401 16.7795 8.6301C17.0695 8.9201 17.0695 9.4001 16.7795 9.6901L11.1095 15.3601C10.9695 15.5001 10.7795 15.5801 10.5795 15.5801Z" fill="#417F56"/>
<line x1="131.5" y1="12.5" x2="28.5" y2="12.5" stroke="#417F56" stroke-linecap="round" stroke-dasharray="4 4"/>
<path d="M143.334 13.8335H144.001C144.274 13.8335 144.501 13.6068 144.501 13.3335C144.501 13.0602 144.274 12.8335 144.001 12.8335H143.334C142.874 12.8335 142.501 12.4602 142.501 12.0002V5.8335H148.001C148.787 5.8335 149.507 6.26015 149.894 6.94682C150.027 7.18682 150.334 7.27351 150.574 7.14018C150.814 7.00684 150.901 6.70016 150.767 6.46016C150.207 5.46016 149.147 4.8335 148.001 4.8335H142.001C141.727 4.8335 141.501 5.06016 141.501 5.3335V12.0002C141.501 13.0135 142.321 13.8335 143.334 13.8335Z" fill="#417F56"/>
<path d="M139.333 17.8335H139.999C140.273 17.8335 140.499 17.6068 140.499 17.3335C140.499 16.8735 140.873 16.5002 141.333 16.5002C141.793 16.5002 142.166 16.8735 142.166 17.3335C142.166 17.6068 142.393 17.8335 142.666 17.8335H145.333C145.606 17.8335 145.833 17.6068 145.833 17.3335C145.833 16.8735 146.206 16.5002 146.666 16.5002C147.126 16.5002 147.499 16.8735 147.499 17.3335C147.499 17.6068 147.726 17.8335 147.999 17.8335H148.666C150.046 17.8335 151.166 16.7135 151.166 15.3335C151.166 15.0602 150.939 14.8335 150.666 14.8335C150.393 14.8335 150.166 15.0602 150.166 15.3335C150.166 16.1602 149.493 16.8335 148.666 16.8335H148.433C148.213 16.0668 147.506 15.5002 146.666 15.5002C145.826 15.5002 145.119 16.0668 144.899 16.8335H143.093C142.873 16.0668 142.166 15.5002 141.326 15.5002C140.486 15.5002 139.779 16.0668 139.559 16.8335H139.333C138.506 16.8335 137.833 16.1602 137.833 15.3335V13.8335H139.333C139.973 13.8335 140.499 13.3068 140.499 12.6668V10.6668C140.499 10.0268 139.979 9.50016 139.333 9.50016L140.046 8.2535C140.193 7.9935 140.473 7.8335 140.773 7.8335H141.499V12.0002C141.499 13.0135 142.319 13.8335 143.333 13.8335H143.999C144.273 13.8335 144.499 13.6068 144.499 13.3335C144.499 13.0602 144.273 12.8335 143.999 12.8335H143.333C142.873 12.8335 142.499 12.4602 142.499 12.0002V7.3335C142.499 7.06016 142.273 6.8335 141.999 6.8335H140.773C140.113 6.8335 139.506 7.18684 139.179 7.76017L138.039 9.7535C137.953 9.90683 137.953 10.1002 138.039 10.2535C138.126 10.4068 138.293 10.5002 138.473 10.5002H139.333C139.426 10.5002 139.499 10.5735 139.499 10.6668V12.6668C139.499 12.7602 139.426 12.8335 139.333 12.8335H137.333C137.059 12.8335 136.833 13.0602 136.833 13.3335V15.3335C136.833 16.7135 137.953 17.8335 139.333 17.8335Z" fill="#417F56"/>
<path d="M146.667 19.1667C147.68 19.1667 148.5 18.3467 148.5 17.3333C148.5 16.32 147.68 15.5 146.667 15.5C145.653 15.5 144.833 16.32 144.833 17.3333C144.833 18.3467 145.653 19.1667 146.667 19.1667ZM146.667 16.5C147.127 16.5 147.5 16.8733 147.5 17.3333C147.5 17.7933 147.127 18.1667 146.667 18.1667C146.207 18.1667 145.833 17.7933 145.833 17.3333C145.833 16.8733 146.207 16.5 146.667 16.5Z" fill="#417F56"/>
<path d="M141.333 19.1667C142.346 19.1667 143.166 18.3467 143.166 17.3333C143.166 16.32 142.346 15.5 141.333 15.5C140.319 15.5 139.499 16.32 139.499 17.3333C139.499 18.3467 140.319 19.1667 141.333 19.1667ZM141.333 16.5C141.793 16.5 142.166 16.8733 142.166 17.3333C142.166 17.7933 141.793 18.1667 141.333 18.1667C140.873 18.1667 140.499 17.7933 140.499 17.3333C140.499 16.8733 140.873 16.5 141.333 16.5Z" fill="#417F56"/>
<path d="M137.333 13.8333H139.333C139.973 13.8333 140.5 13.3067 140.5 12.6667V10.6667C140.5 10.0267 139.973 9.5 139.333 9.5H138.473C138.293 9.5 138.127 9.59334 138.04 9.75334L136.9 11.7533C136.86 11.8267 136.833 11.9133 136.833 12V13.3333C136.833 13.6067 137.06 13.8333 137.333 13.8333ZM139.333 10.5C139.427 10.5 139.5 10.5733 139.5 10.6667V12.6667C139.5 12.76 139.427 12.8333 139.333 12.8333H137.833V12.1333L138.767 10.5H139.333Z" fill="#417F56"/>
<path d="M146.666 9.8335H150.666C150.939 9.8335 151.166 9.60683 151.166 9.3335C151.166 9.06016 150.939 8.8335 150.666 8.8335H146.666C146.393 8.8335 146.166 9.06016 146.166 9.3335C146.166 9.60683 146.393 9.8335 146.666 9.8335Z" fill="#417F56"/>
<path d="M147.999 11.8335H150.666C150.939 11.8335 151.166 11.6068 151.166 11.3335C151.166 11.0602 150.939 10.8335 150.666 10.8335H147.999C147.726 10.8335 147.499 11.0602 147.499 11.3335C147.499 11.6068 147.726 11.8335 147.999 11.8335Z" fill="#417F56"/>
<path d="M149.333 13.8335H150.666C150.939 13.8335 151.166 13.6068 151.166 13.3335C151.166 13.0602 150.939 12.8335 150.666 12.8335H149.333C149.059 12.8335 148.833 13.0602 148.833 13.3335C148.833 13.6068 149.059 13.8335 149.333 13.8335Z" fill="#417F56"/>
<line x1="259.5" y1="12.5" x2="156.5" y2="12.5" stroke="#417F56" stroke-linecap="round" stroke-dasharray="4 4"/>
<path d="M272 16.5002C271.727 16.5002 271.5 16.2735 271.5 16.0002V14.0002C271.5 13.7269 271.727 13.5002 272 13.5002C272.273 13.5002 272.5 13.7269 272.5 14.0002V16.0002C272.5 16.2735 272.273 16.5002 272 16.5002Z" fill="#417F56"/>
<path d="M275.733 19.0402H268.267C267.053 19.0402 265.947 18.1069 265.747 16.9135L264.86 11.6002C264.713 10.7735 265.12 9.71354 265.78 9.18687L270.4 5.48687C271.293 4.76687 272.7 4.77354 273.6 5.49354L278.22 9.18687C278.873 9.71354 279.273 10.7735 279.14 11.6002L278.253 16.9069C278.053 18.0869 276.92 19.0402 275.733 19.0402ZM271.993 5.95354C271.64 5.95354 271.287 6.06021 271.027 6.26687L266.407 9.97354C266.033 10.2735 265.767 10.9669 265.847 11.4402L266.733 16.7469C266.853 17.4469 267.553 18.0402 268.267 18.0402H275.733C276.447 18.0402 277.147 17.4469 277.267 16.7402L278.153 11.4335C278.227 10.9669 277.96 10.2602 277.593 9.96687L272.973 6.27354C272.707 6.06021 272.347 5.95354 271.993 5.95354Z" fill="#417F56"/>
</svg>
