<svg width="280" height="24" viewBox="0 0 280 24" fill="none" xmlns="http://www.w3.org/2000/svg">
<path d="M12 22.75C6.07 22.75 1.25 17.93 1.25 12C1.25 6.07 6.07 1.25 12 1.25C17.93 1.25 22.75 6.07 22.75 12C22.75 17.93 17.93 22.75 12 22.75ZM12 2.75C6.9 2.75 2.75 6.9 2.75 12C2.75 17.1 6.9 21.25 12 21.25C17.1 21.25 21.25 17.1 21.25 12C21.25 6.9 17.1 2.75 12 2.75Z" fill="#417F56"/>
<path d="M10.5795 15.5801C10.3795 15.5801 10.1895 15.5001 10.0495 15.3601L7.21945 12.5301C6.92945 12.2401 6.92945 11.7601 7.21945 11.4701C7.50945 11.1801 7.98945 11.1801 8.27945 11.4701L10.5795 13.7701L15.7195 8.6301C16.0095 8.3401 16.4895 8.3401 16.7795 8.6301C17.0695 8.9201 17.0695 9.4001 16.7795 9.6901L11.1095 15.3601C10.9695 15.5001 10.7795 15.5801 10.5795 15.5801Z" fill="#417F56"/>
<line x1="131.5" y1="12.5" x2="28.5" y2="12.5" stroke="#417F56" stroke-linecap="round" stroke-dasharray="4 4"/>
<path d="M144 12.8669C144.086 12.8669 144.173 12.8469 144.253 12.8002L150.14 9.39359C150.38 9.25359 150.46 8.94691 150.32 8.70691C150.18 8.46691 149.88 8.38689 149.633 8.52689L144 11.7869L138.4 8.54691C138.16 8.40691 137.853 8.49359 137.713 8.72693C137.573 8.96693 137.66 9.27357 137.893 9.41357L143.74 12.8002C143.826 12.8402 143.913 12.8669 144 12.8669Z" fill="#417F56"/>
<path d="M144 18.9065C144.273 18.9065 144.5 18.6799 144.5 18.4065V12.3599C144.5 12.0865 144.273 11.8599 144 11.8599C143.727 11.8599 143.5 12.0865 143.5 12.3599V18.4065C143.5 18.6799 143.727 18.9065 144 18.9065Z" fill="#417F56"/>
<path d="M144 19.1668C144.586 19.1668 145.166 19.0402 145.626 18.7868L149.186 16.8068C150.153 16.2735 150.906 14.9868 150.906 13.8802V10.1135C150.906 9.00681 150.153 7.72684 149.186 7.18684L145.626 5.2135C144.713 4.70683 143.286 4.70683 142.373 5.2135L138.813 7.19348C137.846 7.72681 137.093 9.01349 137.093 10.1202V13.8868C137.093 14.9935 137.846 16.2735 138.813 16.8135L142.373 18.7868C142.833 19.0402 143.413 19.1668 144 19.1668ZM144 5.83349C144.42 5.83349 144.833 5.92016 145.14 6.08683L148.7 8.06681C149.34 8.42681 149.906 9.38015 149.906 10.1202V13.8868C149.906 14.6202 149.34 15.5801 148.7 15.9401L145.14 17.9202C144.533 18.2602 143.466 18.2602 142.86 17.9202L139.3 15.9401C138.66 15.5801 138.093 14.6268 138.093 13.8868V10.1202C138.093 9.38682 138.66 8.42681 139.3 8.06681L142.86 6.08683C143.166 5.92016 143.58 5.83349 144 5.83349Z" fill="#417F56"/>
<path d="M140.667 13.3269C140.941 13.3269 141.167 13.1002 141.167 12.8269V10.6802L147.247 7.17354C147.487 7.03354 147.567 6.72686 147.427 6.49353C147.287 6.25353 146.987 6.17351 146.747 6.31351L140.421 9.96688C140.267 10.0535 140.167 10.2202 140.167 10.4002V12.8402C140.167 13.1002 140.394 13.3269 140.667 13.3269Z" fill="#417F56"/>
<line x1="259.5" y1="12.5" x2="156.5" y2="12.5" stroke="#417F56" stroke-linecap="round" stroke-dasharray="4 4"/>
<path d="M272 16.5002C271.727 16.5002 271.5 16.2735 271.5 16.0002V14.0002C271.5 13.7269 271.727 13.5002 272 13.5002C272.273 13.5002 272.5 13.7269 272.5 14.0002V16.0002C272.5 16.2735 272.273 16.5002 272 16.5002Z" fill="#417F56"/>
<path d="M275.733 19.0402H268.267C267.053 19.0402 265.947 18.1069 265.747 16.9135L264.86 11.6002C264.713 10.7735 265.12 9.71354 265.78 9.18687L270.4 5.48687C271.293 4.76687 272.7 4.77354 273.6 5.49354L278.22 9.18687C278.873 9.71354 279.273 10.7735 279.14 11.6002L278.253 16.9069C278.053 18.0869 276.92 19.0402 275.733 19.0402ZM271.993 5.95354C271.64 5.95354 271.287 6.06021 271.027 6.26687L266.407 9.97354C266.033 10.2735 265.767 10.9669 265.847 11.4402L266.733 16.7469C266.853 17.4469 267.553 18.0402 268.267 18.0402H275.733C276.447 18.0402 277.147 17.4469 277.267 16.7402L278.153 11.4335C278.227 10.9669 277.96 10.2602 277.593 9.96687L272.973 6.27354C272.707 6.06021 272.347 5.95354 271.993 5.95354Z" fill="#417F56"/>
</svg>
