<svg width="280" height="24" viewBox="0 0 280 24" fill="none" xmlns="http://www.w3.org/2000/svg">
<path d="M8.00065 19.1668C4.04732 19.1668 0.833984 15.9535 0.833984 12.0002C0.833984 8.04683 4.04732 4.8335 8.00065 4.8335C11.954 4.8335 15.1673 8.04683 15.1673 12.0002C15.1673 15.9535 11.954 19.1668 8.00065 19.1668ZM8.00065 5.8335C4.60065 5.8335 1.83398 8.60016 1.83398 12.0002C1.83398 15.4002 4.60065 18.1668 8.00065 18.1668C11.4007 18.1668 14.1673 15.4002 14.1673 12.0002C14.1673 8.60016 11.4007 5.8335 8.00065 5.8335Z" fill="#CBCBCB"/>
<path d="M7.05297 14.3867C6.91964 14.3867 6.79297 14.3334 6.69964 14.2401L4.81297 12.3534C4.61964 12.1601 4.61964 11.8401 4.81297 11.6467C5.0063 11.4534 5.3263 11.4534 5.51964 11.6467L7.05297 13.1801L10.4796 9.7534C10.673 9.56007 10.993 9.56007 11.1863 9.7534C11.3796 9.94673 11.3796 10.2667 11.1863 10.4601L7.4063 14.2401C7.31297 14.3334 7.1863 14.3867 7.05297 14.3867Z" fill="#CBCBCB"/>
<line x1="123.5" y1="12.5" x2="20.5" y2="12.5" stroke="url(#paint0_linear_2092_35830)" stroke-linecap="round" stroke-dasharray="4 4"/>
<path d="M140.001 13.2999C140.131 13.2999 140.261 13.2699 140.381 13.1999L149.211 8.0899C149.571 7.8799 149.691 7.41987 149.481 7.05987C149.271 6.69987 148.821 6.57985 148.451 6.78985L140.001 11.6799L131.601 6.81988C131.241 6.60988 130.781 6.7399 130.571 7.0899C130.361 7.4499 130.491 7.90987 130.841 8.11987L139.611 13.1999C139.741 13.2599 139.871 13.2999 140.001 13.2999Z" fill="#417F56"/>
<path d="M140 22.36C140.41 22.36 140.75 22.02 140.75 21.61V12.54C140.75 12.13 140.41 11.79 140 11.79C139.59 11.79 139.25 12.13 139.25 12.54V21.61C139.25 22.02 139.59 22.36 140 22.36Z" fill="#417F56"/>
<path d="M139.999 22.75C140.879 22.75 141.749 22.56 142.439 22.18L147.779 19.21C149.229 18.41 150.359 16.48 150.359 14.82V9.16998C150.359 7.50998 149.229 5.59002 147.779 4.78002L142.439 1.82C141.069 1.06 138.929 1.06 137.559 1.82L132.219 4.78997C130.769 5.58997 129.639 7.51999 129.639 9.17999V14.83C129.639 16.49 130.769 18.41 132.219 19.22L137.559 22.18C138.249 22.56 139.119 22.75 139.999 22.75ZM139.999 2.74999C140.629 2.74999 141.249 2.88 141.709 3.13L147.049 6.09997C148.009 6.63997 148.859 8.06999 148.859 9.17999V14.83C148.859 15.93 148.009 17.37 147.049 17.91L141.709 20.88C140.799 21.39 139.199 21.39 138.289 20.88L132.949 17.91C131.989 17.37 131.139 15.94 131.139 14.83V9.17999C131.139 8.07999 131.989 6.63997 132.949 6.09997L138.289 3.13C138.749 2.88 139.369 2.74999 139.999 2.74999Z" fill="#417F56"/>
<path d="M134.999 13.99C135.409 13.99 135.749 13.65 135.749 13.24V10.0201L144.869 4.76007C145.229 4.55007 145.349 4.09005 145.139 3.74005C144.929 3.38005 144.479 3.26003 144.119 3.47003L134.629 8.95007C134.399 9.08007 134.249 9.33003 134.249 9.60003V13.2601C134.249 13.6501 134.589 13.99 134.999 13.99Z" fill="#417F56"/>
<line x1="259.5" y1="12.5" x2="156.5" y2="12.5" stroke="#417F56" stroke-linecap="round" stroke-dasharray="4 4"/>
<path d="M272 16.5002C271.727 16.5002 271.5 16.2735 271.5 16.0002V14.0002C271.5 13.7269 271.727 13.5002 272 13.5002C272.273 13.5002 272.5 13.7269 272.5 14.0002V16.0002C272.5 16.2735 272.273 16.5002 272 16.5002Z" fill="#417F56"/>
<path d="M275.733 19.0402H268.267C267.053 19.0402 265.947 18.1069 265.747 16.9135L264.86 11.6002C264.713 10.7735 265.12 9.71354 265.78 9.18687L270.4 5.48687C271.293 4.76687 272.7 4.77354 273.6 5.49354L278.22 9.18687C278.873 9.71354 279.273 10.7735 279.14 11.6002L278.253 16.9069C278.053 18.0869 276.92 19.0402 275.733 19.0402ZM271.993 5.95354C271.64 5.95354 271.287 6.06021 271.027 6.26687L266.407 9.97354C266.033 10.2735 265.767 10.9669 265.847 11.4402L266.733 16.7469C266.853 17.4469 267.553 18.0402 268.267 18.0402H275.733C276.447 18.0402 277.147 17.4469 277.267 16.7402L278.153 11.4335C278.227 10.9669 277.96 10.2602 277.593 9.96687L272.973 6.27354C272.707 6.06021 272.347 5.95354 271.993 5.95354Z" fill="#417F56"/>
<defs>
<linearGradient id="paint0_linear_2092_35830" x1="124" y1="12" x2="20" y2="12" gradientUnits="userSpaceOnUse">
<stop offset="0.485754" stop-color="#417F56"/>
<stop offset="0.501641" stop-color="#CBCBCB"/>
</linearGradient>
</defs>
</svg>
